<svg xmlns="http://www.w3.org/2000/svg" width="68.093" height="59" viewBox="0 0 68.093 59">
    <g data-name="Group 28">
        <g data-name="Group 27">
            <path data-name="Path 103" d="M223.631 281.5a4.329 4.329 0 1 1-4.329 4.329 4.327 4.327 0 0 1 4.329-4.329m0-3.7a8.031 8.031 0 1 0 8.031 8.031 8.04 8.04 0 0 0-8.031-8.031z" transform="translate(-200.278 -277.8)" style="fill:#69519e"/>
        </g>
    </g>
    <g data-name="Group 30">
        <g data-name="Group 29">
            <path data-name="Path 104" d="M169.831 335a4.329 4.329 0 1 1-4.329 4.329 4.327 4.327 0 0 1 4.329-4.329m0-3.7a8.031 8.031 0 1 0 8.031 8.031 8.04 8.04 0 0 0-8.031-8.031z" transform="translate(-161.8 -316.064)" style="fill:#69519e"/>
        </g>
    </g>
    <g data-name="Group 32">
        <g data-name="Group 31">
            <path data-name="Path 105" d="M352.531 335a4.329 4.329 0 1 1-4.329 4.329 4.327 4.327 0 0 1 4.329-4.329m0-3.7a8.031 8.031 0 1 0 8.031 8.031 8.04 8.04 0 0 0-8.031-8.031z" transform="translate(-292.469 -316.064)" style="fill:#69519e"/>
        </g>
    </g>
    <g data-name="Group 34">
        <g data-name="Group 33">
            <path data-name="Path 106" d="M298.931 281.5a4.329 4.329 0 1 1-4.329 4.329 4.327 4.327 0 0 1 4.329-4.329m0-3.7a8.031 8.031 0 1 0 8.031 8.031 8.04 8.04 0 0 0-8.031-8.031z" transform="translate(-254.134 -277.8)" style="fill:#69519e"/>
        </g>
    </g>
    <path data-name="Path 107" d="M209.224 379.3a14.572 14.572 0 0 1-6.735-1.654 16.5 16.5 0 0 1-8.362-11.385 14.86 14.86 0 0 1 .507-8.016 22.287 22.287 0 0 1 4.752-6.952 85.979 85.979 0 0 1 10.184-9.893 22.027 22.027 0 0 1 5.4-3.319 10.743 10.743 0 0 1 6.9-.512c2.5.734 4.406 2.475 6.087 4.012l2.24 2.024a83.605 83.605 0 0 1 7.766 7.607c4.076 4.743 6.1 9.675 5.855 14.263a14.251 14.251 0 0 1-13.552 13.512 20.352 20.352 0 0 1-11.826-3.339 12.954 12.954 0 0 1-9.216 3.652zm10.068-38.379a8.109 8.109 0 0 0-2.961.607 18.613 18.613 0 0 0-4.46 2.777 82.626 82.626 0 0 0-9.742 9.471 18.968 18.968 0 0 0-4.029 5.764 11.16 11.16 0 0 0-.343 6 12.764 12.764 0 0 0 6.44 8.821 10.276 10.276 0 0 0 11.2-.935 29.592 29.592 0 0 1-6.66-8.054 10.222 10.222 0 0 1-1.5-6.265 7.5 7.5 0 0 1 5.019-5.785 9.155 9.155 0 0 1 6.843.567 8.156 8.156 0 0 1 6.42-1.168 7.1 7.1 0 0 1 4.752 4.886 9.188 9.188 0 0 1-.612 6.39 17.154 17.154 0 0 1-4.7 5.59 1.851 1.851 0 1 1-2.389-2.828 13.852 13.852 0 0 0 3.735-4.331 5.489 5.489 0 0 0 .408-3.8 3.415 3.415 0 0 0-2.208-2.351 4.893 4.893 0 0 0-3.859 1.006 2.592 2.592 0 0 1-1.047.454 2.67 2.67 0 0 1-1.959-.446 5.375 5.375 0 0 0-4.205-.465 3.794 3.794 0 0 0-2.536 2.829 6.528 6.528 0 0 0 1.078 3.924c3.289 5.9 10.365 12.087 18.106 11.711a10.549 10.549 0 0 0 10.031-10c.245-4.582-2.565-8.871-4.966-11.665a79.6 79.6 0 0 0-7.43-7.264l-2.155-1.946c-1.629-1.489-3.063-2.8-4.74-3.292a5.458 5.458 0 0 0-1.53-.204z" transform="translate(-184.692 -320.298)" style="fill:#69519e"/>
</svg>
