<svg xmlns="http://www.w3.org/2000/svg" width="311.339" height="244.44" viewBox="0 0 311.339 244.44">
    <g data-name="Group 15">
        <path data-name="Path 133" d="M848.432 580.366a93.1 93.1 0 0 1-20.315 16.389c-.172.106-.347.205-.523.308l-12.154-10.757c.128-.119.269-.252.421-.4 9.056-8.6 54.014-68.723 57.01-83.364-.206 1.221 2.704 49.058-24.439 77.824z" transform="translate(-565.032 -357.218)" style="fill:#f0f0f0"/>
        <path data-name="Path 134" d="M837.1 679.363c-.23.055-.464.106-.7.153l-9.118-8.07c.178-.062.386-.136.625-.218 3.912-1.385 15.565-5.567 27.16-10.33 12.46-5.12 24.86-10.906 27.527-14.611-.575.86-18.194 26.971-45.494 33.076z" transform="translate(-571.665 -437.75)" style="fill:#f0f0f0"/>
        <path data-name="Path 80" d="M739.948 246.095h-1.3v-35.573a20.588 20.588 0 0 0-20.589-20.588H642.7a20.588 20.588 0 0 0-20.588 20.588v195.154a20.588 20.588 0 0 0 20.588 20.589h75.365a20.588 20.588 0 0 0 20.588-20.588V271.416h1.3z" transform="translate(-456.716 -182.077)" style="fill:#3f3d56"/>
        <path data-name="Path 81" d="M741.505 217.489v194.87a15.372 15.372 0 0 1-15.378 15.372H650.4a15.371 15.371 0 0 1-15.372-15.373V217.489a15.371 15.371 0 0 1 15.372-15.372h9.189a7.308 7.308 0 0 0 6.765 10.061h43.175a7.3 7.3 0 0 0 6.765-10.061h9.833a15.372 15.372 0 0 1 15.378 15.372z" transform="translate(-463.954 -188.902)" style="fill:#fff"/>
        <path data-name="Path 82" d="M733.188 453.361h-66.563a4.4 4.4 0 0 1-4.4-4.4v-2.189a4.4 4.4 0 0 1 4.4-4.4h66.563a4.4 4.4 0 0 1 4.4 4.4v2.189a4.4 4.4 0 0 1-4.4 4.4z" transform="translate(-479.194 -323.509)" style="fill:#f0f0f0"/>
        <path data-name="Path 83" d="M733.188 496.268h-66.563a4.4 4.4 0 0 1-4.4-4.4v-2.189a4.4 4.4 0 0 1 4.4-4.4h66.563a4.4 4.4 0 0 1 4.4 4.4v2.189a4.4 4.4 0 0 1-4.4 4.4z" transform="translate(-479.194 -347.548)" style="fill:#f0f0f0"/>
        <path data-name="Path 84" d="M740.48 443.2h-66.563a4.622 4.622 0 0 1-4.617-4.617V436.4a4.623 4.623 0 0 1 4.617-4.617h66.563a4.623 4.623 0 0 1 4.62 4.617v2.189a4.623 4.623 0 0 1-4.62 4.611zm-66.563-10.544a3.742 3.742 0 0 0-3.738 3.738v2.189a3.742 3.742 0 0 0 3.738 3.738h66.563a3.742 3.742 0 0 0 3.738-3.738V436.4a3.742 3.742 0 0 0-3.738-3.738z" transform="translate(-483.156 -317.573)" style="fill:#3f3d56"/>
        <path data-name="Path 85" d="M740.48 486.112h-66.563a4.622 4.622 0 0 1-4.617-4.617v-2.189a4.623 4.623 0 0 1 4.617-4.617h66.563a4.623 4.623 0 0 1 4.617 4.617v2.194a4.623 4.623 0 0 1-4.617 4.612zm-66.562-10.544a3.742 3.742 0 0 0-3.738 3.738v2.194a3.742 3.742 0 0 0 3.738 3.738h66.562a3.742 3.742 0 0 0 3.738-3.738v-2.189a3.742 3.742 0 0 0-3.738-3.738z" transform="translate(-483.156 -341.612)" style="fill:#3f3d56"/>
        <path data-name="Path 86" d="M804.4 217.489v42.387a45.531 45.531 0 0 1-57.115-44.007q0-1.865.15-3.69h24.989a7.3 7.3 0 0 0 6.765-10.061h9.833a15.372 15.372 0 0 1 15.378 15.371z" transform="translate(-526.845 -188.902)" style="fill:#f0f0f0"/>
        <path data-name="Path 87" d="M673.291 666.025c0 .893-.033 1.776-.105 2.647H650.4a15.371 15.371 0 0 1-15.373-15.372v-20.844a33.893 33.893 0 0 1 38.264 33.569z" transform="translate(-463.954 -429.843)" style="fill:#69519e"/>
        <path data-name="Path 88" d="M294.55 554.473a2.641 2.641 0 0 0 3.479-1.349l20.527-46.524a5.884 5.884 0 0 0-7.51-7.861 5.8 5.8 0 0 0-2.968 2.542 5.994 5.994 0 0 0-.288.569l-20.527 46.522a2.638 2.638 0 0 0 1.349 3.479z" transform="translate(-268.992 -354.864)" style="fill:#907cbc"/>
        <path data-name="Path 89" d="m330.927 524.53-20.3-4.512 5.025-13.294a14.05 14.05 0 0 1 15.083-10.39l.2.022z" transform="translate(-282.206 -353.693)" style="fill:#2f2e41"/>
        <path data-name="Path 90" d="M419.624 554.577a3.09 3.09 0 0 1-2.82-1.837l-20.527-46.522a6.324 6.324 0 0 1 11.262-5.715 6.42 6.42 0 0 1 .309.61l20.527 46.522a3.078 3.078 0 0 1-1.574 4.059l-6.139 2.709v-.007a3.052 3.052 0 0 1-1.038.181z" transform="translate(-329.892 -354.303)" style="fill:#907cbc"/>
        <path data-name="Path 91" d="M382.123 591.169a2.641 2.641 0 0 0-2.638 2.638V647.9a2.641 2.641 0 0 0 2.638 2.638h6.491a2.641 2.641 0 0 0 2.638-2.638v-54.093a2.642 2.642 0 0 0-2.638-2.638z" transform="translate(-320.786 -406.871)" style="fill:#907cbc"/>
        <path data-name="Path 92" d="M352.931 591.169a2.641 2.641 0 0 0-2.638 2.638V647.9a2.641 2.641 0 0 0 2.638 2.638h6.491a2.641 2.641 0 0 0 2.638-2.638v-54.093a2.642 2.642 0 0 0-2.638-2.638z" transform="translate(-304.431 -406.871)" style="fill:#907cbc"/>
        <path data-name="Path 102" d="M22.427 0A22.427 22.427 0 1 1 0 22.427 22.427 22.427 0 0 1 22.427 0z" transform="translate(35.544 82.771)" style="fill:#907cbc"/>
        <path data-name="Path 93" d="M394.769 413.624a8.091 8.091 0 0 0 4.657-1.109 3.576 3.576 0 0 0 1.407-2.67 2.406 2.406 0 0 0-.818-1.976 3.1 3.1 0 0 0-2.937-.423l1.187-8.674-.871-.119-1.4 10.2.728-.334a2.663 2.663 0 0 1 2.721.024 1.546 1.546 0 0 1 .507 1.273 2.7 2.7 0 0 1-1.047 1.991 7.275 7.275 0 0 1-4.163.94z" transform="translate(-329.335 -299.012)" style="fill:#2f2e41"/>
        <path data-name="Rectangle 23" transform="translate(73.239 100.508)" style="fill:#2f2e41" d="M0 0h4.737v.879H0z"/>
        <path data-name="Rectangle 24" transform="translate(58.288 100.508)" style="fill:#2f2e41" d="M0 0h4.737v.879H0z"/>
        <path data-name="Path 94" d="m372.231 543.416-8.072-58.926a2.639 2.639 0 0 0-2.614-2.28h-6.093a2.646 2.646 0 0 0 .04-.44v-2.2a2.638 2.638 0 0 0-2.638-2.638h-5.277a2.638 2.638 0 0 0-2.638 2.638v2.2a2.648 2.648 0 0 0 .039.44h-6.093a2.639 2.639 0 0 0-2.614 2.28l-8.071 58.926a2.638 2.638 0 0 0 2.614 3h38.8a2.639 2.639 0 0 0 2.614-3z" transform="translate(-292.038 -342.87)" style="fill:#2f2e41"/>
        <path data-name="Path 95" d="M399.8 524.531v-28.175l.2-.022a14.055 14.055 0 0 1 15.09 10.413l5.018 13.271z" transform="translate(-332.164 -353.694)" style="fill:#2f2e41"/>
        <path data-name="Path 96" d="m338 393.838-15.512-6.021c-2.537-.985-5.087-1.939-7.61-2.958a8.674 8.674 0 0 1-2.929-1.727 5.756 5.756 0 0 1-1.46-2.826 29.113 29.113 0 0 1-.4-7.081 53.951 53.951 0 0 1 .625-7.582 36.624 36.624 0 0 1 4.683-13.36c4.35-7.138 11.845-12.508 20.467-12.079a17.527 17.527 0 0 1 10.971 4.36 6.927 6.927 0 0 0 1.036 1 1.437 1.437 0 0 0 .825.055q.543-.035 1.087-.053a22.45 22.45 0 0 1 3.767.158 11.926 11.926 0 0 1 6.214 2.58 7.577 7.577 0 0 1 2.812 5.075 6.007 6.007 0 0 1-2.029 4.9c-1.851 1.56-4.491 1.012-6.711.894l-8.133-.431-4.121-.218c-.848-.045-.846 1.274 0 1.319l10.952.58a47.869 47.869 0 0 0 5.335.216 5.969 5.969 0 0 0 3.664-1.474 7.312 7.312 0 0 0 2.215-6.861 9.807 9.807 0 0 0-4.928-6.26c-3.2-1.807-7.031-1.98-10.616-1.713l.466.193c-4.055-4.353-10.267-6.19-16.1-5.547A24.093 24.093 0 0 0 317 347.8a36.253 36.253 0 0 0-7.707 18.482 61.5 61.5 0 0 0-.476 10.941 13.787 13.787 0 0 0 .815 4.728 6.768 6.768 0 0 0 3.177 3.406 45.467 45.467 0 0 0 5.043 2.072l5.715 2.218L334.788 394l2.858 1.109c.792.307 1.135-.968.351-1.272z" transform="translate(-281.155 -265.514)" style="fill:#2f2e41"/>
        <path data-name="Path 97" d="M311.111 344.566a6.816 6.816 0 1 1 6.816-6.816 6.816 6.816 0 0 1-6.816 6.816zm0-12.313a5.5 5.5 0 1 0 5.5 5.5 5.5 5.5 0 0 0-5.5-5.5z" transform="translate(-278.66 -261.073)" style="fill:#2f2e41"/>
        <path data-name="Rectangle 25" transform="rotate(37.44 -103.052 251.425)" style="fill:#f0f0f0" d="M0 0h18.573v18.573H0z"/>
        <path data-name="Path 98" d="M357.435 197.074a14.929 14.929 0 0 1 12 6.025l8.615-11.264-25.85-19.768-19.769 25.848 11.14 8.52a14.953 14.953 0 0 1 13.867-9.361z" transform="translate(-294.422 -172.066)" style="fill:#f0f0f0"/>
        <path data-name="Path 99" d="M556.9 726.814H246.44a.44.44 0 0 1 0-.88H556.9a.44.44 0 1 1 0 .88z" transform="translate(-246 -482.374)" style="opacity:.54;fill:#3f3d56"/>
        <path data-name="Path 100" d="M734.823 548.009h-31.6a4.4 4.4 0 0 1-4.4-4.4v-2.189a4.4 4.4 0 0 1 4.4-4.4h31.6a4.4 4.4 0 0 1 4.4 4.4v2.189a4.4 4.4 0 0 1-4.4 4.4z" transform="translate(-499.698 -376.537)" style="fill:#69519e"/>
        <path data-name="Path 101" d="M742.115 537.853h-31.6a4.623 4.623 0 0 1-4.617-4.617v-2.189a4.623 4.623 0 0 1 4.617-4.617h31.6a4.623 4.623 0 0 1 4.617 4.617v2.189a4.622 4.622 0 0 1-4.617 4.617zm-31.6-10.544a3.742 3.742 0 0 0-3.738 3.738v2.189a3.742 3.742 0 0 0 3.738 3.738h31.6a3.742 3.742 0 0 0 3.738-3.738v-2.189a3.742 3.742 0 0 0-3.738-3.738z" transform="translate(-503.66 -370.6)" style="fill:#3f3d56"/>
    </g>
</svg>
