<svg xmlns="http://www.w3.org/2000/svg" width="296.047" height="321.032" viewBox="0 0 296.047 321.032">
    <g data-name="Group 604">
        <path data-name="Path 809" d="M95.124 259.621c-.808.162-18.726 9.2-18.726 9.2l51.974 58.271s30.023-61.823 29.539-61.66-28.571-7.263-28.571-7.263z" transform="translate(16.795 -153.448)" style="fill:#fff"/>
        <path data-name="Path 810" d="M157.912 264.692c-.311.105-11.962-2.91-20.287-5.086 3.9 10.165.743 23.905-1.531 33.629-1.577 6.75-9.363 12.275-15.838 7.053-6.788-5.478-11.754-12.505-16.4-19.806-4.339-6.825-8.044-13.64-8.862-21.559-1.791.68-18.6 9.159-18.6 9.159l51.974 58.271s30.032-61.823 29.544-61.661z" transform="translate(16.795 -152.708)" style="fill:#5dafad;opacity:.3"/>
        <path data-name="Path 811" d="M123.964 262.4s-33.817 16.909-48.612 33.112S31.155 373.6 30.2 385.622c-2.819 35.58 66.988 10.637 66.988 10.637l-.057 75.317 161.692-1.056 1.084-51.222s12.87-2.857 29.074-5.674 34.247-14.213 29.536-29.912c-5.6-18.665-26.875-74.112-51.533-93.136s-68.341-29.591-68.341-29.591-24.66 59.182-26.774 57.068-47.905-55.653-47.905-55.653z" transform="translate(-28.611 -150.684)" style="fill:#2ec2bb"/>
        <path data-name="Path 812" d="M95.189 297.823c-10.265 15.132-21.371 29.656-34.35 42.857-3.071 3.124-7.558 3.972-11.812 3.229-5.648 2.5-12.119.783-16.541-3.1a41.122 41.122 0 0 0-2.282 8.674c-2.165 27.326 38.475 18.958 57.464 13.6-3.795-22.92-.031-44.541 7.521-65.26z" transform="translate(-28.611 -114.54)" style="fill:#2c8f8a"/>
        <path data-name="Path 813" d="M116.451 276.822C97.125 309.335 65.868 376.943 63.99 398.088l-.044 57.95 60.674-.394c-.878-8.414-1.686-16.854-2.358-25.31q-.912-9.483-1.262-19.059c-2.043-39.3-.3-78.639 10.895-116.51a6717.142 6717.142 0 0 1-15.444-17.943z" transform="translate(4.577 -135.145)" style="fill:#2c8f8a"/>
        <path data-name="Path 814" d="m217.6 366.625-.03-.04a55.589 55.589 0 0 1-6.043-.9c-.145 4.382-1.926 8.7-5.492 11a108.688 108.688 0 0 1-25.3 11.848c-8.123 2.71-16.125.259-20.115-7.723-3.437-6.873.139-17.583 7.721-20.117 3.435-1.145 6.875-2.294 10.231-3.659a74.875 74.875 0 0 0 4.775-2.13c.258-.125 1.595-.894 2.617-1.464-22.276-17.783-35.905-49.908-44.86-75.014-2.71.105-5.417.1-8.127.059a15.078 15.078 0 0 1 4.575 11.719c-.622 17.791 2.217 35.426 4.157 53.058 1.9 17.252 2.532 34.572 2.7 51.921.194 19.447-.38 38.883-.963 58.324l14.455-.1 1.084-51.222s12.87-2.857 29.074-5.674 34.23-14.201 29.541-29.886z" transform="translate(72.312 -133.573)" style="fill:#2c8f8a"/>
        <path data-name="Path 815" d="M63.608 326.194c-.018-4.618-.184-8.537-5.1-10.3-4.343-1.557-11.217-.917-15.675.089-11.3 2.552-16.343 15.291-11.82 26.063 2.6 6.2 7.384 9.537 14.292 7.9 9.659-2.288 16.35-10.718 18.303-23.752z" transform="translate(-29.359 -97.723)" style="fill:#2c8f8a"/>
        <path data-name="Path 816" d="M103.3 439.107c-.642-18.36-1.638-36.628-.527-54.992 2.06-34.082 6.405-67.957 10.106-101.89l-4.751-5.533c-14.475 58.49-29.746 116.816-35.473 176.99a14.5 14.5 0 0 1-.45 2.379l31.422-.206c.023-5.626-.135-11.237-.327-16.748z" transform="translate(12.681 -135.274)" style="fill:#2ec2bb"/>
        <path data-name="Path 817" d="m151.83 260.836 1.9.634s-9.674 20.933-12.688 27.911-14.742 29.813-14.742 29.813-18.869-21.884-25.213-28.067-23.6-28.583-23.6-28.583l1.714-.757s12.369 14.591 21.884 25.531 25.215 28.545 25.215 28.545 10.469-21.09 12.529-26.324 13.001-28.703 13.001-28.703z" transform="translate(17.865 -150.831)" style="fill:#0b6d64"/>
        <path data-name="Path 818" d="M228.719 368.885c-.777-2.593-1.866-5.914-3.215-9.728-1.815 5.787-10.4 29.593-25.458 27.745-7.776-.951-15.964-9.155-14.013-17.5a23.684 23.684 0 0 0 .388-2.732c-.069.289-.1.1.129-1.02a5.754 5.754 0 0 0-.026-.989c-.17-1.466-.505-2.889-.763-4.337-.107-.5-.236-1-.365-1.494l-.083-.262a138.549 138.549 0 0 0-7.653-17.306 198.208 198.208 0 0 0-4.915-8.7c-.366-.616-1.882-3.023-1.306-2.118-.39-.62-.781-1.24-1.175-1.854-4.323-6.712-6.316-10.421-10.958-16.783a139.222 139.222 0 0 0-14.118-16.448c-.036-.036-2.025-1.955-2.146-2.1q-1.664-1.527-3.372-3.005-3.8-3.3-7.75-6.4a327.798 327.798 0 0 0-10.276-7.758c1.795 7.937 3.334 15.937 4.787 23.941a706.992 706.992 0 0 1 11.324 106.917c.446 16.311.739 32.628 1.365 48.933l29.906-.2 1.084-51.221s12.87-2.857 29.074-5.674 34.246-14.208 29.535-29.907z" transform="translate(61.19 -135.856)" style="fill:#2c8f8a"/>
        <path data-name="Path 819" d="M150.789 322.8s18.334-9.286 26.974 1.823c5.1 6.56 8.02 18.591 4.374 24.424a14.24 14.24 0 0 1-9.478 6.562z" transform="translate(89.787 -93.6)" style="fill:#2c8f8a"/>
        <path data-name="Path 820" d="M151.605 247.124c-2.08-2.675-5.631 1.127-5.631 1.127s2.522-23.97-9.252-30.7-26.07-6.728-26.07-6.728S94.254 215.451 85 220.5c-3.832 2.092-6.651 7.717-8.644 13.587 1.579 6.583 2.187 13.268 3.13 20a79.941 79.941 0 0 0 2.15 10.088 2.942 2.942 0 0 1 1.442 2.158c1.549 9.211 6.518 20.533 15.263 24.991a3.258 3.258 0 0 1 2.017 3.307c-.715 4.834-3.21 9.006-4.228 13.742a3.282 3.282 0 0 1-.151.466c4.689 2.57 13.922 7.112 20.557 7.112 9.25 0 20.6-9.25 20.6-9.25l-7.568-13.876a51.093 51.093 0 0 0 7.148-6.308c2.524-2.944 5.518-18.32 5.518-18.32s2.579 2.435 4.684 1.171 7.417-18.731 4.687-22.244z" transform="translate(16.758 -199.899)" style="fill:#ffc489"/>
        <path data-name="Path 821" d="M113.634 225.952c-2.815-3.005-9.791-1.49-12.779 1.294-4.828 4.5-2.494 7.6 1.292 8.214 2.583.42 6.459.836 9.753-1.169 3.52-2.141 6.323-3.443 1.734-8.339z" transform="translate(38.123 -186.673)" style="opacity:.5;fill:#f7893e"/>
        <g data-name="Group 572">
            <path data-name="Path 822" d="M132.347 288.43s2.138-1.555 4.3-3.477c-.428.321-.87.622-1.329.905a31.04 31.04 0 0 1-11.594 5.615c-4.858.9-10.247.309-10.421-5.171-.127-4.012 3-6.637 6.619-7.42 2.306-.5 11.287-.854 6.906-5.609-2.14-2.318-7.114-2.239-9.827-3.867-3.336-2-3.142-3.786-2.035-7.164-.834-.168-5.462-2.34-5.852-3.9 0 0 5.852-6.633 1.591-21.565-2.021-7.081-14.5.392-19.655 4.065-9.092 6.484-5.926-19.033-1.737-25.535-.529.266-1.05.525-1.537.8-15.976 8.967-5.583 32.089-5.583 32.089s-2.459-5.942-6.243-4.68-2.492 7.768-.39 13.656 4.489 8.584 6.633 8.584c1.561 0 2.732-1.953 2.732-1.953s3.9 16.779 6.243 19.12c3.58 3.58 10.484 6.77 10.484 6.77l-5.888 13.034s14.3 8.83 23.548 8.83 20.6-9.25 20.6-9.25zM89.062 261A8.4 8.4 0 0 1 88 250.434c1.9-2.827 4.4-3.661 7.748-2.112 11.982 9.512 6.296 26.378-6.686 12.678z" transform="translate(13.986 -195.506)" style="fill:#fdb177"/>
        </g>
        <g data-name="Group 573" style="opacity:.2">
            <path data-name="Path 823" d="M95.65 285.909c-2.633-6.857-4.232-14.177-5.73-21.345-.038-.186-.079-.367-.119-.551A24.432 24.432 0 0 1 86.42 261a8.4 8.4 0 0 1-1.058-10.57 8.255 8.255 0 0 1 1.117-1.343 72.4 72.4 0 0 1-1.058-7.271c-5.234-.969-2.381-20.88 1.25-26.516-.529.266-1.05.527-1.537.8-15.412 8.648-6.288 30.465-5.623 32a11.473 11.473 0 0 0-2.56-3.649A22.19 22.19 0 0 1 81 254.573a31.44 31.44 0 0 1 .321 3.16c.1.406.214.818.311 1.216a25.462 25.462 0 0 1 .707 5.1c.481 2.041 4 16.691 6.183 18.869a36.1 36.1 0 0 0 7.76 5.381c-.212-.793-.418-1.589-.632-2.39z" transform="translate(16.628 -195.506)" style="fill:#f88c4c"/>
        </g>
        <path data-name="Path 824" d="M114.693 228.928c-.838-6.286-6.827-5.652-11.412-4.01-1.92.687-5.9 2.027-5.9 2.027-.535 1.971 1.131 3.5 1.7 3.15 2.964-1.787 12.6-4.816 15.608-1.167z" transform="translate(37.282 -187.163)" style="fill:#6d3812"/>
        <path data-name="Path 825" d="M83.885 229.125c.838-6.286 6.827-5.652 11.412-4.01 1.92.687 5.9 2.027 5.9 2.027.535 1.971-1.129 3.5-1.7 3.152-2.966-1.791-12.6-4.82-15.608-1.169z" transform="translate(24.141 -186.97)" style="fill:#6d3812"/>
        <path data-name="Path 826" d="M98.5 230.21a5.86 5.86 0 0 1 5.181-2.873c2.788.174 5.751 3.313 5.751 3.313a7.727 7.727 0 0 1-5.054 2.264c-4.435.349-5.878-2.704-5.878-2.704z" transform="translate(38.478 -183.708)" style="fill:#fff"/>
        <path data-name="Path 827" d="M96.055 231.21s-2.282-4.073-6.52-2.282c-3.962 1.678-4.238 3.913-4.238 3.913a7.974 7.974 0 0 0 6.031 1.141c3.748-.652 4.727-2.772 4.727-2.772z" transform="translate(25.527 -182.585)" style="fill:#fff"/>
        <path data-name="Path 828" d="M102.943 228.734a.872.872 0 1 1-.872-.874.873.873 0 0 1 .872.874z" transform="translate(41.131 -183.186)" style="fill:#fff"/>
        <path data-name="Path 829" d="M90.054 229.763a.815.815 0 1 1-.814-.814.813.813 0 0 1 .814.814z" transform="translate(28.594 -182.118)" style="fill:#fff"/>
        <path data-name="Path 830" d="M87.666 243.283c.765-.153 10.245-2.14 11.622-1.837a12.358 12.358 0 0 0 3.364.614c1.682-.153 1.835-.765 4.129-1.07s10.4.612 10.4.612-5.351 7.338-14.372 7.951c-8.569.581-15.143-6.27-15.143-6.27z" transform="translate(27.851 -170.364)" style="fill:#ce4a21;opacity:.5"/>
        <path data-name="Path 831" d="M88.824 243.033s10.118-.4 13.151-.462 12.384-.917 12.384-.917-7.188 4.588-12.689 4.588-12.846-3.209-12.846-3.209z" transform="translate(28.987 -169.652)" style="fill:#fff"/>
        <path data-name="Path 832" d="m68.786 338.58.392-.083c2.215 1.385 16.174 15.1 14.235 21.468S73.166 367.443 74 368s12.676 7.423 13.569 14.677c.68 5.531-3.324 7.756-7.477 4.432S55.995 368 55.995 368l.832-26.865c7.445-1.589 14.673-1.848 17.456-10.29 2.461 2.385 2.128 14.465-1.478 15.834z" transform="translate(-3.224 -82.143)" style="fill:#af6833"/>
        <path data-name="Path 833" d="M65.85 357.412c-.2-.057 9.316-8.947 8.561-20.888-.264-4.129-5.353-5.322-9.078-5.747-4.489-.515-7.558 2.318-7.853 6.871-.216 3.309 1.7 7.847 3.031 10.776.933 2.052 2.95 7.282 5.339 8.988z" transform="translate(-1.784 -82.265)" style="fill:#f4cf98"/>
        <path data-name="Path 834" d="M87.133 380.366c-.079.315-.164.624-.26.925a1 1 0 0 1-1.264.7 1.163 1.163 0 0 1-2.278-.036c-.006-.05 0-.1-.01-.149-.67.773-2.253.406-2.041-.832.131-.749.287-1.508.384-2.268a38.078 38.078 0 0 1-4.218-4.582c-3.483-3.949-8.493-5.312-12.989-7.735a2.976 2.976 0 0 1 .042-5.216 2.414 2.414 0 0 1 .3-.21 2.636 2.636 0 0 1-.149-4.18c3.477-2.883 9.765.828 14.031 3.857a10.472 10.472 0 0 0 4.428-4.8c-2.99 3.9-9.216 1.224-12.432-1.327-5.143-4.079-9.238-9.518-12.963-14.875a2.779 2.779 0 0 1 .5-3.75l-1.391.3-.83 26.865s19.941 15.786 24.1 19.109c3.467 2.776 6.813 1.668 7.433-1.987a2.258 2.258 0 0 1-.393.191z" transform="translate(-3.224 -77.193)" style="fill:#a35928"/>
        <path data-name="Path 835" d="M50.108 199.359c-1.472-.723-4.085.747-3.3 2.607 1.355 3.212 3.746-.961 3.855-2.607z"/>
        <path data-name="Path 836" d="M78.443 317.018c11.511-2.807 29.765 2.064 32.244 15.679.517 2.847-.705 7.324-4.367 7.041-2.827-.22-5.27-5.066-7.433-6.762-5.981-4.687-10.173-5.064-17.68-5.046-4.46 6.687-4.168 14.48-9.325 20.983-2.748 3.463-8.531 6.387-12.882 4.5-6.245-2.71-4.531-10.7-2.964-15.762s3.055-10.074 4.392-15.192c.87-3.324.761-6.958 4.517-7.935 3.211-.836 7.836.119 10.821 1.395 1.407.602 1.745 1.325 2.677 1.099z" transform="translate(-4.623 -98.462)" style="fill:#a35928"/>
        <path data-name="Path 837" d="M38.424 325.979c-3.8 3.34-10.029 9.811-6.508 20.371s18.261 12.856 44.034 13.973c17.351.757 39.953-8.188 41.462-8.945s12.252-21.85 12.252-21.85.438-8.939-2.435-12.268c-8.86-10.265-11.9-8.584-12.862-7.2-.931-.559-3.3-.117-2.383 1.613-2.69.747-1.45 2.344 2.029 8.535a3.256 3.256 0 0 1-2.992 4.969c-2.516-.254-.1-3.291-.313-5.6a5.122 5.122 0 0 0-3.437-4.374l-4.7 7.259.252 14.586s-33.094-1.848-40.743-9.385c-8.308-8.193-20.449-4.504-23.656-1.684z" transform="translate(-27.872 -103.553)" style="fill:#ffc489"/>
        <path data-name="Path 838" d="M128.611 317.581c.184 2.274-3.346 3.556-4.436 1.1-1.145-2.581-4.586-5.886-6.669-7.588a45.08 45.08 0 0 1 4.6 6.372c1.446 2.617-1.4 4.836-2.831 2.239-1.421-2.57-3.39-6.009-6.019-7.9.745.793 3.935 5.359 4.248 7.081.5 2.766-4.071 5.587-6.585 5.333s.145-3.782-.065-6.09a5 5 0 0 0-.771-2.288 9.259 9.259 0 0 1-4.383 5.86 2.832 2.832 0 0 1-.989.323 2.153 2.153 0 0 0-1.734 2.361l1.331 16.363c0 6.982-15.237 12.7-49.518 7.618-6.512-.965-20.313-5.714-23.481-14.009a19.982 19.982 0 0 0 .753 10.536c3.519 10.562 17.462 13.51 43.259 13.2 18.457-.222 40.729-7.412 42.237-8.168s12.057-22.433 12.057-22.433a28.619 28.619 0 0 0-1.004-9.91z" transform="translate(-27.826 -101.517)" style="fill:#fdb177"/>
        <path data-name="Path 839" d="M86.4 319.371a31.722 31.722 0 0 0-6.534 9.21c-2.375 5.343-4.905 13.052-4.905 13.052a70.855 70.855 0 0 0 6.1-10.381c2.075-4.752 5.339-11.881 5.339-11.881z" transform="translate(15.388 -93.397)" style="fill:#f88c4c"/>
        <g data-name="Group 575">
            <path data-name="Path 840" d="M127.89 162.936c-3.838-3.186-7.134-5.454-8.884-10.381-2.946-8.293-3.911-16.991-7.463-25.163-2.259-5.2-5.278-12.646-11.033-14.968.725-5.751 6.982-9.492 12.737-11.956.119-.337 1.236-3.853 1.236-3.853a67.137 67.137 0 0 0-4.874 2.233c-5.419 2.756-11.326 6.635-12.214 12.888-16.123-1.187-7.469 29.294-4.579 36.147 2.518 5.977 4.727 11.025 2.316 17.421-1.246 3.3-3.192 6.326-2.564 10.017 1.31 7.695 10.045 9.232 16.436 9.793 2.035.178 2.1-2.994.075-3.17-3.931-.345-9.1-.672-11.812-4.024-3.289-4.065-.642-7.849.9-11.7 2-4.995 1.478-9.609-.365-14.57-2.316-6.239-5.08-12.022-6.1-18.673-.573-3.721-1.076-8.093-.289-11.857a10.788 10.788 0 0 1 1.133-3.38c1.928-3.051 7.3-2.688 9.7-.307 4.45 4.426 7.075 12.218 9.016 17.981 1.817 5.395 2.589 11.007 4.208 16.442a20.948 20.948 0 0 0 6.833 10.79c2.076 1.708 4.584 3.055 6.1 5.335a7.33 7.33 0 0 1-3.865 11.079c-1.914.656-1.165 3.738.771 3.075a10.853 10.853 0 0 0 7.509-11.9c-.52-3.127-2.582-5.356-4.928-7.299z"/>
            <g data-name="Group 574">
                <path data-name="Path 841" d="M167.137 108.231a56.623 56.623 0 0 0-19.366-12.68l2.278 4.192a45.368 45.368 0 0 1 17.743 14.183c10.534 14.332 3.013 31.164-6.627 43.6-10.031 12.941-20.969 25.248-31.467 37.809-1.31 1.567 1.06 3.673 2.371 2.106l21.555-25.783c5.769-6.9 11.907-13.7 16.438-21.514 8.051-13.886 8.5-29.844-2.925-41.913z"/>
                <path data-name="Path 842" d="m117.388 200.031 12.311-4.7 2.371 2.106s.515 9.569-.323 9.422-14.359-6.828-14.359-6.828z"/>
                <path data-name="Path 843" d="M102.569 317.157c-.838-.149-15.152-7.259-15.152-7.259l2.364-3.62 14.36 6.833z" transform="translate(27.607 -106.243)" style="fill:#726051"/>
            </g>
        </g>
        <path data-name="Path 844" d="M92.118 228.831a4.364 4.364 0 0 0-2.708.018 7.992 7.992 0 0 1-.884.357 4.2 4.2 0 0 1-.87.182 6.411 6.411 0 0 1-1.171.305c-.1.018-.032 4.214 3.384 3.889 3.95-.376 2.885-4.012 2.447-4.64-.316-.024.142.025-.198-.111z" transform="translate(26.67 -182.439)" style="fill:#91450c"/>
        <path data-name="Path 845" d="M100.235 228.1a1.361 1.361 0 0 0-.537.551c-.816 2.134 1.153 3.633 3.2 3.633a3.044 3.044 0 0 0 2.948-3.445c-2.113-.593-3.478-1.887-5.611-.739z" transform="translate(39.471 -183.402)" style="fill:#91450c"/>
        <path data-name="Path 846" d="M90.4 230.511a1.5 1.5 0 1 1-1.5-1.506 1.5 1.5 0 0 1 1.5 1.506z" transform="translate(27.582 -182.063)" style="fill:#1c0b00"/>
        <path data-name="Path 847" d="M103.405 229.435a1.506 1.506 0 1 1-1.506-1.506 1.506 1.506 0 0 1 1.506 1.506z" transform="translate(40.34 -183.119)" style="fill:#1c0b00"/>
        <g data-name="Group 576">
            <path data-name="Path 848" d="M88.548 230.041a.815.815 0 1 1-.816-.814.817.817 0 0 1 .816.814z" transform="translate(27.116 -181.845)" style="fill:#fff"/>
            <path data-name="Path 849" d="M89.564 230.52a.5.5 0 1 1-.5-.5.5.5 0 0 1 .5.5z" transform="translate(28.73 -181.07)" style="fill:#fff"/>
        </g>
        <g data-name="Group 577" transform="translate(139.733 45.501)">
            <circle data-name="Ellipse 71" cx=".814" cy=".814" r=".814" style="fill:#fff"/>
            <path data-name="Path 850" d="M102.536 229.57a.5.5 0 1 1-.5-.5.5.5 0 0 1 .5.5z" transform="translate(-98.274 -227.503)" style="fill:#fff"/>
        </g>
        <path data-name="Path 851" d="M98.5 230.435s1.753-3.574 5.012-3.322 3.948 1.068 4.765 1.755a6.4 6.4 0 0 1 1.379 2.007 9.758 9.758 0 0 0-6.144-1.88 9.934 9.934 0 0 0-5.012 1.44z" transform="translate(38.478 -183.932)" style="fill:#ffc78f"/>
        <path data-name="Path 852" d="M96.173 231.542c-.416-.519-.489-1.323-1-1.88a4.054 4.054 0 0 0-2.2-1.426 7.063 7.063 0 0 0-6.053 1.486 6.315 6.315 0 0 0-1.161 1.823c-.2.434-.234 1.418-.553 1.686.145-.753 1.163-1.549 1.747-1.991a6.28 6.28 0 0 1 3.192-1.327 9.664 9.664 0 0 1 3.451.014 8.033 8.033 0 0 1 2.577 1.615z" transform="translate(25.444 -182.971)" style="fill:#ffc78f"/>
        <path data-name="Path 853" d="M85.987 232.649a6.915 6.915 0 0 1 4.016-2.8 9.068 9.068 0 0 1 3.332-.071c.937.212 1.466.939 2.419 1.068.226.028.44-.137.347-.347-.753-1.68-4.382-1.912-5.886-1.684a8.886 8.886 0 0 0-3.38 1.121 3.775 3.775 0 0 0-1.773 2.322c-.1.527.65.937.925.388z" transform="translate(25.287 -182.319)" style="fill:#6d3812"/>
        <path data-name="Path 854" d="M98.751 230.236c1.638-.531 2.663-1.359 4.537-1.415a9.139 9.139 0 0 1 3.215.315 14.466 14.466 0 0 0 2.615 1.117c.2.03.412-.117.345-.347-.658-2.225-4.1-2.34-5.94-2.27a7.691 7.691 0 0 0-5.094 2.052c-.26.208.022.644.321.547z" transform="translate(38.312 -183.419)" style="fill:#6d3812"/>
        <path data-name="Path 855" d="M63.5 306.056c.339-2.407-1.789-4.149-3.976-4.668-3.661-.864-6.871 2.732-9.195 6.217-3.418 5.123-8.523 10.072-11.1 15.479-.02.04-.061.059-.022.081 2.742 1.531 8.287 3.469 11.536 2.692 2.169-.519 3.82-2.827 5.347-4.238-3.035 1.914-4.474 7.727-5.062 11.186 6.041 3.824 9.686 4.979 16.345 6.177 3.455.622 12.565.905 15.826.329 3.544-1.1 8.442-3.279 10.338-4.785 5.6-4.454 6.788-10.185 9.088-13.749-2.712-6.2-8.121-6.469-8.888-8.888 3.005 1.8 13.149 3.851 18.96-.8-1.827-5.613-15.41-11.023-21.137-13.773-4.281-2.054-9.3-.9-9.51 4.376-6.885.17-12.516.2-18.55 4.364z" transform="translate(-19.715 -115.971)" style="fill:#c17b3d"/>
        <path data-name="Path 856" d="M62.082 307.107c-.648-3.089-3.61-3.738-6.336-3.114-3.4.775-6.037 3.5-3.582 6.859 1.23 1.684 3 3 5.183 2.7 4.468-.621 4.947-5.437 4.735-6.445z" transform="translate(-7.924 -108.697)" style="fill:#f4cf98"/>
        <path data-name="Path 857" d="M112.019 310.652a5.541 5.541 0 0 0-.525-1.127c-9.938 2.589-23.568-3.972-27.848-12.709a5.23 5.23 0 0 0-2.274 4.44c-2.328.054-4.509.1-6.615.289 5.478-.361 9.373 4.277 13.3 8.057 3.251 3.128 10.843 8.5 4.89 13.048-5 3.82-11.279 1.482-15.838-2.058-4.376 4.614-9.6 11.744-16.313 8.333-3.725-1.894-3.927-8.079-1.874-11.655 3.192-5.571 6.237-12.509 12.7-15.021a10.889 10.889 0 0 1 2.385-.632 23.051 23.051 0 0 0-11.19 4c.313-2.225-1.484-3.867-3.485-4.515-1.613 10.189-7.812 20.606-18.647 22.116-.273.057-.537.135-.814.18 2.948 1.359 7.406 2.686 10.189 2.021a7.789 7.789 0 0 0 3.481-2.338c-1.789 2.6-2.744 6.633-3.2 9.286 6.041 3.824 9.686 4.979 16.345 6.177 3.455.622 12.565.905 15.826.329 3.544-1.1 9.619-2.617 11.221-4.432 4.323-4.886 5.9-10.538 8.2-14.1-2.712-6.2-8.121-6.469-8.888-8.888 3.019 1.8 13.163 3.847 18.974-.801z" transform="translate(-19.04 -115.529)" style="fill:#a35928"/>
        <path data-name="Path 858" d="M49.7 325.6a14.883 14.883 0 0 0 7.687 1.609c.265 4.273 1.652 8.729 1.058 13.117-1.2 8.858 7.4 9.777 9.468 3.4 1.749-5.387.291-15.941-1.169-20.563-.715-2.263-1.428-4.416-3.855-5.325-4.2-1.575-7.356-2.564-9.417-2.7-.313.936-3.772 10.462-3.772 10.462z" transform="translate(-9.402 -97.549)" style="fill:#c17b3d"/>
        <path data-name="Path 859" d="M64.646 343.629a5.542 5.542 0 0 1-.578.9c-.749.911-2.241-.159-1.492-1.072.186-.226-.353-.275-.656 0-.872.8-2.031-.62-1.167-1.419a7.506 7.506 0 0 0 .737-.793 4.021 4.021 0 0 1-.426-3.285 33.047 33.047 0 0 0 .648-11.939c-.642-5.6-4.194-6.54-8.882-8.3a4.357 4.357 0 0 1-.874-.45c-1.052 2.914-2.259 6.235-2.259 6.235a67.914 67.914 0 0 0 7.822 2c.265 4.273 1.518 8.335.923 12.723-.961 7.089 4.337 9.068 7.558 6.314a.951.951 0 0 1-1.354-.914z" transform="translate(-9.402 -95.458)" style="fill:#a35928"/>
        <path data-name="Path 860" d="M56.951 200.157c-2.53 2.255-9.522 7.111-8.549 11.245 1.09 4.63 10.518 5.319 13.993 7.211.983-3.737 5.411-4.886 6.58-8.777 2.425-8.076-8.263-8.278-12.024-9.679z"/>
        <path data-name="Path 861" d="M58.838 317.708a11.446 11.446 0 0 0 6.774.937c5-.987 7.921-6.114 7.259-8.125-2.6-2.815-8.5-3.213-11.1-4.18-1.708 1.522-5.446 4.234-7.4 7.1.667 1.86 3.22 3.686 4.467 4.268z" transform="translate(-4.816 -106.183)" style="fill:#544c47;opacity:.5"/>
        <path data-name="Path 862" d="M62.848 309.248c-.262-2.235-5.2-1.551-5.476.614-.313 2.469 5.722 1.644 5.2-1.724z" transform="translate(-1.885 -104.682)" style="fill:#544c47"/>
        <path data-name="Path 863" d="M54.116 343.6s-4.985 6.647-2.768 11.079 5.26 5.26 5.26 5.26-18.714 3.907-19.489 22.116c-.394 9.28 4.446 17.7 10.847 14.72 2.863-1.333 1.906-4.2 1.3-10.086-1.549-15.1 12.05-18.162 12.05-18.162l.832 6.368A20.693 20.693 0 0 1 77.1 380.43c6.924 6.37 8.894 9.979 13.294 7.752 4.2-2.122 4.43-5.815-.277-10.52a79.311 79.311 0 0 0-10.524-8.587s7.754-2.492 8.032-7.2-6.925-17.449-6.925-17.449l-2.324-9.8s-8.1.481-10.667.388c-2.431-.089-8.919-.388-8.919-.388z" transform="translate(-21.767 -78.434)" style="fill:#c17b3d"/>
        <path data-name="Path 864" d="M89.364 385.92a1.188 1.188 0 0 1-1.623.263 1.159 1.159 0 0 1-.222-.248c-.032.21-.063.418-.115.63a1.173 1.173 0 0 1-1.5.668 1.2 1.2 0 0 1-.67-1.5 3.97 3.97 0 0 0 .1-.953 3.774 3.774 0 0 1-.687 1.65c-.9 1.2-2.788-.16-1.888-1.357a3.2 3.2 0 0 0 .1-2.784c-4.88-3.721-8.529-8.04-15.336-9.177a2.84 2.84 0 0 1-1.8-4.416 2.3 2.3 0 0 1 2.706-1.577c2.77.474 5.714.864 8.527 1.579 2.1-.854 6.811-3.166 7.025-6.823a8.325 8.325 0 0 0-.238-2.183c-3.681 5.977-11.786 4.38-17.074.949-5.827-3.78-9.1-10.978-9.874-17.714-.22-1.926.586-5.793.872-8.109l-2.52-.2-4.674 8.982s-4.985 6.647-2.768 11.079 5.26 5.26 5.26 5.26-.25.055-.676.17a4.342 4.342 0 0 1-1.242 6.579c-3.871 2.076-7.59 5.242-9.171 9.472-1.139 3.045-.46 5.8 0 8.929.592 4.016 1.111 8.767-1.07 12.2a5.739 5.739 0 0 0 3.515-.519c2.863-1.333 1.906-4.2 1.3-10.086-1.551-15.1 12.048-18.162 12.048-18.162l.832 6.368a20.693 20.693 0 0 1 14.954 5.539c6.924 6.37 8.894 9.979 13.294 7.752a6.077 6.077 0 0 0 2.665-2.342c-.014.025-.028.055-.05.081z" transform="translate(-18.124 -78.434)" style="fill:#a35928"/>
        <g data-name="Group 579">
            <path data-name="Path 865" d="M136.422 336.333c-1.407 2.112-7.748 16.907-1.407 22.544s14.794 7.045 14.794 7.045-15.071 13.934-12.973 19.875c1.89 5.353 8.287 5.246 11.808.313s25.121-20.894 25.121-20.894l-13.387-30.294z" transform="translate(71.593 -78.139)" style="fill:#e2a049"/>
            <path data-name="Path 866" d="m158.2 334.922-16 .939a8.7 8.7 0 0 1 1.258 2.12c1.866 4.529.032 8.616.04 13.167.014 7.289 7.037 6.849 10.3 11.7 2.712 4.026.18 8.485-2.885 11.459-2.393 2.32-5.375 3.953-7.34 6.693-1.141 1.587-3.247 2.752-3.039 5.173.1 1.143-.172 2.205-1.046 1.456a4.669 4.669 0 0 1-1.135-1.488c.061.313.123.626.182.941.214 1.135-1.559 1.4-1.771.269-.1-.515-.2-1.024-.291-1.531a.881.881 0 0 1-1.531-.129 3.079 3.079 0 0 1-.226-1.42c-.075-.063-.156-.119-.23-.186a4.05 4.05 0 0 0 .172 1.716c1.89 5.353 8.287 5.246 11.808.313s25.121-20.894 25.121-20.894z" transform="translate(73.77 -78.139)" style="fill:#cc852f"/>
            <path data-name="Path 867" d="M144.062 340.19s-7.75 11.974.7 19.021 14.994 11.925 14.994 11.925-2.835 2.2-9.92 8.5c-6.427 5.712-12.434 14.954-6.14 18.421 2.367 1.306 7.3.37 11.091-3.746 4.81-5.228 23.075-21.288 23.075-21.288s-7.031-25.086-7.031-22.972 15.5 12.682 30.3 7.75 17.613-20.432 12.682-22.546-6.976-.02-8.866 6.278c-2.7 9-8.5 7.871-13.383 7.556-7.031-.454-14.387-11.015-14.387-11.015z" transform="translate(80.002 -78.592)" style="fill:#e2a049"/>
            <path data-name="Path 868" d="M213.488 335.054c-.359-.153-.7-.277-1.024-.388a23.234 23.234 0 0 1-.826 3.552c-1.706 5.462-4.2 9.686-9.24 12.646-10.851 6.381-29.512 1.062-30.9-12.648l-6.514.414a3.2 3.2 0 0 1 .125 1.161c-.372 4.583-.864 9.195-.418 13.8.309 3.2 1.2 6.312 1.464 9.52a21.254 21.254 0 0 1-.279 5.561 17.038 17.038 0 0 1-.22 2.653c-1.014 6.1-5.561 10.3-9.769 14.411-2.74 2.671-8.573 8.03-8.856 10.5-.131 1.145-1.189 1.793-1.634.729a9.4 9.4 0 0 1-.511-1.684c-.107 0-.218.014-.321.01.008.365.018.731.02 1.094.008 1.149-1.773.943-1.781-.2 0-.43-.008-.854-.01-1.276-.034-.014-.071-.022-.1-.038v.25c0 .9-1.064.961-1.545.412a4.908 4.908 0 0 0 2.229 2.324c2.367 1.306 7.3.37 11.091-3.748 4.81-5.226 23.075-21.286 23.075-21.286s-4.919-17.551-6.526-22.049c2.754 3.245 16.549 11.241 29.791 6.827 14.791-4.932 17.61-20.433 12.679-22.547z" transform="translate(80.326 -78.39)" style="fill:#cc852f"/>
            <path data-name="Path 869" d="M115.7 300.938c1.757-5.159 6.534-8.937 9.032-13.666 1.581-3 2.28-5.934 4.22-8.719 3.562-5.119 13.652-7.935 20.054-6.677 6.91 1.357 11.453 11.025 17.125 15.011 2.738 1.92 10.274 5.842 11.319 9.47 1.4 4.9-6.152 15.118-8.275 19.031-5.839 10.774-10.647 9.67-20.628 11.3-6.167 1-7.612-.414-11.711-4.168-7.151-6.553-17.036-7.791-21.136-21.582z" transform="translate(55.362 -140.291)" style="fill:#e2a049"/>
            <path data-name="Path 870" d="M139.066 323.918a21.625 21.625 0 0 0-9.08-6.054c-8.454-2.819-12.321 1.593-15.14 8.64-4.26 10.649-7.045 25.363.705 27.477s12.327-20.081 12.327-20.081l8.977 16.585s-2.791 1.373-8.781 8.067c-8.418 9.411-15.9 15.925-10.058 19.735 8.1 5.284 9.862-.705 16.909-6.342s19.491-12.917 19.491-12.917a84.117 84.117 0 0 0 26.694.711c14.227-2.017 20.622-4.446 17.678-11.269-2.653-6.158-8.557-12.808-12.785-21.264-8.894-17.789-11.007-27.035-15.5-31-6.883-6.07-24.727-8.052-31.7 6.342-4.23 8.718.263 21.37.263 21.37z" transform="translate(50.415 -120.631)" style="fill:#e2a049"/>
            <path data-name="Path 871" d="M141.7 321.1c2.225-3.729-.85-8.749-3.55-12.967.475 1.971.915 3.216.915 3.216a21.625 21.625 0 0 0-9.08-6.054c-8.454-2.819-12.321 1.593-15.14 8.64-4.26 10.649-7.045 25.363.705 27.477s12.327-20.079 12.327-20.079l7.289 6.576a5.922 5.922 0 0 1 3.388-5.312c1-.505 2.037-.979 3.1-1.415.019-.032.031-.059.046-.082z" transform="translate(50.415 -108.058)" style="fill:#cc852f"/>
            <path data-name="Path 872" d="M154.942 334.384c2.255-4.127 5.989-11.578 2.231-14.94-4.408-3.945-11.953-.745-16.3 1.466a6.654 6.654 0 0 1-1.282.5l.055.05a53.807 53.807 0 0 0-13.387 10.568c-8.42 9.413-16.761 16.977-10.92 20.787 8.1 5.284 9.862-.705 16.909-6.342s19.964-12.563 19.964-12.563a8.1 8.1 0 0 1 2.73.474z" transform="translate(53.09 -95.156)" style="fill:#cc852f"/>
            <path data-name="Path 873" d="M173.945 352.515c-2.653-6.154-12.117-18.263-16.345-26.718-8.894-17.789-11.007-27.035-15.5-31a14.79 14.79 0 0 0-2.49-1.745c6.086 21.423 13.044 42.859 15.469 65.04 12.459-2.017 18.866-5.577 18.866-5.577z" transform="translate(78.819 -119.221)" style="fill:#cc852f"/>
            <path data-name="Path 874" d="M170.252 333.16a79.436 79.436 0 0 1-5.785-9.634c-7.212-14.425-9.965-23.229-13.143-28.159-5.993 2.605-11.328 7.235-15.525 12.25-4.779 8.365-4.456 19.588 2.845 26.443 8.897 8.354 22.67 6.809 31.608-.9z" transform="translate(71.953 -116.949)" style="fill:#ad652f"/>
            <path data-name="Path 875" d="M159.247 295.055c.123.182 1.791 2.837 1.791 2.837a30.029 30.029 0 0 1-17.163 8.892c-10.617 1.419-19.816-2.284-19.816-2.471s.557-2.037.927-3.332a14.556 14.556 0 0 1 .864-2.284s7.7 3.346 15.309 2.655c8.148-.744 18.088-6.297 18.088-6.297z" transform="translate(63.56 -117.256)" style="fill:#1200ff"/>
            <path data-name="Path 876" d="M131.867 306.034a19.954 19.954 0 0 0-1.88-.743c-8.454-2.819-12.321 1.593-15.14 8.64-4.26 10.649-7.045 25.363.705 27.477s12.327-20.079 12.327-20.079l2.185 1.971a47.837 47.837 0 0 1 2.835-14.8q-.511-1.235-1.032-2.466z" transform="translate(50.415 -108.058)" style="fill:#ad652f"/>
            <g data-name="Group 578">
                <path data-name="Path 877" d="M122.8 291.166c1.953-7.574 7.948-11.651 14.423-5.672 1.694-7.3 10.332-6.621 14.041-1.333 1.333 1.9 2.427 5.393-.82 5.63-2.241.166-2.457-1.147-5.211-.505-6.227 1.456 2.99 8.436 5.44 10.371 5.47 4.311 4.913 7.118 4.969 11.913.057 5.03-6.748 8.307-12.828 9.207a15.569 15.569 0 0 1-16.7-9.006c-1.23-2.782-.739-5.24 2.776-10.294 2.4-3.455 5.316-6.885 1.936-9.371-2.4-1.765-2.477-.43-4.359.965-1.167.865-3.79.443-3.667-1.905z" transform="translate(62.322 -131.924)" style="fill:#f2b368"/>
                <path data-name="Path 878" d="M150.573 290.506c-.85 6.27-4.256 11.471-11.992 12.333-5.072.569-11.251-1.547-14.156-5.712a6.189 6.189 0 0 0 .349 4.438 15.569 15.569 0 0 0 16.7 9.006c6.08-.9 12.886-4.176 12.828-9.207-.054-4.389.398-7.116-3.729-10.858z" transform="translate(63.667 -121.719)" style="fill:#c67f30"/>
                <path data-name="Path 879" d="M123.734 290.835s-.279-4.961 3.017-5.5c2.482-.408 3.847 2.276 3.847 2.276s.374 2.849-3.356 4.109a3.656 3.656 0 0 1-3.508-.885z" transform="translate(63.235 -126.836)" style="fill:#040404"/>
                <path data-name="Path 880" d="M140.8 288.806s-.541-4.941-3.881-4.929c-2.518.01-3.42 2.879-3.42 2.879s.1 2.873 3.986 3.5a3.654 3.654 0 0 0 3.315-1.45z" transform="translate(72.818 -128.223)" style="fill:#040404"/>
                <path data-name="Path 881" d="M127.553 278.468c.04-.323-12.19 8.943-13.153 15.065-.672 4.279 2.92 9.518 5.161 12.9 2.508 3.782 10.37 12.194 12.218 10.348 1.868-1.868-4.254-13.113-4.224-18.613.032-5.737 3.78-13.848-.002-19.7z" transform="translate(54.002 -133.538)" style="fill:#ad652f"/>
                <path data-name="Path 882" d="M137.534 275.53c.67 7.025 4.137 14.69 6.683 21.329 2.268 5.918 4.682 15.657 8.642 15.657 2.377 0 3.875-11.412 4.291-16.65.166-2.094.751-4.888-.271-6.837-1.04-1.985-3.723-2.8-5.5-3.889-4.472-2.74-8.298-8.552-13.845-9.61z" transform="translate(76.781 -136.413)" style="fill:#ad652f"/>
                <path data-name="Path 883" d="M122.467 297.725c.03-5.454 3.41-13.052.485-18.817.582 3.346-.361 7.073-1.5 10.49-.86 2.564-2 4.735-1.944 7.1.113 4.436 2.193 8.68 2.425 13.157a6.284 6.284 0 0 1-.945 3.764c2.455 2.266 4.8 3.824 5.706 2.918 1.865-1.867-4.257-13.11-4.227-18.612z" transform="translate(59.089 -133.099)" style="fill:#7f4218"/>
                <path data-name="Path 884" d="M152.326 306.179a101.153 101.153 0 0 1-8.511-17.333c-1.563-4.172-3.681-8.408-4.547-12.808a10.37 10.37 0 0 0-1.734-.507c.67 7.025 4.137 14.69 6.683 21.329 2.268 5.916 4.682 15.657 8.642 15.657.848 0 1.581-1.45 2.2-3.556a8.226 8.226 0 0 1-2.733-2.782z" transform="translate(76.781 -136.413)" style="fill:#7f4218"/>
                <path data-name="Path 885" d="M129.778 301.636c3.326 1.944 2.746-4.18 2.786-5.8.065-2.627.4-8.709-2.056-10.421-.185.249-4.896 13.785-.73 16.221z" transform="translate(67.489 -126.719)" style="opacity:.6;fill:#fff"/>
                <path data-name="Path 886" d="M130.891 285.532c-.091 3.9-.588 14.484 5.244 14.5.303-3.508-2.419-13.332-5.244-14.5z" transform="translate(70.214 -126.599)" style="opacity:.6;fill:#fff"/>
                <path data-name="Path 887" d="M130.705 295.053a57.8 57.8 0 0 0-2.906 8.808c1.185-1.6 5.123-.263 8.808-.685 3.715-.424 7.18-2.6 8.947-1.652a30.731 30.731 0 0 1-5.45-5.821c-2.161-2.821-5.599-2.565-9.399-.65z" transform="translate(67.229 -118.684)" style="fill:#685035"/>
                <path data-name="Path 888" d="M129 294.5c-.418 3.194-1.591 3.2 1.718 4.228a12.526 12.526 0 0 1 4.844 2.885 6.746 6.746 0 0 1 4.271-5c.2-1.553.426-3.332-.927-3.96-2.258-1.053-8.582.264-9.906 1.847z" transform="translate(67.874 -119.981)" style="fill:#040404"/>
            </g>
            <path data-name="Path 889" d="M116.811 341.881c-1.46 1.04-2.841 2.665-2.764 4.527 1.238-.048 2.035.026 2.984-.967a3.763 3.763 0 0 0-.862 3.426c1.91 1.141 3.4-.493 4.1-2.306-.252 2.015-.069 3.681 2.106 3.855 2.875.226 1.488-2.724 2.191-4.666 1.018-2.809 3.582-3.875 6.441-5.3 5.688-2.829 11.717-5.791 16.131-10.49 6.425-6.843.442-12.715-7.423-9.137-9.093 4.137-16.069 13.141-22.904 21.058z" transform="translate(53.733 -93.032)" style="fill:#f2b368"/>
            <path data-name="Path 890" d="M120.877 307.3c1.955-4.052 5.213-.622 6.074 2.112a13.133 13.133 0 0 1-.612 8.971c-1.787 4.731-3.792 8.882-4.844 13.874-.359 1.706-1.593 6.936-3.814 2.986 1.821 6.756-5.167 3.416-2.776-1.769.067 1.3-1.349 1.866-1.779 2.712-6.784-5.753 1.827-22.358 6.611-27.111.114-.793-.227-.123 1.14-1.775z" transform="translate(50.373 -107.065)" style="fill:#c17b3d"/>
            <path data-name="Path 891" d="M126.838 287.723a1.328 1.328 0 1 1-1.327-1.327 1.328 1.328 0 0 1 1.327 1.327z" transform="translate(63.679 -125.752)" style="fill:#35302c"/>
            <path data-name="Path 892" d="M136.736 286.127a1.327 1.327 0 1 1-1.329-1.327 1.33 1.33 0 0 1 1.329 1.327z" transform="translate(73.393 -127.318)" style="fill:#35302c"/>
            <path data-name="Path 893" d="M125.593 286.961a.629.629 0 1 1-.63-.63.63.63 0 0 1 .63.63z" transform="translate(63.83 -125.815)" style="fill:#fff"/>
            <path data-name="Path 894" d="M135.392 285.4a.628.628 0 1 1-.628-.63.627.627 0 0 1 .628.63z" transform="translate(73.447 -127.344)" style="fill:#fff"/>
        </g>
        <g data-name="Group 580">
            <path data-name="Path 895" d="M62.4 360.832a7.437 7.437 0 0 0-.283 1.674H63.6a2.731 2.731 0 0 0-.3-1.662.454.454 0 0 0-.773 0 2.822 2.822 0 0 0-.41 1.662.742.742 0 0 0 1.484 0 4.551 4.551 0 0 0-.168-1.674.54.54 0 0 0-1.033 0z" transform="translate(2.781 -53.089)" style="fill:#020100"/>
        </g>
        <g data-name="Group 581">
            <path data-name="Path 896" d="M63.833 361.036a1.944 1.944 0 0 1-.361 1.2l1.042.608c.123-.45.612-1.914-.123-2.108s-.987 1.323-1.08 1.775c-.119.569.6 1.1 1.042.606a2.406 2.406 0 0 0 .416-2.215c-.094-.565-.885-.357-.936.134z" transform="translate(3.942 -52.98)" style="fill:#020100"/>
        </g>
        <g data-name="Group 582">
            <path data-name="Path 897" d="M64.823 360.717a2.685 2.685 0 0 1-.248 1.034c.4.17.794.333 1.191.5a2.225 2.225 0 0 0-.105-1.708.349.349 0 0 0-.537-.071 2.269 2.269 0 0 0-.638 1.607c-.1.779 1.04.8 1.28.172a3.3 3.3 0 0 0 .143-1.537.543.543 0 0 0-1.086.003z" transform="translate(5.101 -53.344)" style="fill:#020100"/>
        </g>
        <g data-name="Group 583">
            <path data-name="Path 898" d="M69.193 359.224c-.042.414-.208.783-.273 1.191-.135.824 1.125 1.181 1.264.347a2.379 2.379 0 0 0-.079-1.648.464.464 0 0 0-.721-.1 2.366 2.366 0 0 0-.487 1.569h1.312a5.683 5.683 0 0 0 .024-1.5c-.101-.632-.984-.402-1.04.141z" transform="translate(9.434 -54.805)" style="fill:#020100"/>
        </g>
        <g data-name="Group 584">
            <path data-name="Path 899" d="m70.6 359.846.028.03-.162-.614a7.13 7.13 0 0 1-.135.678c-.046.172-.269.438-.048.329l1.167.9c.069-.454.331-1.846-.349-2.023s-1.058 1.181-1.183 1.6a.8.8 0 0 0 1.167.9c.846-.428.892-1.777.531-2.526a.627.627 0 0 0-.711-.287l-.04.016a.611.611 0 0 0-.265.997z" transform="translate(10.404 -54.716)" style="fill:#020100"/>
        </g>
        <g data-name="Group 585">
            <path data-name="Path 900" d="M71.138 358.986a5.513 5.513 0 0 0-.018.743c.028.222-.17.3.109.091.305.178.614.353.921.529a2.061 2.061 0 0 0-.305-1.557.279.279 0 0 0-.388 0 2.167 2.167 0 0 0-.531 1.557c-.04.588.67.729 1.044.434.565-.444.277-1.357.176-1.932s-1.004-.427-1.008.135z" transform="translate(11.425 -55.021)" style="fill:#020100"/>
        </g>
        <g data-name="Group 586">
            <path data-name="Path 901" d="M51.132 248.615a2.774 2.774 0 0 0 1.177-.977.437.437 0 0 0-.682-.527 2.428 2.428 0 0 0-.929 1.109c-.038.141.075.343.244.321a2.522 2.522 0 0 0 1.3-.814l-.725-.424c-.119.3-.517.474-.765.658-.383.279-.042.917.38.654z"/>
        </g>
        <g data-name="Group 587">
            <path data-name="Path 902" d="M53.382 250.082c.493-.069.763-.793.923-1.193.178-.44-.5-.684-.739-.313a2.465 2.465 0 0 0-.5 1.2.233.233 0 0 0 .347.2 2.492 2.492 0 0 0 .854-.989c-.246-.1-.493-.206-.741-.311-.065.174-.454.84-.313.792a.32.32 0 0 0 .169.614z"/>
        </g>
        <g data-name="Group 588">
            <path data-name="Path 903" d="M55.625 249.861a1.4 1.4 0 0 0 .905-1.327.38.38 0 0 0-.7-.192 3.526 3.526 0 0 0-.487 1.129c-.03.153.139.341.3.226a3.7 3.7 0 0 0 .844-.975l-.7-.188c-.006.1-.2.6-.337.654-.412.168-.275.79.175.673z"/>
        </g>
        <path data-name="Path 904" d="M95.02 331.666c-1.936-10.629-13.488-15.929-23.937-16.406-.083.394-2.33 7.247 2.928 12.2a20.83 20.83 0 0 1 9.209 4.489c2.163 1.7 4.606 6.542 7.433 6.762 3.661.28 4.884-4.198 4.367-7.045z" transform="translate(11.043 -97.431)" style="fill:#a35928"/>
        <g data-name="Group 589">
            <path data-name="Path 905" d="M162.168 226.396a3.222 3.222 0 0 0-.763 2.391c.014.271.036.547.061.82a12.775 12.775 0 0 1 .242 1.308h3.358c-.016-1.24.051-3.142-.985-3.992a1.02 1.02 0 0 0-1.389 0c-1.034.846-.969 2.752-.985 3.992-.03 2.173 3.255 2.154 3.358 0a8.913 8.913 0 0 0-.2-1.484 6.956 6.956 0 0 1-.04-.644v-.232c.044-.4-.026-.309-.212.283 1.488-1.655-1.009-4.122-2.445-2.442z"/>
        </g>
        <g data-name="Group 590">
            <path data-name="Path 906" d="M165.25 230.081a5.49 5.49 0 0 0-.17 2.409 6.98 6.98 0 0 0 .842 2.155c1.314 2 4.6.777 3.945-1.664a6.325 6.325 0 0 0-.8-1.716c-.444-.664-1.064-1.755-1.88-1.922a1.48 1.48 0 0 0-1.442.382c-.993 1.23-.422 3.586.176 4.919q1.7-1.308 3.39-2.615a5.381 5.381 0 0 1-.551-1.094 7.339 7.339 0 0 0-.79-1.211c-.681-.919-2.449-1.026-2.72.357z"/>
        </g>
        <g data-name="Group 591">
            <path data-name="Path 907" d="M168.207 227.789a29.472 29.472 0 0 0-.234 3.126h4.907a4.653 4.653 0 0 0-1.844-3.988 2.007 2.007 0 0 0-2.688.707 4.454 4.454 0 0 0-.287 3.935 2.455 2.455 0 0 0 4.731-1.3 8.116 8.116 0 0 0-1.212-2.916 1.868 1.868 0 0 0-3.373.436z"/>
        </g>
        <g data-name="Group 592">
            <path data-name="Path 908" d="M167.012 251.859c-.121.468-.46.862-.6 1.335a5.256 5.256 0 0 0-.113 1.7 1.5 1.5 0 0 0 2.922.394c.3-1.177.684-2.627-.164-3.643a.83.83 0 0 0-.84-.222c-1.214.5-1.569 1.894-1.864 3.077l2.922.394a2.21 2.21 0 0 1 .089-1.034 9.234 9.234 0 0 0 .517-1.21c.48-1.857-2.388-2.652-2.869-.791z"/>
        </g>
        <g data-name="Group 593">
            <path data-name="Path 909" d="M169.843 254.971c-.963 1.09-.967 2.716-.927 4.1a1.734 1.734 0 0 0 1.5 1.7 1.714 1.714 0 0 0 1.9-1.24c.176-1.214.434-3.077-.555-3.994a.99.99 0 0 0-1.153-.149c-1.074.515-1.45 2.122-1.631 3.221q1.7.232 3.4.46a8.648 8.648 0 0 1 .05-1.369s.038-.273.014-.141c.071-.4.256-.513-.113-.107 1.525-1.667-.989-4.175-2.485-2.481z"/>
        </g>
        <g data-name="Group 594">
            <path data-name="Path 910" d="M173.918 255.954a14.149 14.149 0 0 0-.723 1.7 4.522 4.522 0 0 0-.43 1.854 1.849 1.849 0 0 0 3.614.489c.351-1.02.689-2.74.006-3.655a1.091 1.091 0 0 0-1.177-.477c-1.262.359-2 1.979-2.377 3.154q1.807.247 3.614.489a2.908 2.908 0 0 1 .194-.6c.151-.341.242-.818.414-1.119a1.817 1.817 0 0 0-3.135-1.835z"/>
        </g>
        <g data-name="Group 595">
            <path data-name="Path 911" d="M207.849 307.242a7.461 7.461 0 0 0-.269 2.413q1.747-.232 3.491-.472a4.016 4.016 0 0 0-1.438-2.793 1 1 0 0 0-1.189.153 4.317 4.317 0 0 0-.864 3.112c.067 2.3 3.729 2.268 3.554 0a6.987 6.987 0 0 0-.822-2.736 1.361 1.361 0 0 0-2.463.323z"/>
        </g>
        <g data-name="Group 596">
            <path data-name="Path 912" d="M209.521 310.099c-.071 1.355 1.01 3.261 2.433 3.509 1.46.258 2.956-1.214 2.049-2.665a7.41 7.41 0 0 0-1.516-1.593 1.42 1.42 0 0 0-2.354 1.371 7.607 7.607 0 0 0 .735 2.056q1.025-1.337 2.051-2.669c.384.067.555.547.248.026-.143-.242-.032.275-.016-.036.124-2.337-3.508-2.329-3.63.001z"/>
        </g>
        <g data-name="Group 597">
            <path data-name="Path 913" d="M212.1 308.997a5.509 5.509 0 0 0 .133 2.3c.664 2.12 4.079 1.831 4-.543a4.186 4.186 0 0 0-.733-2.272 1.737 1.737 0 0 0-3.126.408 4.222 4.222 0 0 0-.137 2.407l3.718-1.572a1.855 1.855 0 0 1-.1-.731 1.878 1.878 0 0 0-3.755.003z"/>
        </g>
        <g data-name="Group 598">
            <path data-name="Path 914" d="M220.394 316.477a2.955 2.955 0 0 0 1.389 3.083c1.092.521 2.74-.363 2.251-1.734-.353-.981-1.452-2.8-2.73-2.265-1.294.545-.654 2.564-.071 3.447q.865-1.126 1.732-2.251c.158.034.1.19.071-.03-.028-.2-.1-.4-.125-.59-.239-1.518-2.404-.995-2.517.34z"/>
        </g>
        <g data-name="Group 599">
            <path data-name="Path 915" d="M223.243 318.015a3.353 3.353 0 0 0 .178 1.2c.125.372.434.7.519 1.066l2.066-.571c-.262-.783-.5-1.955-1.3-2.364a.786.786 0 0 0-1.058.277c-.418.85.02 1.827.3 2.657a1.073 1.073 0 0 0 2.066-.571c-.145-.614-.656-1.036-.622-1.7.06-1.371-2.084-1.367-2.149.006z"/>
        </g>
        <g data-name="Group 600">
            <path data-name="Path 916" d="m225.804 317.578-.024 1.539a1.393 1.393 0 0 0 2.784 0c.008-.664 0-1.7-.577-2.15a1.2 1.2 0 0 0-1.63 0c-.58.456-.586 1.478-.577 2.15a1.393 1.393 0 0 0 2.784 0l-.022-1.539a1.37 1.37 0 0 0-2.738 0z"/>
        </g>
        <path data-name="Path 917" d="M57.98 320.619s2.788.341 8.822-.791a19.678 19.678 0 0 0 9.177-4.024v3.455a24.37 24.37 0 0 1-8.424 2.831c-4.151.378-8.941.418-8.941.418z" transform="translate(-1.276 -96.896)" style="fill:#f90000"/>
        <path data-name="Path 918" d="M124.557 285.757c1.559-.549 2.637.026 4.159.5 1.147.357 3.293.84 4.008-.458 2.246-4.068-7.117-5.766-8.167-.042z" transform="translate(64.048 -129.988)" style="opacity:.6;fill:#fff"/>
        <path data-name="Path 919" d="M132.142 282.32a2.024 2.024 0 0 0-.537 3.311c1.319.927 3.4-.194 4.305-1.187a18.908 18.908 0 0 1 1.65-1.765c.22-.19.682 0 .83-.319.91-1.974-4.035-1.627-6.248-.04z" transform="translate(70.334 -131.044)" style="opacity:.6;fill:#fff"/>
        <path data-name="Path 920" d="M51.56 198.743c-1.2.511-4.357.477-4.087 2.522.17 1.3 1.948 1.125 2.805.668a2.55 2.55 0 0 0 1.282-3.19z"/>
        <path data-name="Path 921" d="M61.132 197.162c.685.331 1.107 1.28 1.8 1.71a2.756 2.756 0 0 0 3.156-.018 1.36 1.36 0 0 0-.061-2.1c-1.31-.912-2.957.094-4.895.408z"/>
        <path data-name="Path 922" d="M54.746 306.713a.5.5 0 1 1-.5-.5.5.5 0 0 1 .5.5z" transform="translate(-5.43 -106.306)" style="fill:#fff"/>
        <path data-name="Path 923" d="M62.386 305.284a.581.581 0 1 1-.58-.582.582.582 0 0 1 .58.582z" transform="translate(1.906 -107.79)" style="fill:#fff"/>
        <path data-name="Path 924" d="M58.569 308.856a.5.5 0 1 1-.5-.5.5.5 0 0 1 .5.5z" transform="translate(-1.681 -104.206)" style="fill:#fff"/>
        <path data-name="Path 925" d="M103.591 237.026c0 1.171-3.513 3.9-6.245 3.9s-5.852-3.9-5.852-3.9 3.122 1.953 5.852 1.953 6.245-1.953 6.245-1.953z" transform="translate(31.607 -174.193)" style="fill:#e55b27"/>
        <g data-name="Group 601" style="opacity:.6">
            <path data-name="Path 926" d="M111.78 237.313s.781-8.194 2.73-6.243.39 12.878-1.561 14.437 1.561-3.122 1.171-6.243-2.34-1.951-2.34-1.951z" transform="translate(51.511 -180.331)" style="fill:#e55b27"/>
        </g>
        <g data-name="Group 602" style="opacity:.6">
            <path data-name="Path 927" d="M79.491 238.208s-1.872-8.016-3.544-5.823 1.341 12.814 3.483 14.1-1.963-2.885-2-6.031 2.061-2.246 2.061-2.246z" transform="translate(15.876 -179.119)" style="fill:#e55b27"/>
        </g>
        <path data-name="Path 928" d="M120.99 252.214c-.991.347-7.13 3.3-10.308 3.412-8.361.287-10.528.333-12.868-.055a76.376 76.376 0 0 1-7.519-2.094l-5.187 11.568s20.844 2.342 27.867-1.952a16.9 16.9 0 0 0 8.015-10.879z" transform="translate(25.342 -159.29)" style="fill:#f88c4c"/>
        <path data-name="Path 929" d="M151.028 235.37c-1.246-4.357-8.184-13.167-11.384-17.607a11.388 11.388 0 0 0-1.569-2.405c-.113-.271-.2-.355-.269-.305-3.992-4.527-5.609-4.953-10.968-3.875-.25-2.173 2.4-5.028 1.561-5.072-2.423-.123-13.985 1.464-22.982 2.843a14.778 14.778 0 0 0 2.738-3.142 29.4 29.4 0 0 0-5.967 3.649c-.192.03-.378.061-.565.089a12.181 12.181 0 0 0 2.994-4.234c-1.944.715-4.093 2.732-5.72 4.682-.9.149-.321.145-.989.266a12.457 12.457 0 0 0 3.039-4.317 117.851 117.851 0 0 0-14.865 11.826C81 222.448 75.089 228.58 74.164 235.76l4.682 18.728a25.767 25.767 0 0 1 2.8 5.01c1.882 3.964 2.029 11.921 2.15 10.088S86.647 242 86.647 242s-1.169-.39 2.342.39-.39-3.9-.39-3.9l8.584.388-4.683-5.848 1.226.071a23.573 23.573 0 0 0 12.711 4.939c.384-2.233-1.03-3.964-.7-6.187 5.714 1.8 8.505 6.53 15.859 5.767a6.881 6.881 0 0 0-1.91-3.748c4.826.04 15.265 5.4 15.368-3.818a5.775 5.775 0 0 1-.616-.17l4.107.8-3.511 6.243 6.243-1.171 2.73 8.194c2.732 8.192.39 23.021.39 23.021s8.192-26.139 6.631-31.601z" transform="translate(14.603 -205.311)" style="fill:#6d3812"/>
        <path data-name="Path 930" d="M150.144 225.727a51.467 51.467 0 0 0-5.018-3.412c-8.02-4.575-17.522-6.827-26.7-9.347-8.47.79-17.026 1.7-24.711 5.494-6.715 3.314-12.744 7.051-19.545 9.738l-.006.048 4.682 18.728a25.767 25.767 0 0 1 2.8 5.01c1.882 3.964 2.029 11.921 2.15 10.088s2.853-27.584 2.853-27.584-1.169-.39 2.342.39-.39-3.9-.39-3.9l8.584.388-4.684-5.85 1.226.071a23.573 23.573 0 0 0 12.711 4.939c.384-2.233-1.03-3.964-.7-6.187 5.714 1.8 8.505 6.53 15.859 5.767a6.881 6.881 0 0 0-1.91-3.748c4.826.04 15.265 5.4 15.368-3.818a5.782 5.782 0 0 1-.616-.17l4.107.8-3.511 6.243 6.243-1.171 2.73 8.194c2.732 8.192.39 23.021.39 23.021s8.194-26.144 6.633-31.606a13.742 13.742 0 0 0-.887-2.126z" transform="translate(14.603 -197.798)" style="fill:#592c11"/>
        <path data-name="Path 931" d="M71.857 313.488s1.373 2.538.606 4.263-1.151.767-1.343 2.879a19.805 19.805 0 0 0 .959 5.755s-3.184-5.486-1.884-7.019a7.843 7.843 0 0 0 1.662-5.878z" transform="translate(10.402 -99.169)" style="fill:#f88c4c"/>
        <path data-name="Path 932" d="M71.814 310.359s1.676.4 4.39 4.053c3.2 4.307 3.186 6.488 3.186 6.488s-1.563-2.93-2.714-4.719c-1.064-1.652-4.862-5.822-4.862-5.822z" transform="translate(12.297 -102.239)" style="fill:#f88c4c"/>
        <path data-name="Path 933" d="M73.308 309.416a17.862 17.862 0 0 0 3.3 3.489c2.134 1.747 6.865 8.921 6.865 8.921a16.6 16.6 0 0 0-3.762-6.982 41.66 41.66 0 0 0-6.403-5.428z" transform="translate(13.763 -103.165)" style="fill:#f88c4c"/>
        <g data-name="Group 603">
            <path data-name="Path 934" d="M131.8 332.511a78.793 78.793 0 0 1 9.91-8.487l-3.073-5.631a5.126 5.126 0 0 0-3.754 4.109c-.38 2.286 1.8 5.5-.727 5.559a3.255 3.255 0 0 1-2.615-5.175c3.931-5.918 5.284-7.418 2.659-8.363 1.044-1.656-1.29-2.274-2.259-1.785-.852-1.452-3.764-3.354-13.361 6.225-3.112 3.106-3.34 12.053-3.34 12.053s2.463 5.872 5.032 11.649a31.469 31.469 0 0 1 3.992-3.362 41.871 41.871 0 0 1 7.536-6.792z" transform="translate(54.901 -101.079)" style="fill:#ffc489"/>
            <path data-name="Path 935" d="M198.891 323.986c-4.339-2-8.935-3.729-23.217 1.351-6.766 2.4-22.568 4.477-32.983 4.8-.315.1-.632.192-.947.293a47.033 47.033 0 0 0-8.9 4.157c-4.218 2.716-5.924 3.1-9.866 6.3-.347.281 20.959 8.852 36.186 11.109 25.71 3.808 40.406 3.057 44.7-7.215s-.378-18.681-4.973-20.795z" transform="translate(62.498 -90.813)" style="fill:#ffc489"/>
            <path data-name="Path 936" d="M131.729 330.566c2.239-2.193 4.525-4.325 6.942-6.263a9.63 9.63 0 0 1-3.091-5.452 5.017 5.017 0 0 0-.937 2.225c-.38 2.29 2.009 6.009-.517 6.072s-6.879-3.089-6.171-5.809c.438-1.694 3.958-6.013 4.761-6.746-2.762 1.7-4.981 4.979-6.587 7.437-1.623 2.484-4.3.057-2.659-2.447a45.591 45.591 0 0 1 5.062-6.013c-2.2 1.545-5.88 4.586-7.212 7.075-1.27 2.37-4.7.828-4.343-1.426a28.613 28.613 0 0 0-1.741 9.807s2.368 5.945 4.858 11.83a30.942 30.942 0 0 1 4.164-3.542 42.072 42.072 0 0 1 7.471-6.748z" transform="translate(54.901 -99.088)" style="fill:#fdb177"/>
            <path data-name="Path 937" d="M205.165 328.513c-3.774 8.036-17.888 11.746-24.456 12.228-34.564 2.518-52.648-9.409-52.648-9.409-3.913 2.573-1.4.184-5.078 3.174-.343.279 12.061 7.618 36.818 12.379 25.335 4.87 39.537 2.352 43.832-7.919a19.981 19.981 0 0 0 1.532-10.453z" transform="translate(62.497 -84.427)" style="fill:#fdb177"/>
            <path data-name="Path 938" d="M119.685 333.62q.8-.885 1.684-1.684c-.1-.3-.2-.61-.3-.9a31.687 31.687 0 0 0-5.833-9.668s2.728 7.352 4.45 12.246z" transform="translate(54.901 -91.434)" style="fill:#f88c4c"/>
            <path data-name="Path 939" d="M126.239 323.414a5.851 5.851 0 0 1-.05.769c.432-.382.864-.767 1.3-1.139a1.451 1.451 0 0 0-.232-.82 7.843 7.843 0 0 1-1.224-5.987s-1.557 2.431-.919 4.208 1.092.855 1.125 2.969z" transform="translate(64.446 -96.473)" style="fill:#f88c4c"/>
            <path data-name="Path 940" d="M128.935 313.047s-1.7.269-4.68 3.717C120.749 320.821 120.6 323 120.6 323s1.777-2.807 3.059-4.505a75.189 75.189 0 0 1 5.276-5.448z" transform="translate(60.161 -99.602)" style="fill:#f88c4c"/>
            <path data-name="Path 941" d="M128.86 311.995a17.936 17.936 0 0 1-3.546 3.237c-2.259 1.581-7.509 8.384-7.509 8.384a16.589 16.589 0 0 1 4.269-6.681 41.692 41.692 0 0 1 6.786-4.94z" transform="translate(57.423 -100.635)" style="fill:#f88c4c"/>
        </g>
    </g>
</svg>
