<svg xmlns="http://www.w3.org/2000/svg" xmlns:xlink="http://www.w3.org/1999/xlink" width="253" height="308.509" viewBox="0 0 253 308.509">
    <defs>
        <linearGradient id="s5u3433vya" x1=".197" y1=".613" x2=".75" y2=".303" gradientUnits="objectBoundingBox">
            <stop offset="0" stop-color="#ffd7c8" stop-opacity="0"/>
            <stop offset="1" stop-color="#ffd7c8"/>
        </linearGradient>
        <linearGradient id="hcy79vzrff" x1=".344" y1=".589" x2=".577" y2=".32" xlink:href="#s5u3433vya"/>
        <linearGradient id="sg3aj8l3rb" x1="-8.117" y1="-.575" x2="7.284" y2="1.347" gradientUnits="objectBoundingBox">
            <stop offset="0" stop-color="#ffd7c8" stop-opacity="0"/>
            <stop offset="1" stop-color="#ee8130"/>
        </linearGradient>
        <linearGradient id="ud5rbaoukg" x1="-.411" y1=".39" x2="1.741" y2=".709" xlink:href="#sg3aj8l3rb"/>
        <linearGradient id="u3v40dzzth" x1="1.104" y1=".499" x2=".42" y2=".503" xlink:href="#s5u3433vya"/>
        <linearGradient id="aqyd2znari" x1=".928" y1=".561" x2=".352" y2=".35" xlink:href="#s5u3433vya"/>
        <linearGradient id="jw9nt2xn2j" x1="6.383" y1="-2.88" x2="-.978" y2="1.409" xlink:href="#sg3aj8l3rb"/>
        <linearGradient id="ueidhvkgck" x1="1.431" y1="-.142" x2="-.036" y2="1.156" xlink:href="#sg3aj8l3rb"/>
        <linearGradient id="z9ecws7idc" x1=".5" y1="1.782" x2=".5" y2="-1.112" gradientUnits="objectBoundingBox">
            <stop offset="0" stop-color="#fac8a4" stop-opacity="0"/>
            <stop offset="1" stop-color="#fac8a4"/>
        </linearGradient>
        <linearGradient id="jbzbb22e7l" x1=".5" y1="1.111" x2=".5" y2="-1.214" xlink:href="#z9ecws7idc"/>
        <linearGradient id="h3l0ujmwlm" x1="1.843" y1="1.005" x2="-.152" y2=".242" gradientUnits="objectBoundingBox">
            <stop offset="0" stop-color="#fb333d" stop-opacity="0"/>
            <stop offset="1" stop-color="#9935b9"/>
        </linearGradient>
        <linearGradient id="gyl7tlwhdn" x1=".525" y1="1.032" x2=".483" y2=".265" xlink:href="#sg3aj8l3rb"/>
        <linearGradient id="8bi98rm70o" x1=".457" y1=".006" x2=".512" y2=".814" xlink:href="#s5u3433vya"/>
        <linearGradient id="1qkwiu78hd" x1="267.893" y1="-.127" x2="268.274" y2="1.145" gradientUnits="objectBoundingBox">
            <stop offset="0" stop-color="#7fde80" stop-opacity="0"/>
            <stop offset="1" stop-color="#be6629"/>
        </linearGradient>
        <linearGradient id="mpjn3j3r8e" x1=".223" y1="1.177" x2=".691" y2=".075" gradientUnits="objectBoundingBox">
            <stop offset="0" stop-color="#5c4739" stop-opacity="0"/>
            <stop offset="1" stop-color="#ce866b"/>
        </linearGradient>
        <linearGradient id="pvxs1cas1p" x1="-36.716" y1="-.127" x2="-36.336" y2="1.145" xlink:href="#1qkwiu78hd"/>
        <linearGradient id="4ltg3x8etq" x1="518.559" y1="1.177" x2="519.027" y2=".075" xlink:href="#mpjn3j3r8e"/>
        <linearGradient id="lpgah1fu6r" x1="-.155" y1=".697" x2="1.395" y2=".181" xlink:href="#s5u3433vya"/>
        <linearGradient id="ijgo3eczis" x1="1.131" y1=".694" x2="-.188" y2=".228" xlink:href="#s5u3433vya"/>
        <linearGradient id="zc4023df7t" x1=".478" y1=".258" x2=".577" y2="1.195" xlink:href="#s5u3433vya"/>
        <linearGradient id="10v7e0bw8u" x1=".181" y1=".363" x2="1.185" y2="1.122" xlink:href="#sg3aj8l3rb"/>
        <linearGradient id="ywgtcil8cv" x1=".414" y1="-.121" x2=".555" y2=".988" xlink:href="#s5u3433vya"/>
        <linearGradient id="xfj434v62w" x1=".497" y1=".262" x2=".544" y2="1.274" xlink:href="#s5u3433vya"/>
        <linearGradient id="39smzjfutx" x1=".486" y1=".044" x2=".583" y2="1.291" xlink:href="#s5u3433vya"/>
        <linearGradient id="bvoj394m0y" x1=".454" y1="-.311" x2=".563" y2="1.005" xlink:href="#s5u3433vya"/>
        <linearGradient id="k0j3kw93bz" x1=".439" y1=".119" x2=".573" y2="1.043" xlink:href="#s5u3433vya"/>
        <linearGradient id="po7b0o2haA" x1="1.117" y1=".458" x2="-.819" y2=".59" xlink:href="#s5u3433vya"/>
        <linearGradient id="jd5xsyk2uB" x1="1.022" y1=".589" x2=".02" y2=".419" xlink:href="#mpjn3j3r8e"/>
    </defs>
    <g data-name="Group 571">
        <path data-name="Path 734" d="m602.04 391.968-17.749 5.732 145.456 1.81 49.921-36.5h-98.191z" transform="translate(-541.826 -91.001)" style="fill:#493477;opacity:.72"/>
        <g data-name="Group 570">
            <path data-name="Path 735" d="M694.234 269.075c-4.4 18-9.5 26.04-12.211 29.265a11.036 11.036 0 0 1-1.925 1.914l-.006-.012a170.74 170.74 0 0 0-2.185-3.781A238.9 238.9 0 0 0 662 273.146a178.039 178.039 0 0 0-6.868-8.383c-3.988-4.556-7.62-8.082-10.366-9.862l-7.776 1.792s15.01-34.07 47.89-40.708c0 0 15.684 27.149 9.354 53.09z" transform="translate(-507.818 -185.889)" style="fill:#ffd7c8"/>
            <path data-name="Path 736" d="m618.7 259.058-5.612 1.295s-1.741 6.886-3.643 16.535c-2.081 10.58-4.359 24.485-4.74 36.256q-.062 2.105-.046 4.11-1.787-.686-3.707-1.585a69.54 69.54 0 0 1-19.24-13.69c-20.205-19.911-23.225-63.649-23.225-63.649 32.876-7.839 60.213 20.728 60.213 20.728z" transform="translate(-558.483 -172.344)" style="fill:#ffd7c8"/>
            <path data-name="Path 737" d="m618.7 259.058-5.612 1.295s-1.741 6.886-3.643 16.535a378.091 378.091 0 0 0-1.706 9.285 209.563 209.563 0 0 0-3.034 26.971q-.062 2.105-.046 4.11-1.787-.686-3.707-1.585c0-1.394 0-2.861.007-4.3.016-4.984.064-9.621.064-9.621s-2.267 1.134-3.776 0 2.116-8.239 2.116-8.239-7.544 1.532-8.3 0 5.58-5.6 5.58-5.6-7.84-4.036-8.054-5.053 6.545-2.475 6.545-2.475c-8.448-17.066-32.758-37.823-32.758-37.823l-3.891-4.232c.03 0 .064-.016.094-.023 32.835-7.759 60.121 20.755 60.121 20.755z" transform="translate(-558.483 -172.344)" style="fill:url(#s5u3433vya);isolation:isolate;mix-blend-mode:multiply"/>
            <path data-name="Path 738" d="m618.659 259.058-5.612 1.295s-1.741 6.886-3.643 16.535a378.091 378.091 0 0 0-1.706 9.285c-18.7-29.959-45.36-43.61-45.36-43.61l-3.289-3.779-.508-.476c32.836-7.764 60.118 20.75 60.118 20.75z" transform="translate(-558.446 -172.344)" style="fill:url(#hcy79vzrff);isolation:isolate;mix-blend-mode:multiply"/>
            <path data-name="Path 739" d="m618.7 259.057-5.612 1.295s-1.741 6.886-3.643 16.535q-1.8-2.488-3.654-4.745c-20.373-25.035-43.412-29.579-43.412-29.579s2.972 23.144 13.153 44.141c6.325 13.043 17.708 20.722 25.426 24.664 1.382.711 2.647 1.3 3.747 1.775q-.062 2.105-.046 4.11-1.787-.686-3.707-1.585a69.541 69.541 0 0 1-19.24-13.69c-20.205-19.911-23.225-63.649-23.225-63.649 12.362-2.947 23.942-.75 33.579 3.146a84.39 84.39 0 0 1 26.634 17.582z" transform="translate(-558.483 -172.343)" style="fill:#ee8130"/>
            <path data-name="Path 740" d="M588.044 283.965q-.062 2.105-.046 4.11-1.787-.686-3.707-1.585l.007-4.3a62.57 62.57 0 0 0 3.746 1.775z" transform="translate(-541.827 -143.16)" style="fill:url(#sg3aj8l3rb);isolation:isolate;mix-blend-mode:multiply"/>
            <path data-name="Path 741" d="m605.613 257.289-5.613 1.3s-1.741 6.886-3.643 16.535q-1.8-2.488-3.654-4.745l1.116-3.348c-3.756-2.111-4.225-14.031-4.225-14.031s-2.717-.15-7.845-4.823a8.515 8.515 0 0 1-2.769-8.469 84.39 84.39 0 0 1 26.633 17.581z" transform="translate(-545.4 -170.575)" style="fill:url(#ud5rbaoukg);isolation:isolate;mix-blend-mode:multiply"/>
            <path data-name="Path 742" d="M683.445 221.795S672.472 244.187 667.5 267.6c0 0 5.881-1.578 7.24 0s-3.169 4.411-3.169 4.411 6.221.791 6.336 2.493-4.526 2.034-4.526 2.034 6 5.2 5.318 6.336c-.665 1.1-3.89.058-4.069.007a39.1 39.1 0 0 1 5.757 9.591 24.848 24.848 0 0 1 1.637 5.867 11.036 11.036 0 0 1-1.925 1.914l-.006-.012a170.74 170.74 0 0 0-2.185-3.781A238.9 238.9 0 0 0 662 273.146a178.039 178.039 0 0 0-6.868-8.383c-3.988-4.556-7.62-8.082-10.366-9.862l-7.776 1.792s15.01-34.07 47.89-40.708z" transform="translate(-507.818 -185.889)" style="fill:url(#u3v40dzzth);isolation:isolate;mix-blend-mode:multiply"/>
            <path data-name="Path 743" d="m684.88 215.985-1.435 5.81-.011.012c-.5.568-15.408 17.795-21.438 51.34a178.039 178.039 0 0 0-6.868-8.383c-3.988-4.556-7.62-8.082-10.366-9.862l-7.776 1.792S652 222.623 684.88 215.985z" transform="translate(-507.818 -185.889)" style="fill:url(#aqyd2znari);isolation:isolate;mix-blend-mode:multiply"/>
            <path data-name="Path 744" d="M694.234 269.075c-4.365 17.853-9.413 25.907-12.148 29.184a.549.549 0 0 1-.063.081 11.036 11.036 0 0 1-1.925 1.914l-.006-.012a170.74 170.74 0 0 0-2.185-3.781c.74-1.1 1.584-2.422 2.475-3.977l.005-.007a81.557 81.557 0 0 0 9.846-28.826 73.076 73.076 0 0 0-6.787-41.852l-.011.012c-13.464 11.5-21.581 26.85-25.484 35.741-1.868 4.267-2.769 7.054-2.822 7.215-3.988-4.556-7.62-8.082-10.366-9.862l-7.776 1.792a83.073 83.073 0 0 1 11.43-17.639c7.857-9.407 19.893-19.722 36.464-23.068-.001-.005 15.683 27.144 9.353 53.085z" transform="translate(-507.818 -185.889)" style="fill:#ee8130"/>
            <path data-name="Path 745" d="M666.035 268.258a.549.549 0 0 1-.063.081 11.036 11.036 0 0 1-1.925 1.914l-.006-.012a170.74 170.74 0 0 0-2.185-3.781c.74-1.1 1.584-2.422 2.475-3.977l.005-.007s1.186 3.401 1.699 5.782z" transform="translate(-491.766 -155.887)" style="fill:url(#jw9nt2xn2j);isolation:isolate;mix-blend-mode:multiply"/>
            <path data-name="Path 746" d="M657.95 248.5c-1.868 4.267-2.769 7.054-2.822 7.215-3.988-4.556-7.62-8.082-10.366-9.862l-7.776 1.792a83.073 83.073 0 0 1 11.43-17.639c2.109 1.682 8.174 7.33 6.868 15.973z" transform="translate(-507.818 -176.84)" style="fill:url(#ueidhvkgck);isolation:isolate;mix-blend-mode:multiply"/>
            <path data-name="Path 747" d="M653.564 270.908a34.157 34.157 0 0 1-.987-10.516c.066-.884.1-1.772.214-2.652l.375-2.639.578-2.6c.186-.87.494-1.708.734-2.565.135-.423.26-.851.408-1.27l.5-1.237.5-1.239a10.044 10.044 0 0 1 .542-1.218l1.229-2.368a23.955 23.955 0 0 1 1.4-2.266l.727-1.114c.122-.183.237-.373.367-.553l.416-.518 1.673-2.06a20.9 20.9 0 0 1 1.822-1.92q.943-.928 1.9-1.828-.8 1.054-1.613 2.083a23.047 23.047 0 0 0-1.575 2.086 48.441 48.441 0 0 0-2.8 4.39 46.318 46.318 0 0 0-4.176 9.454 48.328 48.328 0 0 0-2.147 10.122 50.9 50.9 0 0 0-.087 10.428z" transform="translate(-497.788 -175.333)" style="fill:#fff1eb"/>
            <path data-name="Path 748" d="M654.674 269.21a27.176 27.176 0 0 1 1.812-9.426 38.108 38.108 0 0 1 4.467-8.576c.466-.66.982-1.283 1.471-1.927l.745-.954.814-.9c.553-.589 1.089-1.193 1.654-1.767a110.09 110.09 0 0 1 1.784-1.631l.9-.806.958-.736 1.927-1.443c1.323-.9 2.715-1.708 4.09-2.509-1.208 1.058-2.481 2.006-3.672 3.047l-1.754 1.6-.88.79-.821.849q-.819.854-1.652 1.687c-.527.582-1.023 1.191-1.537 1.785l-.772.887-.712.935c-.464.632-.956 1.242-1.4 1.887l-1.3 1.955c-.439.65-.785 1.356-1.193 2.024s-.75 1.374-1.107 2.073-.688 1.408-1 2.129a39.5 39.5 0 0 0-2.822 9.027z" transform="translate(-496.402 -171.332)" style="fill:#fff1eb"/>
            <path data-name="Path 749" d="M654.59 268.069a20.34 20.34 0 0 1 2.922-6.925 28.843 28.843 0 0 1 4.89-5.793 31.178 31.178 0 0 1 6.215-4.322l.829-.452.862-.385 1.733-.742c1.177-.439 2.384-.791 3.582-1.129-1.091.627-2.215 1.144-3.292 1.747l-1.6.931-.8.454-.768.51q-.763.513-1.537 1c-.5.355-.979.732-1.468 1.1l-.739.541-.7.587c-.462.4-.939.777-1.387 1.188a39.61 39.61 0 0 0-4.933 5.379 32.984 32.984 0 0 0-3.809 6.311z" transform="translate(-496.456 -165.02)" style="fill:#fff1eb"/>
            <path data-name="Path 750" d="M599.594 286.243a34.182 34.182 0 0 0-2.978-10.134c-.39-.795-.75-1.609-1.181-2.384l-1.328-2.312-1.5-2.2c-.5-.74-1.091-1.405-1.632-2.111-.283-.342-.556-.694-.849-1.028l-.923-.966-.921-.964a10.222 10.222 0 0 0-.954-.931l-2.019-1.744a24.006 24.006 0 0 0-2.137-1.586l-1.088-.765c-.183-.125-.36-.258-.546-.377l-.581-.327-2.317-1.293a20.623 20.623 0 0 0-2.4-1.109q-1.222-.513-2.443-.994 1.133.684 2.269 1.338a22.832 22.832 0 0 1 2.234 1.356 47.789 47.789 0 0 1 4.224 3.041 46.3 46.3 0 0 1 7.381 7.235 48.263 48.263 0 0 1 5.746 8.605 50.891 50.891 0 0 1 3.943 9.65z" transform="translate(-548.602 -160.701)" style="fill:#fff1eb"/>
            <path data-name="Path 751" d="M600.553 284.034a27.184 27.184 0 0 0-5.175-8.085 38.137 38.137 0 0 0-7.329-6.31c-.676-.441-1.387-.828-2.078-1.246l-1.046-.609-1.089-.531c-.731-.342-1.453-.7-2.19-1.028q-1.125-.439-2.261-.852l-1.132-.418-1.162-.327-2.323-.628c-1.565-.349-3.156-.581-4.73-.814 1.514.536 3.047.943 4.541 1.469l2.22.834 1.111.408 1.078.484a97.77 97.77 0 0 0 2.159.954c.7.345 1.392.727 2.088 1.089l1.046.536 1.009.605c.665.413 1.348.8 2 1.234l1.933 1.333c.648.441 1.231.969 1.859 1.438s1.206 1 1.8 1.515 1.162 1.053 1.719 1.606a39.582 39.582 0 0 1 5.952 7.343z" transform="translate(-551.025 -155.426)" style="fill:#fff1eb"/>
            <path data-name="Path 752" d="M600.359 282.989a20.376 20.376 0 0 0-5.28-5.349 28.946 28.946 0 0 0-6.689-3.57 31.288 31.288 0 0 0-7.373-1.711l-.938-.114-.944-.036-1.884-.048c-1.255.028-2.508.148-3.747.28 1.246.178 2.483.24 3.707.4l1.83.273.912.125.9.189c.6.13 1.2.253 1.8.364.594.145 1.18.318 1.771.474l.885.229.867.286c.576.2 1.16.373 1.729.589a39.554 39.554 0 0 1 6.573 3.169 32.947 32.947 0 0 1 5.881 4.45z" transform="translate(-548.788 -149.633)" style="fill:#fff1eb"/>
            <path data-name="Path 753" d="M697.917 316.6c-12.673 7.544-18.853 9.956-18.853 20.062H669.6v-5.766a15.763 15.763 0 0 1 1.5-3.89 24.215 24.215 0 0 1 2.873-4.278 27.7 27.7 0 0 1 2.833-2.909 31.341 31.341 0 0 1 5.129-3.671 76.406 76.406 0 0 0 5.817-3.682 39.788 39.788 0 0 0 6.978-6.072 22.254 22.254 0 0 0 3.763-5.757 17.231 17.231 0 0 0 .717-1.943 17.738 17.738 0 0 0-.041-10.129 12.227 12.227 0 0 0-.2-.67 83.355 83.355 0 0 0-3.8-9.552c-1.516-3.353-3.111-6.649-4.395-9.8-2.654-6.544-3.972-12.429-.55-16.795a8.168 8.168 0 0 1 2.718-2.289 7.081 7.081 0 0 1 2.468-.736c7.153-.78 16.553 8.8 18.8 26.555 2.861 22.622-3.625 33.778-16.293 41.322z" transform="translate(-486.769 -164.789)" style="fill:#ee8130"/>
            <path data-name="Path 754" d="M671.763 290.873s17.948 8.6 25.339 18.55h-62.227z" transform="translate(-509.18 -137.556)" style="fill:#ee8130"/>
            <path data-name="Path 755" d="m789.732 302.148-9.643 47.506-10.869 53.541-38.92 28.051H605.918l-16.107-75.256-11.528-53.842z" transform="translate(-545.704 -130.28)" style="fill:#f3b889"/>
            <path data-name="Path 756" d="m670.677 431.248 21.43-129.1H730.1L709.588 403.2z" transform="translate(-486.074 -130.28)" style="fill:#d49569"/>
            <path data-name="Path 757" d="M578.283 302.148h173.453l-9.291 53.842H589.811z" transform="translate(-545.704 -130.28)" style="fill:url(#z9ecws7idc);isolation:isolate;mix-blend-mode:multiply"/>
            <path data-name="Path 758" d="m723.113 302.148-9.643 47.506-31.97 5.382 3.613-52.888z" transform="translate(-479.086 -130.28)" style="fill:url(#z9ecws7idc);isolation:isolate;mix-blend-mode:multiply"/>
            <path data-name="Path 759" d="m683.7 302.147 6.365 50.223 40.6-12.895-8.974-37.328z" transform="translate(-477.668 -130.28)" style="fill:#f3b889"/>
            <path data-name="Path 760" d="m759.251 302.147-18.112 47.508h-174.5l19.161-47.508z" transform="translate(-553.217 -130.28)" style="fill:#fac8a4"/>
            <path data-name="Path 761" d="M589.358 302.147s-4.255 25.79 7.921 31.07 30.122.023 30.274-8.434a48.787 48.787 0 0 0-1.66-14.19 122.519 122.519 0 0 0 24.434 1.325 183.411 183.411 0 0 0 21.879-2.531s.421 9.818 7.38 15.4c6.9 5.53 16.675 5.379 24.215-3.972s5.533-18.662 5.533-18.662z" transform="translate(-539.021 -130.28)" style="fill:url(#jbzbb22e7l);isolation:isolate;mix-blend-mode:multiply"/>
            <path data-name="Path 762" d="M670.737 253.587s-11.718 20.913-46.517 22.645a114.678 114.678 0 0 1-29.867-2.758v-8.885s-9.347-1.81-9.649-7.24 4.22-34.387 11.465-47.053 22.623-14.177 28.352-11.465c2.5 1.185 8.781 8.545 16.309 17.876l.016.023c9.691 12.008 21.446 27.277 29.891 36.857z" transform="translate(-541.569 -197.694)" style="fill:#fb333d"/>
            <path data-name="Path 763" d="M620.43 264.9a114.678 114.678 0 0 1-29.867-2.758v-8.885s20.969-19.906 26.7-38.007c-.002.001-.002 28.832 3.167 49.65z" transform="translate(-537.779 -186.362)" style="fill:url(#h3l0ujmwlm);isolation:isolate;mix-blend-mode:multiply"/>
            <g data-name="Group 563">
                <path data-name="Path 764" d="M719.6 307.711c-4.586 14.453-34.527 35.44-57.363 38.7-23.068 3.3-58.4 1.341-70.453-11.794a16.332 16.332 0 0 1-2.845-4.191c-1.654-3.567-2.341-8.818-2.392-14.888-.133-14.789 3.474-34.428 6.012-46.344 1.364-6.389 2.417-10.557 2.417-10.557l5.612-1.295 68.955-15.916 7.776-1.792a48.532 48.532 0 0 1 8.174 7.429c8.749 9.453 19.888 24.934 27.156 37.913l.006.012c4.156 7.431 7.047 14.043 7.5 18.236a11.02 11.02 0 0 1-.555 4.487z" transform="translate(-540.374 -170.624)" style="fill:#ee8130"/>
            </g>
            <path data-name="Path 765" d="M683.133 247.065c-4.318 9.533-28.617 21.356-53.419 23.842-25.375 2.55-39.516-1.711-39.516-1.711 1.364-6.389 2.417-10.557 2.417-10.557l5.612-1.295 68.955-15.916 7.776-1.792a48.532 48.532 0 0 1 8.175 7.429z" transform="translate(-538.014 -170.624)" style="fill:url(#gyl7tlwhdn);isolation:isolate;mix-blend-mode:multiply"/>
            <path data-name="Path 766" d="M717.529 284.8a89.679 89.679 0 0 0-24.635-4.81v4.977s-23.3-5.2-44.863 0-39.973 20.836-39.973 20.836l1.134-5.9c-7.891 3.289-18.772 11.286-19.444 11.783.619-.706 12.471-14.037 22.155-17.779v2.371s18.552-11.384 34.162-15.361 39.123-2.491 39.123-2.491l-.549-3.3s21.777.461 32.89 9.674z" transform="translate(-538.305 -147.716)" style="fill:url(#8bi98rm70o);mix-blend-mode:screen;isolation:isolate"/>
            <g data-name="Group 564" transform="translate(54.446 102.732)">
                <circle data-name="Ellipse 65" cx="18.86" cy="18.86" r="18.86" transform="matrix(.229 -.974 .974 .229 0 36.721)" style="fill:#3d110f"/>
            </g>
            <g data-name="Group 566">
                <path data-name="Path 767" d="M632.254 282.076a18.861 18.861 0 1 1-19.218-18.85c.12-.007.239-.007.357-.007a18.843 18.843 0 0 1 18.861 18.856z" transform="translate(-535.217 -155.403)" style="fill:#7fde80"/>
                <g data-name="Group 565" transform="translate(59.315 107.817)">
                    <path data-name="Path 768" d="M594.532 279.29a18.863 18.863 0 0 0 37.555 2.537 18.857 18.857 0 0 1-33.438-14.29 18.745 18.745 0 0 0-4.117 11.753z" transform="translate(-594.532 -260.434)" style="fill:url(#1qkwiu78hd);isolation:isolate;mix-blend-mode:multiply"/>
                    <circle data-name="Ellipse 66" cx="13.267" cy="13.267" r="13.267" transform="rotate(-76.764 20.292 11.649)" style="fill:#3d110f"/>
                    <path data-name="Path 769" d="M618.139 279.449a8.113 8.113 0 1 1-8.112-8.113 8.111 8.111 0 0 1 8.112 8.113z" transform="translate(-589.768 -257.982)" style="fill:#1a0404"/>
                    <path data-name="Path 770" d="M625.936 279.4a12.487 12.487 0 0 1-19.029-16.173c.12-.007.238-.007.357-.007a18.86 18.86 0 0 1 18.672 16.18z" transform="translate(-588.403 -263.22)" style="fill:url(#mpjn3j3r8e);mix-blend-mode:screen;isolation:isolate"/>
                    <path data-name="Path 771" d="M606.626 282.962a2.707 2.707 0 1 1-2.707-2.708 2.706 2.706 0 0 1 2.707 2.708z" transform="translate(-590.22 -252.226)" style="fill:#fff"/>
                    <circle data-name="Ellipse 67" cx="4.035" cy="4.035" r="4.035" transform="translate(20.117 7.759)" style="fill:#fff"/>
                </g>
            </g>
            <g data-name="Group 567" transform="translate(105.955 89.155)">
                <circle data-name="Ellipse 68" cx="18.86" cy="18.86" r="18.86" transform="rotate(-15.121 37.069 4.92)" style="fill:#3d110f"/>
            </g>
            <g data-name="Group 569">
                <path data-name="Path 772" d="M624.827 274.1a18.861 18.861 0 1 0 19.218-18.85h-.357a18.859 18.859 0 0 0-18.672 16.178 19.182 19.182 0 0 0-.189 2.672z" transform="translate(-515.665 -160.55)" style="fill:#7fde80"/>
                <g data-name="Group 568" transform="translate(109.306 94.695)">
                    <path data-name="Path 773" d="M662.484 271.314a18.863 18.863 0 0 1-37.554 2.537 18.853 18.853 0 0 0 33.438-14.29 18.745 18.745 0 0 1 4.116 11.753z" transform="translate(-624.905 -252.459)" style="fill:url(#pvxs1cas1p);isolation:isolate;mix-blend-mode:multiply"/>
                    <circle data-name="Ellipse 69" cx="13.267" cy="13.267" r="13.267" transform="rotate(-67.61 19.46 13.03)" style="fill:#3d110f"/>
                    <circle data-name="Ellipse 70" cx="8.112" cy="8.112" r="8.112" transform="translate(9.207 13.353)" style="fill:#1a0404"/>
                    <path data-name="Path 774" d="M624.942 271.423a12.487 12.487 0 0 0 19.029-16.173h-.357a18.859 18.859 0 0 0-18.672 16.173z" transform="translate(-624.897 -255.245)" style="fill:url(#4ltg3x8etq);mix-blend-mode:screen;isolation:isolate"/>
                    <path data-name="Path 775" d="M637.782 274.986a2.708 2.708 0 1 0 2.707-2.707 2.708 2.708 0 0 0-2.707 2.707z" transform="translate(-616.61 -244.251)" style="fill:#fff"/>
                    <path data-name="Path 776" d="M630.622 263.995a4.035 4.035 0 1 0 4.036-4.035 4.036 4.036 0 0 0-4.036 4.035z" transform="translate(-621.231 -252.202)" style="fill:#fff"/>
                </g>
            </g>
            <path data-name="Path 777" d="M607.208 335.117c-6.325 0-10.619-1.562-13.517-3.933-6.325-5.173-5.989-14.182-5.6-19.147a24.1 24.1 0 0 1 2.366-9.637c1.664-3.047 4.469-5.308 9.249-5.973 0 0 18.588-2.937 22.438 17.876s-14.936 20.814-14.936 20.814z" transform="translate(-539.491 -134.064)" style="fill:#ffd7c8"/>
            <path data-name="Path 778" d="M606.21 335.117c-6.325 0-10.619-1.562-13.517-3.933 16.605 4.278 24.831-8.342 17.264-15.482-6.348-5.989-16.725-11.419-20.5-13.3 1.663-3.047 4.469-5.308 9.249-5.973 0 0 18.588-2.937 22.438 17.876s-14.934 20.812-14.934 20.812z" transform="translate(-538.493 -134.064)" style="fill:url(#lpgah1fu6r);isolation:isolate;mix-blend-mode:multiply"/>
            <path data-name="Path 779" d="M671.291 325.952c-2.861 3.054-7.475 5.181-14.858 5.181 0 0-18.784 0-14.932-20.814s22.437-17.869 22.437-17.869a11.89 11.89 0 0 1 8.14 4.283c2.371 2.995 3.151 7.141 3.475 11.327.347 4.584.671 12.62-4.262 17.892z" transform="translate(-505.239 -136.631)" style="fill:#ffd7c8"/>
            <path data-name="Path 780" d="M671.291 325.952c-2.861 3.054-7.475 5.181-14.858 5.181 0 0-18.784 0-14.932-20.814s22.437-17.869 22.437-17.869a11.89 11.89 0 0 1 8.14 4.283c-6.29 5.874-25.229 9.811-21.818 20.362 3.07 9.505 16.974 9.165 21.031 8.857z" transform="translate(-505.239 -136.631)" style="fill:url(#ijgo3eczis);isolation:isolate;mix-blend-mode:multiply"/>
            <path data-name="Path 781" d="M717.543 282.9c-4.586 14.453-34.527 35.44-57.363 38.7-23.062 3.3-58.387 1.341-70.446-11.789h-.007s11.332-8.411 19.478-11.806l-1.134 5.9s18.414-15.633 39.973-20.836 44.863 0 44.863 0v-4.977a89.676 89.676 0 0 1 24.636 4.808z" transform="translate(-538.318 -145.809)" style="fill:#ffd7c8"/>
            <path data-name="Path 782" d="m589.757 297.351-.023.023h-.007z" transform="translate(-538.318 -133.375)" style="fill:#ffd7c8"/>
            <path data-name="Path 783" d="M680.209 251.564c-4.979 5.436-25.109 14.483-52.034 18.554s-38.007-.9-38.007-.9a14.1 14.1 0 0 1-2.1-6.55c-.387-5 1.515-9.864 4.133-11.037 3.822-1.7 18.553-.515 38.69-3.549s32.121-18 40.944-16.419a10.369 10.369 0 0 1 2.717.9c6.98 3.398 10.092 14.164 5.657 19.001z" transform="translate(-539.419 -175.848)" style="fill:#fff"/>
            <path data-name="Path 784" d="M598.991 242.288a9.529 9.529 0 1 1-9.529-9.528 9.529 9.529 0 0 1 9.529 9.528z" transform="translate(-544.64 -175.062)" style="fill:#fff"/>
            <path data-name="Path 785" d="M597.895 241.1a8.8 8.8 0 0 1-17.4 1.826 8.789 8.789 0 0 0 14.731-6.486 8.375 8.375 0 0 0-.2-1.838 8.762 8.762 0 0 1 2.869 6.498z" transform="translate(-544.278 -173.874)" style="fill:url(#zc4023df7t)"/>
            <path data-name="Path 786" d="M679.986 296.086c-.393 3.549-5.782 4.92-9.476 3.013a25.218 25.218 0 0 1 5.706-7.187c1.909.648 4.025 1.888 3.77 4.174z" transform="translate(-486.181 -136.886)" style="fill:#a75824"/>
            <path data-name="Path 787" d="M690.948 288.53c-.624 2.856-6.562 2.953-10.318 1.295a39.788 39.788 0 0 0 6.978-6.072c1.774 1.083 3.775 2.782 3.34 4.777z" transform="translate(-479.65 -142.151)" style="fill:#a75824"/>
            <path data-name="Path 788" d="M686.862 272.836c-1.516-3.353-3.111-6.649-4.395-9.8h.007s9.25-8.643 13.17-4.874c3.705 3.556.82 10.003-8.782 14.674z" transform="translate(-478.464 -159.285)" style="fill:#a75824"/>
            <path data-name="Path 789" d="M687.61 283.4a17.738 17.738 0 0 0-.041-10.129c2.868-.734 10.828-2.346 11.569 2.093.768 4.595-5.481 7.029-11.528 8.036z" transform="translate(-475.172 -149.497)" style="fill:#a75824"/>
            <path data-name="Path 790" d="M697.917 316.6c-12.673 7.544-18.853 9.956-18.853 20.062H669.6v-5.766a15.763 15.763 0 0 1 1.5-3.89 24.215 24.215 0 0 1 2.873-4.278c9.009-2.55 29.018-9.563 31.539-22.091 3.266-16.235-.527-23.565-.527-23.565l5.816 2.086s.444-18.72-15.391-30.433c7.153-.78 16.553 8.8 18.8 26.555 2.861 22.62-3.625 33.776-16.293 41.32z" transform="translate(-486.769 -164.789)" style="fill:url(#10v7e0bw8u);isolation:isolate;mix-blend-mode:multiply"/>
            <path data-name="Path 791" d="M641.82 288.4v.007c-.458 3.19-3.192 7.174-11.008 8.6-6.817 1.242-10.257-1.891-11.824-4.227a9.414 9.414 0 0 1-1.145-2.284s7.319-5.191 11.24-5.417 12.545.474 12.545.474a6.255 6.255 0 0 1 .192 2.847z" transform="translate(-520.179 -141.33)" style="fill:#fff1eb"/>
            <path data-name="Path 792" d="M650.483 283.677a8.277 8.277 0 0 1-.092 1.221c-1.417 8.88-18.461 6.7-18.461 6.7-3.618 5.441-18.094 5.759-19-1.589-.007-.064-.018-.133-.018-.2v-.007c-.568-6.15 7.758-9.232 10.21-10 .421-.138.671-.2.671-.2a75.214 75.214 0 0 1 11.487-2.215c7.22-.758 15.203-.139 15.203 6.29z" transform="translate(-523.378 -146.422)" style="fill:#fff1eb"/>
            <path data-name="Path 793" d="M650.378 284.8c-1.417 8.88-18.461 6.705-18.461 6.705-3.618 5.441-18.094 5.759-19-1.589-.007-.064-.018-.133-.018-.2.283.347 2.937 3.319 9.331 2.3 6.8-1.081 8.107-3.608 8.107-3.608s-.128-2.751-1.1-4.035a11.554 11.554 0 0 1-4.717-2.81 9.62 9.62 0 0 1-1.417-1.851c.421-.138.671-.2.671-.2a75.214 75.214 0 0 1 11.487-2.215 7.679 7.679 0 0 1-3.59 6.642 7.974 7.974 0 0 0 1.03 3.937 18.471 18.471 0 0 0 14.869-1.278 24.277 24.277 0 0 0 2.808-1.798z" transform="translate(-523.365 -146.321)" style="fill:url(#ywgtcil8cv);isolation:isolate;mix-blend-mode:multiply"/>
            <path data-name="Path 794" d="M630.313 278.615c-.63 1.932-1.932 4.724-4.255 5.232-2.383.527-4.77-1.66-6.122-3.2a1.659 1.659 0 0 1-.382-1.428 1.677 1.677 0 0 1 .791-1.139 14.174 14.174 0 0 1 8.505-1.659 1.689 1.689 0 0 1 1.38.977 1.611 1.611 0 0 1 .083 1.217z" transform="translate(-519.089 -146.934)" style="fill:#ffd7c8"/>
            <path data-name="Path 795" d="M717.54 281.009c-4.586 14.453-34.527 35.44-57.363 38.7-23.062 3.3-58.387 1.341-70.446-11.789.387.151 16.691 6.465 38.088 2.44L626 313.073s29.578.839 50.617-10.1l-2.411-3.093s24.983-4.786 43.334-18.871z" transform="translate(-538.316 -143.922)" style="fill:url(#xfj434v62w);isolation:isolate;mix-blend-mode:multiply"/>
            <path data-name="Path 796" d="M630.313 278.2c-.63 1.932-1.932 4.724-4.255 5.232-2.383.527-4.77-1.66-6.122-3.2a1.659 1.659 0 0 1-.382-1.428c.173.145 2.889 2.412 4.2 2.672 1.359.265.908-2.221 1.359-2.544s.908 1.976 2.035 1.976c1.051 0 2.358-1.3 3.08-3.924a1.611 1.611 0 0 1 .085 1.216z" transform="translate(-519.089 -146.521)" style="fill:url(#39smzjfutx);isolation:isolate;mix-blend-mode:multiply"/>
            <path data-name="Path 797" d="M641.364 287.081c-.458 3.19-3.192 7.174-11.008 8.6-6.817 1.242-10.257-1.891-11.824-4.227.11.087 2.833 2.128 11.419.283 8.504-1.829 11.249-4.488 11.413-4.656z" transform="translate(-519.728 -140.004)" style="fill:url(#bvoj394m0y);isolation:isolate;mix-blend-mode:multiply"/>
            <path data-name="Path 798" d="M680.19 251.167c-4.979 5.435-25.109 14.483-52.034 18.553s-38.007-.9-38.007-.9a14.1 14.1 0 0 1-2.1-6.55c.867.168 12.344 2.376 22.813 1.8l-2.537-1.81s10.856 1.81 32.727-3.77 31.532-15.812 31.532-15.812l-6.081 1.787s3.919-4.018 8.03-12.3c6.98 3.399 10.091 14.165 5.657 19.002z" transform="translate(-539.4 -175.451)" style="fill:url(#k0j3kw93bz)"/>
            <path data-name="Path 799" d="M567.332 347.942h171.243l20.675-45.794-18.112 47.508h-174.5z" transform="translate(-553.217 -130.28)" style="fill:#fdd2b7"/>
            <path data-name="Path 800" d="m683.7 302.147 8.282 47.508 38.429-11.245.256 1.065-40.6 12.895z" transform="translate(-477.668 -130.28)" style="fill:#fac8a4"/>
            <path data-name="Path 801" d="M591.534 364.067s4.589-.5 7 1.612 7.089 5.127 8.294 6.787 7.541 3.167 7.541 6.484-1.206 8.6-5.278 9.2-12.4 0-12.4 0z" transform="translate(-537.152 -90.35)" style="fill:#bf9f8a"/>
            <path data-name="Path 802" d="M599.674 364.05c-1.127 1.163.169 3.449 1.074 3.845s5.091.961 5.316 0-2.997-7.353-6.39-3.845z" transform="translate(-532.182 -91.001)" style="fill:#bf9f8a"/>
            <path data-name="Path 803" d="M603.571 368.071c-.907.907 1.868 4.694 3.281 3.506s-1.866-4.92-3.281-3.506z" transform="translate(-529.499 -87.937)" style="fill:#bf9f8a"/>
            <path data-name="Path 804" d="M672.869 374.7a4.8 4.8 0 0 1 5.2 0 5.653 5.653 0 0 0 6.638-.388c1.507-1.033 5-3.6 7.4-3.748a11.42 11.42 0 0 0 4.369-1.254l-25.8 18.6z" transform="translate(-486.074 -86.936)" style="fill:#a0887a"/>
            <path data-name="Path 805" d="M684.378 369.9a1.742 1.742 0 0 0 .9-.349c.225-.273.508-.527-.114-.612s-1.127.592-.786.961z" transform="translate(-477.302 -87.179)" style="fill:#a0887a"/>
            <path data-name="Path 806" d="M692 366.822a8.468 8.468 0 0 1 .622-1.443 10.143 10.143 0 0 1 1.074-1.1c.142-.169.4-1.471.678-1.527a1.4 1.4 0 0 1 1.453 1.338z" transform="translate(-472.312 -91.172)" style="fill:#a0887a"/>
            <path data-name="Path 807" d="M691.208 300.328a17.234 17.234 0 0 0 .717-1.943 17.738 17.738 0 0 0-.041-10.129 12.227 12.227 0 0 0-.2-.67 83.351 83.351 0 0 0-3.8-9.552c-1.516-3.353-3.111-6.649-4.395-9.8-2.654-6.544-3.972-12.429-.55-16.795a8.168 8.168 0 0 1 2.718-2.289s-1.359 9.492 4.071 15.615 10.342 27.897 1.48 35.563z" transform="translate(-479.486 -164.483)" style="fill:url(#po7b0o2haA);mix-blend-mode:screen;isolation:isolate"/>
            <path data-name="Path 808" d="M605.945 224.454c-4.53 11.286-11.373 19.161-15.287 17.589s-3.414-11.992 1.116-23.276 11.373-19.161 15.287-17.589 3.413 11.992-1.116 23.276z" transform="translate(-539.42 -195.574)" style="fill:url(#jd5xsyk2uB);mix-blend-mode:screen;isolation:isolate"/>
        </g>
    </g>
</svg>
