<svg xmlns="http://www.w3.org/2000/svg" width="383.489" height="320.185" viewBox="0 0 383.489 320.185">
    <g data-name="Group 621">
        <g data-name="Group 617">
            <g data-name="Group 616">
                <path data-name="Path 945" d="M2260.2 1222.681c16.09-7.2 19.573 24.078 10.826 41.607-10.711 21.468-25.683 18.768-25.011-.553" transform="translate(-1984.929 -1102.642)" style="fill:#cc1515"/>
                <path data-name="Path 946" d="M1373.409 1803.923c-28.579 22.991-37.741 67.941-34.55 73.809s37.54-63.879 37.54-63.879c-27.275 44.324-32.787 90.12-29.377 108.926 15.105-4.727 32.284-90.812 37.665-106.22-18.015 53.663-21.913 75.736-14.943 82.222 21.327-18.69 22.486-94.794 22.486-111.216" transform="translate(-1183.039 -1602.593)" style="fill:#20255f"/>
                <path data-name="Path 947" d="M1708.247 1879.029c-8.961 18.19-10.837 69.76-3.237 70.568s9.251-50.587 9.251-50.587-4.987 33.823 4.194 37.731c5.937-3.908 3.845-40.237-.312-55.281" transform="translate(-1502.843 -1683.392)" style="fill:#910921"/>
                <path data-name="Path 948" d="M1553.626 942.4c-4.008 11.775-33.7 34.518-34.448 80.08-.662 40.357 31.57 43.647 76.17 25.993s32.1-72.666 13.958-94.908" transform="translate(-1342.857 -855.98)" style="fill:#910921"/>
                <path data-name="Path 949" d="M1894.32 1398.889c-4.014 12.6-17.125 42.977-12.454 48.546s34.561 1.01 50.308-14.22c12.054-11.658 12.92-33.163 11.809-39.692-1.109 6.257-4.7-1.089-4.7-1.089-.372 8.979-5.926 15.788-9.623 5.173-.791 12.511-16.144 17.408-18.509-2.725-4.943 11.918-16.831 4.007-16.831 4.007z" transform="translate(-1662.386 -1253.536)" style="fill:#af0e2d"/>
                <g data-name="Group 610">
                    <path data-name="Path 950" d="M1253.9 1652.55c-16.262 9.889-35.095 7.989-35.095 3.063 0-3.4 19.676-3.969 32.437-17.294 5.088-4.375 11.958 2.433 8.612 8.778s-5.954 5.453-5.954 5.453z" transform="translate(-1077.519 -1469.524)" style="fill:#20255f"/>
                    <path data-name="Path 951" d="M1440.962 1761.469c-8.507 19.158-21 20.8-19.271 25.182s27.248-4.378 35.756-23.537" transform="translate(-1256.604 -1579.54)" style="fill:#20255f"/>
                    <path data-name="Path 952" d="M1230.343 1693.491c-11.13 18.56-48.236 26.973-56.347 13.37 11.23-1.4 28.7-5.023 40.553-21.472 8.364-8.25 18.49 3.611 15.794 8.102z" transform="translate(-1037.933 -1509.816)" style="fill:#20255f"/>
                    <path data-name="Path 953" d="M1475.795 1414.092c-5.475 40.721-39.128 49.468-29.112 34.677-16.677 12.121-15.971-2.209-4.964-12.083-16.405 8.865-26.936-2.957-8.192-10.617-12.342 4.5-16.449-3.73-1.8-10.158 8.944-10.069 13.045-23.186 31.913-22.021s12.155 20.202 12.155 20.202z" transform="translate(-1257.36 -1254.757)" style="fill:#ef9300"/>
                    <path data-name="Path 954" d="M1506.274 1149.231c-15.3-2.908-30.651 14.03-33.33 37.918-2.266 20.209 7.418 13.5 13.058 2.006-11.64 30.655 6.439 24.631 14.948 7.116-7.445 20.253 4.785 18.611 8.011 3.283 3.686 16.97 16.272 11.709 19.588-15.872 2.967-24.69-9.388-32.003-22.275-34.451z" transform="translate(-1301.725 -1038.403)" style="fill:#cc1515"/>
                    <path data-name="Path 955" d="M1518.056 1105.875c-15.539-2.494-33.449 16.6-37.845 34.611-4.24 17.372 4.289 12.158 13.817-1.446-4.91 10.882-6.031 22.357-3.192 24.639 3.192 2.566 11.364-4.1 19.482-18.654-3.125 8.356-8.12 18.914-3.89 20.541s7.722-19.317 7.722-19.317c1.057 9.249.833 14.017 4.435 14.418 7.314.818 13.749-31.569 10.689-40.963-.218 10.518-8.6 18.137-8.6 18.137 4.675-13.675 6.553-30.495-2.618-31.966z" transform="translate(-1307.456 -1000.195)" style="fill:#e82a2a"/>
                    <path data-name="Path 956" d="M1607.056 1110.117c-10.879-2.3-35.517 18.941-17.883 24.244s30.702-21.541 17.883-24.244z" transform="translate(-1399.245 -1003.985)" style="fill:#ff3939"/>
                    <path data-name="Path 957" d="M1614.316 1347.872c-6.052-1.229-11.98 13.421-5.813 14.872s18.322-12.332 5.813-14.872z" transform="translate(-1419.471 -1214.106)" style="fill:#ff3939"/>
                    <path data-name="Path 958" d="M1527.281 1272.575c-3.875.863-13.214 12.075-7.576 15.01s16.63-13.153 8.492-15.01" transform="translate(-1341.773 -1147.653)" style="fill:#ff3939"/>
                    <path data-name="Path 959" d="M1807.786 1215.614c-2.966-.984-6.23 7.732-2.883 8.763s5.848-7.777 2.883-8.763z" transform="translate(-1594.026 -1097.265)" style="fill:#ff3939"/>
                    <path data-name="Path 960" d="M1756.692 1338.423c-2.169.163-5.677 5.878-2.163 6.6s5.571-6.852 2.163-6.6z" transform="translate(-1549.456 -1205.817)" style="fill:#ff3939"/>
                    <path data-name="Path 961" d="M1648.32 1670.9c-5.128 15.779-18.738 26.8-25.345 24.756 1.586-5.985 12.553-11.7 19.556-27.205 1.057.681-.426 9.231-7.689 18.092 6.897-5.843 10.941-17.407 13.478-15.643z" transform="translate(-1434.56 -1497.372)" style="fill:#ffc41f"/>
                    <path data-name="Path 962" d="M1528.427 1653.059c-3.53 11.384-19.015 28.289-27.49 24.014-1.449-8.144 13.664-19.078 19.082-30-.793 3.768 3.122 5.987 3.122 5.987-1.321 4.8-15.592 19.223-15.592 19.223 9.779-4.081 17.31-18.227 17.31-18.227a9.723 9.723 0 0 0 3.568-.997z" transform="translate(-1326.665 -1478.482)" style="fill:#ffc41f"/>
                    <path data-name="Path 963" d="M1454.752 1662.987c-5.862 8.549-21.236 10.564-21.453 4.964s10.639-6.473 12.94-9.64c-.869 2.406.4 3.548.4 3.548a102.8 102.8 0 0 1-9.856 5.478c4.889.591 11.761-4.35 11.761-4.35 2.905.179 6.208 0 6.208 0z" transform="translate(-1266.998 -1488.41)" style="fill:#ffc41f"/>
                    <path data-name="Path 964" d="M1437.909 1595.38c-2.867 5.122-14.035 5.122-13.271 1.721s7.98-4.623 11.705-6.8a5.133 5.133 0 0 1 0 2.72c-1.694 1.9-7.771 3.81-7.771 3.81 3.436.679 9.337-1.451 9.337-1.451z" transform="translate(-1259.317 -1428.331)" style="fill:#ffc41f"/>
                    <path data-name="Path 965" d="M1241.962 1724.109c-9.254 4.076-22.994 6.61-23.17 8.517s11.7 2.3 24-2.16c-2.33-1.919-.83-6.357-.83-6.357z" transform="translate(-1077.504 -1546.536)" style="fill:#1b65bc"/>
                    <path data-name="Path 966" d="M1183.633 1834.515c-7.223 5.53-24.251 7.288-28.364 5.084-.59 6.14 26.427 9.156 41.226-5.084a11.3 11.3 0 0 1-5.11 0c-3.17 3.9-14.42 5.891-14.42 5.891 3.674-1.632 6.668-5.891 6.668-5.891z" transform="translate(-1021.381 -1644.069)" style="fill:#1b65bc"/>
                </g>
                <path data-name="Path 967" d="M1432.137 1973.631c-5.713 3.972-10.822 7.01-9.413 8.282s10.383-1.5 16.9-6.81c-5.105 2.126-7.487-1.472-7.487-1.472z" transform="translate(-1257.45 -1766.963)" style="fill:#1b65bc"/>
                <path data-name="Path 968" d="M1719.071 2006.076c-3.795-6.994-15.864 51.468-5.9 52.045 4.013-2.684 9.229-45.909 5.9-52.045z" transform="translate(-1510.837 -1795.112)" style="fill:#cc1515"/>
                <path data-name="Path 969" d="M1821.216 2012.066c-3.057.567-8.924 38.292 0 38.292s0-38.292 0-38.292z" transform="translate(-1605.501 -1800.917)" style="fill:#cc1515"/>
                <path data-name="Path 970" d="M1372.416 2020.052c-11.865 14.147-28.521 35.63-28.867 56.854 9.051-4.714 24.714-40.548 28.867-56.854z" transform="translate(-1187.716 -1807.972)" style="fill:#1b5b9b"/>
                <path data-name="Path 971" d="M1434.266 2064.346c-9.907 14.453-34.044 84.03-23.026 93.7 9.696-12.084 23.026-93.7 23.026-93.7z" transform="translate(-1245.022 -1847.101)" style="fill:#1b5b9b"/>
                <path data-name="Path 972" d="M1619.328 2258.162c-4.048 12.453-11.3 52.58-6.929 51.992s10.1-20.72 10.1-20.72c-5.466-2.178-3.171-31.272-3.171-31.272z" transform="translate(-1424.021 -2018.317)" style="fill:#1b5b9b"/>
                <path data-name="Path 973" d="M2074.309 1577.958c-7.619 2.678-29.083 30.006-7.407 27.244s29.418-20.988 27.662-25.884-9.42-5.17-20.255-1.36z" transform="translate(-1818.398 -1415.118)" style="fill:#bc0f39"/>
                <path data-name="Path 974" d="M2048.267 1588.2c-5.259 2.579-4.095 14.573 1.727 10.291s6.597-14.368-1.727-10.291z" transform="translate(-1807.292 -1425.636)" style="fill:#bc0f39"/>
                <path data-name="Path 975" d="M2305.409 1515.677c-5.278.816-10.231 6.528-3.129 7.073s8.407-7.889 3.129-7.073z" transform="translate(-2031.537 -1362.359)" style="fill:#bc0f39"/>
                <path data-name="Path 976" d="M2175.86 1545.446c-4.229 1.1-3.436 5.727.529 6s3.699-7.103-.529-6z" transform="translate(-1920.479 -1388.607)" style="fill:#bc0f39"/>
                <g data-name="Group 615">
                    <path data-name="Path 977" d="M1854.047 226.005c-7.386-1.623-21.484-15.537-8.2-24.627-14.406-2.092-23.086 17.743-16.474 23.377-9.215-3.993-9.3-7.965-6.364-12.6-10.336 3.088-9.716 17.231-3.008 21.216-5.537-2.74-14.857 2.165-15.835 10.693 3.037-3.046 8.913.026 8.913.026-7.291 10.588-8.186 24.427-4.74 32.2" transform="translate(-1594.623 -201.224)" style="fill:#cc1515"/>
                    <path data-name="Path 978" d="M1798.967 622.072c-6.79 5.033-1.482 20.426-1.585 28.711-.13 10.44-8.121 16.221-9.278 7.556-2.528 13.037-11.3 11.071-11.606-.939-9.32 19.016-21.3 4.339-15.255-10.57-15.494 10.535-19.344-3.5-7.591-13.962-10.869 16.4-18.535 3.731-13.969-10.185 0 0-13.185 6.929-16.369 3.685-4.532-4.616 7.205-9.542 8.513-22.3.492-4.816 0-23.94 8.913-35.186" transform="translate(-1522.285 -526.014)" style="fill:#cc1515"/>
                    <path data-name="Path 979" d="M1879.241 449.112c-5.973-27.749 18.712-55.961 53.373-47.332 33.756 8.4 35.065 42.321 36.442 54.555 6.129 17.479-8.736 32.114-32.494 27.732-22.025-4.067-51.289-6.909-57.321-34.955z" transform="translate(-1660.156 -376.998)" style="fill:#cc1515"/>
                    <path data-name="Path 980" d="M2000.683 424.964c-16.6-1.569-38.467 15.582-39.507 30.5-2.148 4.521-10.629 26.608 11.383 36.822 23.06 10.7 39.548 13.528 56.167 6.859 14.673-5.885 10.723-15.836 9.292-21.737.182-35.047-15.603-50.389-37.335-52.444z" transform="translate(-1730.32 -398.787)" style="fill:#e82a2a"/>
                    <path data-name="Path 981" d="M2566.249 877.015c-2.123-4.139-15.45 3.173-10.959 11.018s14.742-3.633 10.959-11.018z" transform="translate(-2257.353 -797.159)" style="fill:#f45671"/>
                    <path data-name="Path 982" d="M1998.285 808.951c6.36-6.622 21.418 10.1 14.811 14.192s-22.027-6.674-14.811-14.192z" transform="translate(-1764.447 -736.734)" style="fill:#f45671"/>
                    <path data-name="Path 983" d="M2203.666 446.745c-27.455-3.216-31.367 34.99 1.415 42.032s30.754-38.262-1.415-42.032z" transform="translate(-1928.202 -417.947)" style="fill:#ff3939"/>
                    <path data-name="Path 984" d="M2061.628 210.8c-7.058.268-18.015 23.277 3.927 20.33-6.606-3.308-6.048-16.281-3.927-20.33z" transform="translate(-1814.058 -209.687)" style="fill:#e82a2a"/>
                    <path data-name="Path 985" d="M1929.579 323.9c-4.709 3.615-.149 22.929 7.957 11.09-6.013-1.562-7.957-11.09-7.957-11.09z" transform="translate(-1703.734 -309.599)" style="fill:#e82a2a"/>
                    <path data-name="Path 986" d="M2072.7 1204.413c-3.8-2.151-18.583 20.551-8.465 22.851s14.797-19.257 8.465-22.851z" transform="translate(-1821.297 -1087.311)" style="fill:#d82323"/>
                    <path data-name="Path 987" d="M2220 1206.464c-3.93-1.851-10.123 21.547-2.678 21.61 4.937.041 6.601-19.755 2.678-21.61z" transform="translate(-1956.522 -1089.158)" style="fill:#d82323"/>
                    <path data-name="Path 988" d="M1835.378 476.807c-6.659-3.858-11.082-3.254-13.74 6.829 4.788-5.924 11.383-1.675 13.74-6.829z" transform="translate(-1610.058 -442.731)" style="fill:#e82a2a"/>
                    <path data-name="Path 989" d="M1949.42 1117.383c-2.991-1.648-18.186 8.965-12.884 15.091s15.864-13.439 12.884-15.091z" transform="translate(-1710.575 -1010.405)" style="fill:#d82323"/>
                    <g data-name="Group 614">
                        <path data-name="Path 990" d="M2514.061 603.218c-2.758-5.154-12.655-3.515-11.492 19.046 2.931 18 13.912 11.31 17.425 7.3a61.856 61.856 0 0 0-5.933-26.346z" transform="translate(-2211.507 -554.202)" style="fill:#e8e3ba"/>
                        <path data-name="Path 991" d="M2074.384 575.5c3.872-16.693-6.658-32.537-20.635-28.35-18.548 5.557-23.787 32.75 10.912 42.059" transform="translate(-1802.235 -506.211)" style="fill:#e8e3ba"/>
                        <g data-name="Group 611">
                            <path data-name="Path 992" d="M2122.873 610.818c-11.337 3.661-11.776 26.726 2.807 26.084 18.92-.848 9.143-29.947-2.807-26.084z" transform="translate(-1868.803 -562.747)" style="fill:#f7aac8"/>
                            <path data-name="Path 993" d="M2123.934 625.039c-8.675 3.838-11.317 25.285 2.214 24.127 17.56-1.524 8.519-28.866-2.214-24.127z" transform="translate(-1870.726 -575.135)" style="fill:#e3dbe6"/>
                            <path data-name="Path 994" d="M2136.181 651.563c-8.873 3.131-7.44 22.476 4.642 20.239 13.017-2.417 6.23-24.06-4.642-20.239z" transform="translate(-1882.887 -598.654)" style="fill:#709de5"/>
                            <path data-name="Path 995" d="M2140.792 680.412c-7.127 2.505-6.59 18.865 3.717 16.237s5.006-19.302-3.717-16.237z" transform="translate(-1887.777 -624.207)" style="fill:#006"/>
                            <path data-name="Path 996" d="M2236.39 682.692c-2.7-2.544-4.848 4.331-3.845 5.437s6.335-3.11 3.845-5.437z" transform="translate(-1972.83 -626.057)" style="fill:#e3dbe6"/>
                            <path data-name="Path 997" d="M2166.27 758.209c-1.177.131-1.243 2.692.326 2.253a1.139 1.139 0 0 0-.326-2.253z" transform="translate(-1913.737 -693.258)" style="fill:#e3dbe6"/>
                        </g>
                        <g data-name="Group 612">
                            <path data-name="Path 998" d="M2519.887 633.372c8.329 2.157 10.044 26.477-.343 24.255-12.644-2.701-8.984-26.669.343-24.255z" transform="translate(-2219.398 -582.832)" style="fill:#f7aac8"/>
                            <path data-name="Path 999" d="M2519.3 645.98c8.517 2.068 9.664 24.837-.4 22.692-12.248-2.616-8.665-24.892.4-22.692z" transform="translate(-2219.074 -593.985)" style="fill:#e3dbe6"/>
                            <path data-name="Path 1000" d="M2512.5 665.394c-7.414 1.241-6.756 20.583 2.2 20.312 10.6-.3 6.867-21.816-2.2-20.312z" transform="translate(-2215.868 -611.204)" style="fill:#709de5"/>
                            <path data-name="Path 1001" d="M2510.378 680.2c-6.145 1.018-5.6 17.068 1.833 16.849 8.798-.262 5.689-18.098-1.833-16.849z" transform="translate(-2214.767 -624.296)" style="fill:#006"/>
                            <path data-name="Path 1002" d="M2586.125 692.666c-2.095-2.54-4.72 4.042-3.951 5.242s5.968-2.78 3.951-5.242z" transform="translate(-2281.792 -634.852)" style="fill:#e3dbe6"/>
                            <path data-name="Path 1003" d="M2530.057 744.354c-1.016-.04-1.272 2.38.095 2.185a1.105 1.105 0 0 0-.095-2.185z" transform="translate(-2235.125 -681.023)" style="fill:#e3dbe6"/>
                        </g>
                        <g data-name="Group 613">
                            <path data-name="Path 1004" d="M2224.173 758.493s-8.793 11-15.171 9.024c-10.25-3.166-16.605-22.085-11.683-32.818 5.365-11.7 20.176-19.6 29.548-17.641 17.066 3.56 21.613 33.455 2.114 50.478-2.53-2.686-4.808-9.043-4.808-9.043z" transform="translate(-1940.434 -656.647)" style="fill:#ef9300"/>
                            <path data-name="Path 1005" d="M2277.437 1012.794c-.581 5.357 1.611 9.687 5.036 11.829 2.825 1.769 7.487-.875 7.487-.875-4.744-.364-10.193-4.112-12.523-10.954z" transform="translate(-2012.627 -918.163)" style="fill:#ffc41f"/>
                            <path data-name="Path 1006" d="M2241.789 870.669c-4.1-.45-3.281 5.935 1.725 11.758s14.133 5.6 22.378 13.726c-3.728-7.261-17.69-8.449-21.864-14.973-4.665-7.305.309-10.222-2.239-10.511z" transform="translate(-1978.904 -792.59)" style="fill:#bc5108"/>
                            <path data-name="Path 1007" d="M2284.3 965.1c1.628 10.216 6.863 14.518 10.495 15.409 3.267.8 5.954-4.44 5.954-4.44-3.049-3.726-16.449-10.969-16.449-10.969z" transform="translate(-2018.774 -876.032)" style="fill:#660014"/>
                            <path data-name="Path 1008" d="M2300.354 970.623c3.505.17 7.472 7.027 3.107 10.614-4.118-2.557-7.529-11.202-3.107-10.614z" transform="translate(-2031.122 -880.883)" style="fill:#db3a5d"/>
                            <path data-name="Path 1009" d="M2266.368 749.546c-2.917 5.582-2.533 13.51 7.185 17.91s4.49 18.923 7.211 21.453 14.2-4.773 17.835-11.312c4.508-8.113 8.776-31.968-3.461-39.7s-26.038 6.425-28.77 11.649z" transform="translate(-2001.524 -673.32)" style="fill:#ef9300"/>
                        </g>
                        <path data-name="Path 1010" d="M2313.357 738.89c-9.941-2.993-20.425 4.546-22.342 14.761-1.156 6.153 7.107 12.11 11.263 16.057 4.856 4.61 3.452 15.777 6.9 17.844 3.291 1.977 11.209-8.225 13.148-12.862 4.067-9.726 5.54-31.429-8.969-35.8z" transform="translate(-2024.608 -675.612)" style="fill:#ffc41f"/>
                        <path data-name="Path 1011" d="M2512.626 831.677c6.473 5.876 4.257 24.684-4.074 32.6 8.196-10.858.4-33.513 4.074-32.6z" transform="translate(-2216.876 -758.141)" style="fill:#ffe655"/>
                    </g>
                </g>
                <path data-name="Path 1012" d="M2430.453 1244.4c4.073-2.1 12.509 22.218 2.54 36.026 1.925-11.998-6.918-33.774-2.54-36.026z" transform="translate(-2146.795 -1122.648)" style="fill:#e82a2a"/>
            </g>
        </g>
        <g data-name="Group 618">
            <path data-name="Path 1013" d="M2817.385 1924.031c-2.805-16.68 18.942-27.928 26.373-18.11 8.798 11.621-11.845 8.779-26.373 18.11z" transform="translate(-2489.479 -1703.913)" style="fill:#2ba537"/>
            <path data-name="Path 1014" d="M611.673 1568.364c8.141-15.223 24.877-10.384 25.317-1.922s-21.973-2.62-25.317 1.922z" transform="translate(-541.178 -1400.227)" style="fill:#2ba537"/>
            <path data-name="Path 1015" d="M7.1 1410.945c12.332 0 62.274 2.362 65.6 1.181s.535-11.837-1.668-19.543 17.618-32.645 21.14-41.26c-3.963 13.6-16.908 33.551-12.063 43.979s9.863 18.584 16.469 21.3 194.37-6.229 252.942 26.661c-37.873-12.9-158.2-16.851-207.023-3.368-9.688 5.894 23.844 38.287 23.844 38.287-19.82-16.321-33.247-31.159-45.578-33.425S7.1 1456.646 7.1 1456.646" transform="translate(-7.102 -1217.218)" style="fill:#bc532e"/>
            <path data-name="Path 1016" d="M2458.3 2016.39c14.737 2.764 21.607 23.019 23.369 35.109-3.523-11.789-20.168-29.274-32.1-34.738" transform="translate(-2164.763 -1804.736)" style="fill:#bc532e"/>
            <path data-name="Path 1017" d="M2849.163 2065.906c23.622-11.519 60.884 6.828 50.223 27.32s-43.525-25.603-50.223-27.32z" transform="translate(-2517.771 -1845.331)" style="fill:#2ba537"/>
            <path data-name="Path 1018" d="M1117.167 2244.443c2.535 8.579-17.259 20.543-5.426 36.991s21.502-20.194 5.426-36.991z" transform="translate(-979.578 -2006.198)" style="fill:#2ba537"/>
            <path data-name="Path 1019" d="M2803.173 2096.092c15.731 10.507 18.976 35.039 2.574 32.388s4.744-18.949-2.574-32.388z" transform="translate(-2473.757 -1875.145)" style="fill:#2ba537"/>
            <path data-name="Path 1020" d="M612.02 1174.625c1.5-3.953-20.956-19.025-12.293-26.264s19.55 5.688 13.546 24.2c4.565-8.7 15.1-25.476 25.654-17.562 12.993 9.741-21.249 15.227-24.37 18.722 15.231-2.746 20.605 12.092 12.368 13.009-7.125.79-8.045-12.455-14.905-12.105z" transform="translate(-528.864 -1036.118)" style="fill:#2ba537"/>
            <path data-name="Path 1021" d="M329.757 1590.593c-2.621-10.258-25.067-24.353-30.837-13.134-7.485 14.546 27.768 9.035 30.837 13.134z" transform="translate(-263.974 -1413.338)" style="fill:#2ba537"/>
            <path data-name="Path 1022" d="M1284.017 2345.973c20.853 4.425 42.592 26.429 26.13 38.889s-16.199-23.081-26.13-38.889z" transform="translate(-1135.125 -2095.889)" style="fill:#2ba537"/>
            <path data-name="Path 1023" d="M1204.821 2230.121c9.821 3.473 26.593-9.412 30.522.52 5.111 12.92-21.169 13.042-30.522-.52z" transform="translate(-1065.164 -1990.613)" style="fill:#2ba537"/>
            <path data-name="Path 1024" d="M2601.5 2199.156c-.489-2.584-12.173 6.308-8.078 14.616s10.272-3.022 8.078-14.616z" transform="translate(-2291.083 -1965.789)" style="fill:#2ba537"/>
            <path data-name="Path 1025" d="M2676.844 2263.533c2.168 10-10.333 21.234-.553 29.224s12.398-15.457.553-29.224z" transform="translate(-2361.71 -2023.062)" style="fill:#2ba537"/>
            <path data-name="Path 1026" d="M12.295 1518.983c-2.668 1.244 1.105 12.617 1.105 12.617l67.015 1.707s-68.942 1.817-69.492 8.577c-.108 1.327 21.3 6.189 27.463 6.262 25.247.3 72.583-10.773 85.68-9.324 9.254 1.024 28.173 28.776 30.56 29.484s-16.047-20.738-13.51-29.874c3.887-5.942 152.653-9.788 194.021 3.453-36.638-17.36-231.881-18.7-236.282-20.1s-16.674-15.625-17.255-24.693 6.669-25.689 6.669-25.689-12.269 19.134-10.991 25.941 6.691 21.487 5.609 22.631c-2.522 2.667-65.37-3.428-70.592-.992z" transform="translate(-10.48 -1323.295)" style="fill:#dd713a"/>
            <path data-name="Path 1027" d="M29.249 2099.617s102.558-14.956 110.947-14.587 14.831 12.283 14.831 12.283-7.573-6.058-16.094-6.907-109.684 9.211-109.684 9.211z" transform="translate(-26.667 -1865.367)" style="fill:#a83f2d"/>
            <path data-name="Path 1028" d="M2551.893 2044.292c6.378-1.347 14.343 11.406 16.585 21.193-5.001-9.779-21.945-20.061-16.585-21.193z" transform="translate(-2254.248 -1829.298)" style="fill:#dd713a"/>
            <path data-name="Path 1029" d="M904.523 1930.434c-14.772-.76-32.66 4.519-.034 4.878 68.95.756 60.844-1.747.034-4.878z" transform="translate(-783.638 -1728.737)" style="fill:#f98e5f"/>
            <path data-name="Path 1030" d="M2920.877 2067.786c17.886-9.62 47.458 7.514 40.862 22.079-4.869 10.744-25.1-1.694-35.549-18.23 6.781 0 20 4.65 25.47 8.929-5.25-8.864-23.114-12.777-30.783-12.778z" transform="translate(-2581.123 -1847.669)" style="fill:#3ac144"/>
            <path data-name="Path 1031" d="M2833.2 1918.355c-2.885-4.81 14.446-17.954 22.819-11.664s-11 14.352-19.932 14.635c3.023-6.225 11.131-11.51 11.131-11.51-7.287 2.03-14.018 8.539-14.018 8.539z" transform="translate(-2503.383 -1706.351)" style="fill:#3ac144"/>
            <path data-name="Path 1032" d="M2832.994 2177.248c-4.784 3.076-9.181 21.372 2.224 21.208s6.184-17.615 1.787-21.552c-.962.449 1.649 4.99-1.236 14.816-.001-6.444-2.775-14.472-2.775-14.472z" transform="translate(-2499.082 -1946.534)" style="fill:#3ac144"/>
            <path data-name="Path 1033" d="M2593.523 2230.765c-5.229 1.4-7.7 9.3-1.657 12.156s6.572-7.676 4.135-10.752c-2.349.849-4.135 7.5-4.135 7.5a17.7 17.7 0 0 1 1.657-8.904z" transform="translate(-2287.351 -1994.114)" style="fill:#3ac144"/>
            <path data-name="Path 1034" d="M2683.451 2339.188c6.453 3.975 5.673 20.451-1.9 19.745s-7.44-15.721-.706-19.745c2.335 2.767 2.473 12.671 2.473 12.671 1.644-4.669.133-12.671.133-12.671z" transform="translate(-2364.643 -2089.895)" style="fill:#3ac144"/>
            <path data-name="Path 1035" d="M1134.907 2346.284c-6.184-.62-13.055 18.77-1.649 25.558s10.726-18.669 8.111-23.767c-2.2-1.136-6.321 15.823-6.321 15.823 1.096-9.462 1.646-16.855-.141-17.614z" transform="translate(-996.529 -2096.151)" style="fill:#3ac144"/>
            <path data-name="Path 1036" d="M1359.091 2394.648c12.093 2.384 24.417 19.079 15.645 28.415s-23.834-11.375-19.053-25.281c7.667 4.2 13.164 16.227 13.164 16.227.275-8.489-9.756-19.361-9.756-19.361z" transform="translate(-1197.625 -2138.888)" style="fill:#3ac144"/>
            <path data-name="Path 1037" d="M1315.243 2241.2c8.933 7.922 20.253 4.105 19.2-3.395s-14.427-5.739-19.2 0c7.009 2.545 15.254 1.9 15.254 1.9-3.985 2.905-15.254 1.495-15.254 1.495z" transform="translate(-1162.71 -1995.926)" style="fill:#3ac144"/>
            <path data-name="Path 1038" d="M782.388 1217.543c-2.332-7.578 13.775-17.612 19.461-11.422 4.573 4.978-6.683 12.37-17.086 13.626.983-3.4 7.356-9.258 11.072-10.641-6.18.111-13.447 8.437-13.447 8.437z" transform="translate(-691.785 -1087.243)" style="fill:#3ac144"/>
            <path data-name="Path 1039" d="M616.083 1153.171c7.631-1.182 13.7 7.6 9.726 18.622-2.2-9.9-7.675-14.284-7.675-14.284 3.8 5.37 5.078 14.989 5.078 14.989-8.462-1.433-16.937-17.806-7.129-19.327z" transform="translate(-541.188 -1042.076)" style="fill:#3ac144"/>
            <path data-name="Path 1040" d="M781.147 1383.484c4.355-1.068 13.838 7.7 9.263 11.208s-11.216-6.887-10.372-8.928 6.11 2.029 7.311 4.988c.52-3.544-6.202-7.268-6.202-7.268z" transform="translate(-689.847 -1245.549)" style="fill:#3ac144"/>
            <path data-name="Path 1041" d="M668.038 1561.7c6.985-6.316 19.116-4.019 17.779 3.173s-14.143 2.138-16.661.583c1.318-1.762 8.355-4.469 11.933-2.527-3.407-3.307-13.051-1.229-13.051-1.229z" transform="translate(-590.971 -1399.808)" style="fill:#3ac144"/>
            <path data-name="Path 1042" d="M327.168 1583.626c-.944-8.068-20.361-14.515-24.577-5.9s16.733 12.277 23.062 7.823c-5.848-4.647-16.232-6.785-16.8-6.785 5.76-1.364 18.315 4.862 18.315 4.862z" transform="translate(-267.645 -1413.607)" style="fill:#3ac144"/>
            <path data-name="Path 1043" d="M3133.881 2194.828c-6.5-3.606-8.428.684-2.749 5.246s12.277.036 2.749-5.246z" transform="translate(-2763.893 -1961.179)" style="fill:#5fe065"/>
            <path data-name="Path 1044" d="M2962.936 1913.965c-6.407-2.957-10.3 3.471-4.4 5.251s12.645-1.444 4.4-5.251z" transform="translate(-2611.821 -1713.577)" style="fill:#5fe065"/>
            <path data-name="Path 1045" d="M1486.578 2495.2c-1.507-10.092-6.987-8.865-5.522-2.769s6.478 9.169 5.522 2.769z" transform="translate(-1308.971 -2221.121)" style="fill:#5fe065"/>
        </g>
        <g data-name="Group 619">
            <path data-name="Path 1046" d="M1973.969 1881.666c-.517-6.029 10.018-7.053 19.946-2.464s12.236 14.873 7.528 15.9-3.114-6.09-5.845-8.332c4.267 2.814 2.319 10.172-2.4 9.465-4.644-.7-2.655-5.7-8.189-9.737-4.175-3.053-10.953-2.632-11.04-4.832z" transform="translate(-1744.611 -1681.021)" style="fill:#ef9300"/>
            <path data-name="Path 1047" d="M2074.087 1890.659c3 4.238 3.769 8.2.733 9.11-2.015.605-2.857-7.171-5.058-8.135s-.3 1.444.482 3.248.34 5.819-2.576 5.45c-2.7-.34-3.367-8.29-7.244-10.807-8.761-5.688-.885-7.364 4.4-5.318 3.667 1.422 7.286 3.654 9.263 6.452z" transform="translate(-1817.529 -1687.226)" style="fill:#ffc41f"/>
            <path data-name="Path 1048" d="M2200.918 2004.361c1 1.458.083 5.512-2.618 5.466.631-.72-.52-3.5-.606-4.644.166-1.383 2.638-1.678 3.224-.822z" transform="translate(-1942.265 -1793.685)" style="fill:#bcb6a7"/>
            <path data-name="Path 1049" d="M2139.792 2007.19c1 1.464.085 5.515-2.616 5.467.63-.717-.521-3.5-.61-4.645.166-1.386 2.641-1.68 3.226-.822z" transform="translate(-1888.264 -1796.183)" style="fill:#bcb6a7"/>
            <path data-name="Path 1050" d="M2209.936 2013.762c1.288.031.929 2.784-.364 3.377s-1.899-3.433.364-3.377z" transform="translate(-1951.739 -1802.414)" style="fill:#e5dfd1"/>
            <path data-name="Path 1051" d="M2149.284 2017.109c1.287.034.93 2.787-.363 3.382s-1.901-3.434.363-3.382z" transform="translate(-1898.159 -1805.371)" style="fill:#e5dfd1"/>
        </g>
        <g data-name="Group 620">
            <path data-name="Path 1052" d="M1799.249 1876.015c-.036-6.941 11.363-7.913 21.63-2.438s11.861 17.344 6.719 18.437-2.822-7.065-5.56-9.7c4.338 3.32 1.616 11.743-3.391 10.838-4.927-.9-2.36-6.606-7.957-11.359-4.222-3.593-11.538-3.247-11.441-5.778z" transform="translate(-1590.279 -1675.461)" style="fill:#ef9300"/>
            <path data-name="Path 1053" d="M1908.055 1887.707c2.859 4.932 3.342 9.5.006 10.492-2.215.656-2.454-8.3-4.733-9.456s-.448 1.656.238 3.747-.135 6.7-3.233 6.213c-2.875-.444-2.9-9.6-6.851-12.568-8.919-6.716-.317-8.487 5.183-6.028 3.812 1.705 7.506 4.345 9.39 7.6z" transform="translate(-1670.117 -1683.411)" style="fill:#ffc41f"/>
            <path data-name="Path 1054" d="M2034.878 2020.7c.95 1.7-.382 6.337-3.278 6.233.739-.816-.259-4.03-.255-5.351.297-1.592 2.979-1.882 3.533-.882z" transform="translate(-1795.313 -1808.032)" style="fill:#bcb6a7"/>
            <path data-name="Path 1055" d="M1969.01 2022.742c.95 1.7-.382 6.343-3.279 6.235.739-.813-.259-4.031-.256-5.353.301-1.589 2.981-1.879 3.535-.882z" transform="translate(-1737.124 -1809.836)" style="fill:#bcb6a7"/>
            <path data-name="Path 1056" d="M2043.374 2031.61c1.378.061.759 3.22-.68 3.875s-1.747-3.985.68-3.875z" transform="translate(-1804.354 -1818.179)" style="fill:#e5dfd1"/>
            <path data-name="Path 1057" d="M1977.958 2034.266c1.379.064.759 3.222-.682 3.883s-1.744-3.988.682-3.883z" transform="translate(-1746.566 -1820.525)" style="fill:#e5dfd1"/>
        </g>
    </g>
</svg>
