<svg xmlns="http://www.w3.org/2000/svg" xmlns:xlink="http://www.w3.org/1999/xlink" width="290" height="290.044" viewBox="0 0 290 290.044">
  <defs>
    <clipPath id="clip-path">
      <circle id="Ellipse_72" data-name="Ellipse 72" cx="145" cy="145" r="145" transform="translate(69 226)" fill="#fff"/>
    </clipPath>
  </defs>
  <g id="Group_630" data-name="Group 630" transform="translate(-69 -226)">
    <g id="Group_627" data-name="Group 627" transform="translate(69.387 232.764)" opacity="0.34">
      <circle id="Ellipse_57" data-name="Ellipse 57" cx="141.64" cy="141.64" r="141.64" transform="translate(0 0)" fill="#493d65"/>
    </g>
    <g id="Mask_Group_7" data-name="Mask Group 7" clip-path="url(#clip-path)">
      <g id="Group_629" data-name="Group 629" transform="translate(60.118 24.265)">
        <path id="Path_809" data-name="Path 809" d="M93.105,259.465c-.721.145-16.707,8.209-16.707,8.209l46.371,51.989s26.786-55.158,26.355-55.013-25.491-6.48-25.491-6.48Z" transform="translate(36.108 40.574)" fill="#fff"/>
        <path id="Path_810" data-name="Path 810" d="M149.124,264.07c-.278.094-10.673-2.6-18.1-4.537,3.475,9.07.663,21.328-1.366,30-1.407,6.022-8.354,10.952-14.13,6.293-6.056-4.887-10.487-11.157-14.629-17.671-3.871-6.089-7.176-12.17-7.907-19.235-1.6.606-16.594,8.172-16.594,8.172l46.371,51.989S149.556,263.925,149.124,264.07Z" transform="translate(36.108 41.153)" fill="#5dafad" opacity="0.3"/>
        <path id="Path_811" data-name="Path 811" d="M113.847,262.245s-30.171,15.086-43.372,29.542-39.432,69.674-40.28,80.4c-2.515,31.744,59.766,9.49,59.766,9.49l-.051,67.2,144.261-.942.967-45.7s11.482-2.549,25.94-5.062,30.555-12.681,26.351-26.687c-5-16.653-23.978-66.123-45.977-83.1s-60.974-26.4-60.974-26.4-22,52.8-23.887,50.916S113.847,262.245,113.847,262.245Z" transform="translate(0.585 42.736)" fill="#2ec2bb"/>
        <path id="Path_812" data-name="Path 812" d="M88.175,297.823c-9.158,13.5-19.067,26.459-30.647,38.237-2.74,2.788-6.743,3.544-10.538,2.881-5.039,2.229-10.812.7-14.758-2.77A36.689,36.689,0,0,0,30.2,343.91c-1.932,24.381,34.327,16.914,51.269,12.136C78.078,335.6,81.436,316.309,88.175,297.823Z" transform="translate(0.585 71.013)" fill="#2c8f8a"/>
        <path id="Path_813" data-name="Path 813" d="M110.791,276.822C93.548,305.83,65.661,366.15,63.985,385.015l-.039,51.7,54.133-.352c-.783-7.507-1.5-15.037-2.1-22.581q-.814-8.461-1.126-17c-1.822-35.068-.263-70.162,9.72-103.949C120.863,288.545,115.885,282.758,110.791,276.822Z" transform="translate(26.549 54.892)" fill="#2c8f8a"/>
        <path id="Path_814" data-name="Path 814" d="M208.481,357.117l-.027-.035a49.6,49.6,0,0,1-5.391-.8c-.129,3.91-1.718,7.758-4.9,9.812a96.971,96.971,0,0,1-22.574,10.57c-7.247,2.418-14.387.232-17.947-6.89-3.067-6.132.124-15.687,6.888-17.948,3.065-1.022,6.134-2.047,9.128-3.265,1.441-.589,2.864-1.213,4.26-1.9.23-.111,1.423-.8,2.335-1.306-19.875-15.866-32.034-44.528-40.024-66.927-2.418.094-4.833.092-7.251.053a13.452,13.452,0,0,1,4.081,10.455c-.555,15.873,1.978,31.607,3.708,47.338,1.692,15.392,2.259,30.845,2.411,46.324.173,17.351-.339,34.691-.859,52.037l12.9-.087.967-45.7s11.482-2.549,25.94-5.062S212.661,371.111,208.481,357.117Z" transform="translate(79.54 56.123)" fill="#2c8f8a"/>
        <path id="Path_815" data-name="Path 815" d="M59.916,324.983c-.016-4.12-.164-7.617-4.553-9.186-3.875-1.389-10.008-.818-13.985.08-10.082,2.277-14.581,13.642-10.546,23.253,2.323,5.529,6.588,8.509,12.752,7.047C52.2,344.133,58.173,336.612,59.916,324.983Z" transform="translate(0 84.169)" fill="#2c8f8a"/>
        <path id="Path_816" data-name="Path 816" d="M99.946,421.6c-.573-16.38-1.462-32.68-.47-49.063,1.838-30.408,5.715-60.631,9.017-90.906-1.388-1.616-2.809-3.27-4.239-4.937C91.341,328.876,77.716,380.914,72.606,434.6a12.94,12.94,0,0,1-.4,2.123l28.034-.184C100.26,431.521,100.119,426.515,99.946,421.6Z" transform="translate(32.889 54.792)" fill="#2ec2bb"/>
        <path id="Path_817" data-name="Path 817" d="M143.816,260.836l1.7.566s-8.631,18.677-11.32,24.9-13.158,26.6-13.158,26.6S104.2,293.378,98.542,287.861s-21.054-25.5-21.054-25.5l1.529-.675S90.052,274.7,98.542,284.464s22.495,25.468,22.495,25.468,9.34-18.816,11.178-23.486S143.816,260.836,143.816,260.836Z" transform="translate(36.944 42.621)" fill="#0b6d64"/>
        <path id="Path_818" data-name="Path 818" d="M217.176,358.882c-.693-2.314-1.665-5.276-2.869-8.679-1.619,5.163-9.275,26.4-22.714,24.754-6.938-.848-14.243-8.168-12.5-15.61a21.133,21.133,0,0,0,.346-2.438c-.062.258-.087.09.115-.91a5.134,5.134,0,0,0-.023-.882c-.152-1.308-.451-2.577-.681-3.869-.1-.447-.21-.891-.325-1.333l-.074-.233a123.612,123.612,0,0,0-6.828-15.44c-1.393-2.625-2.862-5.211-4.385-7.765-.327-.55-1.679-2.7-1.165-1.89-.348-.553-.7-1.107-1.048-1.654-3.857-5.989-5.635-9.3-9.777-14.973a124.209,124.209,0,0,0-12.6-14.675c-.032-.032-1.806-1.745-1.914-1.874q-1.485-1.363-3.008-2.681-3.389-2.94-6.915-5.709c-3.007-2.372-6.072-4.67-9.169-6.922,1.6,7.081,2.975,14.219,4.271,21.36a630.776,630.776,0,0,1,10.1,95.391c.4,14.553.659,29.111,1.218,43.658l26.682-.175.967-45.7s11.482-2.549,25.94-5.062S221.379,372.889,217.176,358.882Z" transform="translate(70.839 54.337)" fill="#2c8f8a"/>
        <path id="Path_819" data-name="Path 819" d="M150.789,322.408s16.357-8.285,24.066,1.626c4.553,5.853,7.155,16.587,3.9,21.791a12.705,12.705,0,0,1-8.456,5.854Z" transform="translate(93.211 87.394)" fill="#2c8f8a"/>
        <path id="Path_820" data-name="Path 820" d="M143.494,243.211c-1.856-2.386-5.024,1.006-5.024,1.006s2.25-21.386-8.255-27.387-23.26-6-23.26-6-14.63,4.126-22.883,8.628c-3.419,1.867-5.934,6.885-7.712,12.122,1.409,5.874,1.951,11.838,2.793,17.846a71.323,71.323,0,0,0,1.918,9,2.625,2.625,0,0,1,1.287,1.925c1.382,8.218,5.815,18.319,13.618,22.3a2.906,2.906,0,0,1,1.8,2.95c-.638,4.313-2.864,8.036-3.772,12.26a2.929,2.929,0,0,1-.134.415c4.184,2.293,12.421,6.346,18.341,6.346,8.253,0,18.381-8.253,18.381-8.253l-6.752-12.38a45.585,45.585,0,0,0,6.378-5.628c2.252-2.627,4.923-16.345,4.923-16.345s2.3,2.172,4.179,1.045S145.929,246.345,143.494,243.211Z" transform="translate(36.078 4.234)" fill="#ffc489"/>
        <path id="Path_821" data-name="Path 821" d="M111.964,225.775c-2.512-2.681-8.736-1.329-11.4,1.154-4.308,4.014-2.225,6.779,1.152,7.328,2.3.375,5.762.746,8.7-1.043C113.556,231.3,116.057,230.143,111.964,225.775Z" transform="translate(52.793 14.581)" fill="#f7893e" opacity="0.5"/>
        <g id="Group_572" data-name="Group 572" transform="translate(107.445 222.975)">
          <path id="Path_822" data-name="Path 822" d="M126.006,280.546s1.907-1.388,3.837-3.1c-.382.286-.776.555-1.186.808a27.693,27.693,0,0,1-10.344,5.009c-4.334.8-9.142.276-9.3-4.613-.113-3.579,2.678-5.921,5.906-6.62,2.058-.444,10.07-.762,6.162-5-1.909-2.068-6.347-2-8.767-3.45-2.977-1.785-2.8-3.378-1.815-6.392-.744-.15-4.873-2.088-5.221-3.482,0,0,5.221-5.918,1.419-19.24-1.8-6.317-12.939.35-17.536,3.627-8.112,5.785-5.287-16.981-1.55-22.783-.472.237-.937.468-1.372.714-14.254,8-4.981,28.63-4.981,28.63s-2.194-5.3-5.57-4.175-2.224,6.931-.348,12.184,4.005,7.659,5.918,7.659c1.393,0,2.438-1.743,2.438-1.743s3.48,14.97,5.57,17.059c3.194,3.194,9.354,6.04,9.354,6.04L93.368,293.3s12.757,7.878,21.01,7.878,18.381-8.253,18.381-8.253ZM87.388,256.077a7.5,7.5,0,0,1-.944-9.43c1.7-2.522,3.928-3.266,6.913-1.884C104.044,253.249,98.971,268.3,87.388,256.077Z" transform="translate(-73.535 -215.304)" fill="#fdb177"/>
        </g>
        <g id="Group_573" data-name="Group 573" transform="translate(112.204 222.975)" opacity="0.2">
          <path id="Path_823" data-name="Path 823" d="M93.557,278.3a123.612,123.612,0,0,1-5.112-19.044c-.034-.166-.071-.327-.106-.491a21.8,21.8,0,0,1-3.017-2.685,7.5,7.5,0,0,1-.944-9.43,7.366,7.366,0,0,1,1-1.2,64.594,64.594,0,0,1-.944-6.487c-4.67-.864-2.125-18.629,1.115-23.658-.472.237-.937.47-1.372.714-13.75,7.716-5.61,27.181-5.016,28.549a10.236,10.236,0,0,0-2.284-3.256,19.8,19.8,0,0,1,3.615,9.029,28.052,28.052,0,0,1,.286,2.819c.092.362.191.73.277,1.085a22.717,22.717,0,0,1,.631,4.553c.43,1.821,3.572,14.892,5.517,16.835a32.2,32.2,0,0,0,6.924,4.8C93.931,279.723,93.747,279.012,93.557,278.3Z" transform="translate(-76.227 -215.304)" fill="#f88c4c"/>
        </g>
        <path id="Path_824" data-name="Path 824" d="M112.816,228.376c-.748-5.609-6.091-5.043-10.181-3.578-1.713.613-5.264,1.808-5.264,1.808-.477,1.759,1.009,3.122,1.52,2.811,2.644-1.594,11.246-4.3,13.925-1.041Z" transform="translate(52.135 14.198)" fill="#6d3812"/>
        <path id="Path_825" data-name="Path 825" d="M83.885,228.573c.748-5.609,6.091-5.043,10.181-3.578,1.713.613,5.264,1.808,5.264,1.808.477,1.759-1.008,3.122-1.52,2.812-2.646-1.6-11.246-4.3-13.925-1.043Z" transform="translate(41.855 14.349)" fill="#6d3812"/>
        <path id="Path_826" data-name="Path 826" d="M98.5,229.9a5.228,5.228,0,0,1,4.622-2.563c2.487.156,5.131,2.955,5.131,2.955a6.894,6.894,0,0,1-4.509,2.02C99.787,232.624,98.5,229.9,98.5,229.9Z" transform="translate(53.071 16.901)" fill="#fff"/>
        <path id="Path_827" data-name="Path 827" d="M94.9,230.915s-2.036-3.634-5.817-2.036c-3.535,1.5-3.781,3.491-3.781,3.491a7.115,7.115,0,0,0,5.381,1.018C94.022,232.806,94.9,230.915,94.9,230.915Z" transform="translate(42.939 17.779)" fill="#fff"/>
        <path id="Path_828" data-name="Path 828" d="M102.756,228.639a.778.778,0,1,1-.778-.779A.779.779,0,0,1,102.756,228.639Z" transform="translate(55.146 17.309)" fill="#fff"/>
        <path id="Path_829" data-name="Path 829" d="M89.878,229.675a.727.727,0,1,1-.727-.726A.725.725,0,0,1,89.878,229.675Z" transform="translate(45.338 18.145)" fill="#fff"/>
        <path id="Path_830" data-name="Path 830" d="M87.666,243.029c.682-.136,9.14-1.909,10.369-1.639a11.026,11.026,0,0,0,3,.548c1.5-.136,1.637-.682,3.684-.955s9.276.546,9.276.546-4.774,6.547-12.822,7.093C93.531,249.142,87.666,243.029,87.666,243.029Z" transform="translate(44.757 27.34)" fill="#ce4a21" opacity="0.5"/>
        <path id="Path_831" data-name="Path 831" d="M88.824,242.884s9.027-.355,11.733-.412,11.049-.818,11.049-.818-6.413,4.094-11.322,4.094S88.824,242.884,88.824,242.884Z" transform="translate(45.646 27.897)" fill="#fff"/>
        <path id="Path_832" data-name="Path 832" d="M67.407,337.745l.35-.074c1.976,1.236,14.431,13.471,12.7,19.154s-9.142,6.673-8.4,7.166,11.309,6.623,12.106,13.094c.606,4.935-2.966,6.92-6.671,3.954s-21.5-17.049-21.5-17.049l.742-23.969c6.643-1.418,13.091-1.649,15.574-9.181,2.2,2.128,1.9,12.905-1.319,14.127Z" transform="translate(20.446 96.358)" fill="#af6833"/>
        <path id="Path_833" data-name="Path 833" d="M64.946,354.534c-.175-.051,8.311-7.983,7.638-18.636-.235-3.684-4.776-4.748-8.1-5.128-4.005-.46-6.743,2.068-7.007,6.13-.193,2.952,1.517,7,2.7,9.614C61.014,348.346,62.814,353.012,64.946,354.534Z" transform="translate(21.573 96.262)" fill="#f4cf98"/>
        <path id="Path_834" data-name="Path 834" d="M83.776,375.571c-.071.281-.147.557-.232.825a.9.9,0,0,1-1.128.626,1.037,1.037,0,0,1-2.033-.032c-.005-.044,0-.088-.009-.133-.6.689-2.01.362-1.821-.742.117-.668.256-1.345.343-2.024A33.972,33.972,0,0,1,75.135,370c-3.107-3.523-7.578-4.739-11.588-6.9a2.655,2.655,0,0,1,.037-4.654,2.152,2.152,0,0,1,.265-.187,2.351,2.351,0,0,1-.133-3.73c3.1-2.572,8.713.739,12.518,3.442a9.343,9.343,0,0,0,3.951-4.285c-2.667,3.484-8.223,1.092-11.092-1.184-4.589-3.639-8.242-8.492-11.565-13.271a2.48,2.48,0,0,1,.449-3.346l-1.241.263-.741,23.969s17.791,14.084,21.5,17.049c3.093,2.476,6.079,1.488,6.632-1.773A2.015,2.015,0,0,1,83.776,375.571Z" transform="translate(20.446 100.23)" fill="#a35928"/>
        <path id="Path_835" data-name="Path 835" d="M55.986,306.01c-1.313-.645-3.645.666-2.945,2.326,1.209,2.865,3.343-.857,3.44-2.326Z" transform="translate(18.08 77.169)"/>
        <path id="Path_836" data-name="Path 836" d="M75.869,316.715c10.27-2.5,26.557,1.842,28.768,13.989.461,2.54-.629,6.535-3.9,6.282-2.522-.2-4.7-4.52-6.632-6.033-5.336-4.182-9.077-4.518-15.774-4.5-3.979,5.966-3.719,12.919-8.32,18.721-2.452,3.09-7.611,5.7-11.493,4.014-5.571-2.418-4.043-9.547-2.644-14.063s2.726-8.988,3.919-13.554c.776-2.966.679-6.208,4.03-7.079,2.865-.746,6.991.106,9.655,1.244C74.736,316.272,75.038,316.917,75.869,316.715Z" transform="translate(19.351 83.591)" fill="#a35928"/>
        <path id="Path_837" data-name="Path 837" d="M37.61,324.15c-3.39,2.98-8.948,8.753-5.807,18.175S48.1,353.795,71.09,354.792c15.481.675,35.646-7.305,36.992-7.981s10.931-19.495,10.931-19.495.391-7.975-2.172-10.945c-7.9-9.158-10.622-7.659-11.475-6.423-.831-.5-2.947-.1-2.126,1.439-2.4.666-1.294,2.091,1.81,7.615a2.905,2.905,0,0,1-2.669,4.433c-2.245-.226-.092-2.936-.279-5a4.57,4.57,0,0,0-3.067-3.9l-4.189,6.477.224,13.013s-29.526-1.649-36.351-8.373C51.3,318.344,40.472,321.635,37.61,324.15Z" transform="translate(1.164 79.608)" fill="#ffc489"/>
        <path id="Path_838" data-name="Path 838" d="M118.08,316.882c.164,2.029-2.985,3.173-3.958.983-1.022-2.3-4.092-5.251-5.95-6.77a40.22,40.22,0,0,1,4.106,5.685c1.29,2.335-1.248,4.315-2.526,2-1.267-2.293-3.024-5.361-5.37-7.053.665.707,3.51,4.781,3.79,6.317.449,2.468-3.632,4.985-5.876,4.758s.129-3.374-.058-5.434a4.457,4.457,0,0,0-.688-2.042,8.26,8.26,0,0,1-3.912,5.236,2.525,2.525,0,0,1-.882.288,1.921,1.921,0,0,0-1.547,2.107l1.188,14.6c0,6.229-13.595,11.327-44.18,6.8-5.81-.861-18.123-5.1-20.95-12.5a17.827,17.827,0,0,0,.672,9.4c3.139,9.423,15.58,12.053,38.6,11.774,16.467-.2,36.338-6.613,37.684-7.288s10.758-20.015,10.758-20.015A25.534,25.534,0,0,0,118.08,316.882Z" transform="translate(1.199 81.201)" fill="#fdb177"/>
        <path id="Path_839" data-name="Path 839" d="M85.17,319.371a28.3,28.3,0,0,0-5.83,8.218c-2.119,4.767-4.377,11.645-4.377,11.645a63.216,63.216,0,0,0,5.439-9.262C82.255,325.733,85.17,319.371,85.17,319.371Z" transform="translate(35.007 87.553)" fill="#f88c4c"/>
        <g id="Group_575" data-name="Group 575" transform="translate(107.782 290.561)">
          <path id="Path_840" data-name="Path 840" d="M109.406,313.247c-3.424-2.842-6.365-4.866-7.926-9.262-2.628-7.4-3.489-15.159-6.659-22.45-2.015-4.638-4.709-11.283-9.844-13.354.647-5.131,6.229-8.469,11.364-10.668.106-.3,1.1-3.438,1.1-3.438-1.474.608-2.927,1.267-4.348,1.992-4.834,2.459-10.105,5.92-10.9,11.5-14.385-1.059-6.664,26.136-4.085,32.25,2.247,5.333,4.218,9.837,2.066,15.543-1.112,2.945-2.848,5.644-2.287,8.937,1.168,6.865,8.962,8.237,14.664,8.737,1.815.159,1.875-2.671.067-2.828-3.507-.308-8.122-.6-10.538-3.59-2.934-3.627-.573-7,.8-10.441,1.784-4.456,1.319-8.573-.325-13-2.066-5.566-4.532-10.726-5.446-16.66-.511-3.32-.96-7.221-.258-10.579a9.625,9.625,0,0,1,1.011-3.016c1.72-2.722,6.514-2.4,8.652-.274,3.97,3.949,6.312,10.9,8.044,16.043,1.621,4.813,2.31,9.821,3.754,14.669a18.69,18.69,0,0,0,6.1,9.626c1.852,1.524,4.09,2.726,5.444,4.76a6.539,6.539,0,0,1-3.449,9.884c-1.708.585-1.039,3.335.688,2.743a9.683,9.683,0,0,0,6.7-10.622C113.339,316.972,111.5,314.983,109.406,313.247Z" transform="translate(-73.725 -253.129)"/>
          <g id="Group_574" data-name="Group 574" transform="translate(24.201)">
            <path id="Path_841" data-name="Path 841" d="M128.375,264.853A50.519,50.519,0,0,0,111.1,253.54l2.033,3.74a40.477,40.477,0,0,1,15.831,12.654c9.4,12.787,2.689,27.8-5.913,38.9-8.949,11.546-18.708,22.526-28.075,33.733-1.168,1.4.946,3.277,2.116,1.879l19.232-23c5.147-6.157,10.623-12.221,14.666-19.194C138.167,289.859,138.568,275.621,128.375,264.853Z" transform="translate(-81.879 -253.54)"/>
            <path id="Path_842" data-name="Path 842" d="M88.61,308.1l10.984-4.189,2.116,1.879s.46,8.537-.288,8.407S88.61,308.1,88.61,308.1Z" transform="translate(-86.501 -214.877)"/>
            <path id="Path_843" data-name="Path 843" d="M100.936,315.984c-.748-.133-13.519-6.476-13.519-6.476l2.109-3.229,12.812,6.1Z" transform="translate(-87.417 -213.058)" fill="#726051"/>
          </g>
        </g>
        <path id="Path_844" data-name="Path 844" d="M91.508,228.808a3.894,3.894,0,0,0-2.416.016,7.129,7.129,0,0,1-.788.318,3.747,3.747,0,0,1-.776.163,5.72,5.72,0,0,1-1.045.272c-.087.016-.028,3.76,3.019,3.47,3.525-.336,2.574-3.579,2.183-4.14C91.406,228.886,91.812,228.93,91.508,228.808Z" transform="translate(43.833 17.893)" fill="#91450c"/>
        <path id="Path_845" data-name="Path 845" d="M100.156,228.05a1.214,1.214,0,0,0-.479.491c-.728,1.9,1.029,3.242,2.851,3.242a2.716,2.716,0,0,0,2.63-3.074C103.278,228.181,102.06,227.026,100.156,228.05Z" transform="translate(53.847 17.14)" fill="#91450c"/>
        <path id="Path_846" data-name="Path 846" d="M90.075,230.348a1.342,1.342,0,1,1-1.342-1.343A1.34,1.34,0,0,1,90.075,230.348Z" transform="translate(44.547 18.188)" fill="#1c0b00"/>
        <path id="Path_847" data-name="Path 847" d="M103.081,229.272a1.343,1.343,0,1,1-1.343-1.343A1.344,1.344,0,0,1,103.081,229.272Z" transform="translate(54.527 17.362)" fill="#1c0b00"/>
        <g id="Group_576" data-name="Group 576" transform="translate(131.099 247.585)">
          <path id="Path_848" data-name="Path 848" d="M88.372,229.953a.727.727,0,1,1-.728-.727A.729.729,0,0,1,88.372,229.953Z" transform="translate(-86.917 -229.227)" fill="#fff"/>
          <path id="Path_849" data-name="Path 849" d="M89.456,230.466a.447.447,0,1,1-.447-.449A.445.445,0,0,1,89.456,230.466Z" transform="translate(-85.654 -228.621)" fill="#fff"/>
        </g>
        <g id="Group_577" data-name="Group 577" transform="translate(154.028 245.907)">
          <circle id="Ellipse_71" data-name="Ellipse 71" cx="0.727" cy="0.727" r="0.727" fill="#fff"/>
          <path id="Path_850" data-name="Path 850" d="M102.428,229.516a.447.447,0,1,1-.447-.449A.445.445,0,0,1,102.428,229.516Z" transform="translate(-98.626 -227.671)" fill="#fff"/>
        </g>
        <path id="Path_851" data-name="Path 851" d="M98.5,230.075s1.564-3.189,4.472-2.964,3.523.953,4.251,1.566a5.708,5.708,0,0,1,1.23,1.791,8.706,8.706,0,0,0-5.481-1.677A8.863,8.863,0,0,0,98.5,230.075Z" transform="translate(53.071 16.725)" fill="#ffc78f"/>
        <path id="Path_852" data-name="Path 852" d="M94.991,231.169c-.371-.463-.437-1.181-.891-1.677a3.617,3.617,0,0,0-1.959-1.273,6.3,6.3,0,0,0-5.4,1.326,5.634,5.634,0,0,0-1.036,1.626c-.175.387-.209,1.266-.493,1.5.129-.672,1.038-1.382,1.559-1.776a5.6,5.6,0,0,1,2.848-1.184,8.622,8.622,0,0,1,3.079.012A7.167,7.167,0,0,1,94.991,231.169Z" transform="translate(42.874 17.477)" fill="#ffc78f"/>
        <path id="Path_853" data-name="Path 853" d="M85.886,232.228a6.17,6.17,0,0,1,3.583-2.5,8.091,8.091,0,0,1,2.973-.064c.836.189,1.308.838,2.158.953.2.025.392-.122.309-.309-.672-1.5-3.91-1.706-5.252-1.5a7.929,7.929,0,0,0-3.016,1,3.368,3.368,0,0,0-1.582,2.072c-.088.47.58.836.825.346Z" transform="translate(42.751 17.987)" fill="#6d3812"/>
        <path id="Path_854" data-name="Path 854" d="M98.7,229.954c1.462-.474,2.376-1.213,4.048-1.262a8.154,8.154,0,0,1,2.869.281,12.905,12.905,0,0,0,2.333,1c.179.027.368-.1.308-.309-.587-1.985-3.654-2.088-5.3-2.026a6.862,6.862,0,0,0-4.545,1.831c-.232.186.019.575.286.488Z" transform="translate(52.941 17.127)" fill="#6d3812"/>
        <path id="Path_855" data-name="Path 855" d="M60.877,305.011c.3-2.148-1.6-3.7-3.548-4.165-3.267-.771-6.13,2.438-8.2,5.547-3.049,4.571-7.6,8.987-9.9,13.81-.018.035-.055.053-.019.072,2.446,1.366,7.394,3.1,10.293,2.4,1.936-.463,3.408-2.522,4.771-3.781-2.708,1.707-3.991,6.894-4.516,9.98,5.389,3.411,8.642,4.442,14.583,5.511,3.083.555,11.21.808,14.12.293,3.162-.985,7.532-2.925,9.223-4.269,5-3.974,6.056-9.087,8.108-12.267-2.42-5.531-7.245-5.771-7.929-7.93,2.681,1.61,11.732,3.436,16.916-.711-1.63-5.008-13.748-9.835-18.859-12.288-3.82-1.833-8.3-.8-8.485,3.9C71.286,301.269,66.263,301.3,60.877,305.011Z" transform="translate(7.545 69.893)" fill="#c17b3d"/>
        <path id="Path_856" data-name="Path 856" d="M60.91,306.748c-.578-2.756-3.221-3.335-5.653-2.779-3.033.691-5.386,3.125-3.2,6.119,1.1,1.5,2.68,2.673,4.624,2.406C60.671,311.945,61.1,307.647,60.91,306.748Z" transform="translate(16.769 75.584)" fill="#f4cf98"/>
        <path id="Path_857" data-name="Path 857" d="M104.242,309.16a4.943,4.943,0,0,0-.468-1.006c-8.866,2.31-21.027-3.544-24.845-11.339a4.666,4.666,0,0,0-2.029,3.961c-2.077.048-4.023.087-5.9.258,4.887-.322,8.363,3.816,11.868,7.189,2.9,2.791,9.674,7.583,4.362,11.641-4.461,3.408-10.063,1.322-14.13-1.837-3.9,4.117-8.562,10.478-14.554,7.435-3.323-1.69-3.5-7.208-1.672-10.4,2.848-4.971,5.564-11.161,11.334-13.4a9.714,9.714,0,0,1,2.128-.564,20.566,20.566,0,0,0-9.983,3.567c.279-1.985-1.324-3.45-3.109-4.028-1.439,9.091-6.97,18.385-16.637,19.732-.244.051-.479.12-.726.161,2.63,1.213,6.607,2.4,9.091,1.8a6.949,6.949,0,0,0,3.106-2.086c-1.6,2.321-2.448,5.918-2.851,8.285,5.389,3.412,8.642,4.442,14.583,5.511,3.083.555,11.21.808,14.12.293,3.162-.985,8.582-2.335,10.012-3.954,3.857-4.359,5.266-9.4,7.32-12.582-2.42-5.531-7.245-5.771-7.929-7.93C90.007,311.481,99.057,313.307,104.242,309.16Z" transform="translate(8.073 70.239)" fill="#a35928"/>
        <path id="Path_858" data-name="Path 858" d="M49.7,324.47a13.279,13.279,0,0,0,6.858,1.435c.237,3.813,1.474,7.788.944,11.7-1.069,7.9,6.6,8.723,8.447,3.035,1.561-4.806.26-14.222-1.043-18.346-.638-2.019-1.274-3.94-3.44-4.751-3.749-1.405-6.563-2.287-8.4-2.407C52.786,315.973,49.7,324.47,49.7,324.47Z" transform="translate(15.613 84.305)" fill="#c17b3d"/>
        <path id="Path_859" data-name="Path 859" d="M63.035,340.787a4.944,4.944,0,0,1-.516.8c-.668.813-2-.141-1.331-.956.166-.2-.315-.246-.585,0-.778.718-1.812-.553-1.041-1.266a6.7,6.7,0,0,0,.658-.707,3.587,3.587,0,0,1-.38-2.931,29.484,29.484,0,0,0,.578-10.652c-.573-5-3.742-5.835-7.924-7.408a3.887,3.887,0,0,1-.78-.4c-.939,2.6-2.015,5.563-2.015,5.563a60.587,60.587,0,0,0,6.979,1.787c.237,3.813,1.354,7.436.824,11.352-.857,6.325,3.869,8.09,6.743,5.633A.848.848,0,0,1,63.035,340.787Z" transform="translate(15.613 85.941)" fill="#a35928"/>
        <path id="Path_860" data-name="Path 860" d="M61.453,306.34c-2.257,2.012-8.5,6.344-7.627,10.033.972,4.131,9.384,4.746,12.485,6.434.877-3.334,4.827-4.359,5.87-7.83C74.344,307.77,64.808,307.59,61.453,306.34Z" transform="translate(18.718 77.551)"/>
        <path id="Path_861" data-name="Path 861" d="M58.356,316.482a10.212,10.212,0,0,0,6.043.836c4.458-.88,7.067-5.455,6.477-7.249-2.323-2.512-7.587-2.867-9.906-3.73-1.524,1.358-4.859,3.777-6.6,6.339C54.966,314.335,57.244,315.963,58.356,316.482Z" transform="translate(19.2 77.551)" fill="#544c47" opacity="0.5"/>
        <path id="Path_862" data-name="Path 862" d="M62.256,309.1c-.233-1.994-4.64-1.384-4.886.548-.279,2.2,5.1,1.467,4.64-1.538Z" transform="translate(21.494 78.724)" fill="#544c47"/>
        <path id="Path_863" data-name="Path 863" d="M52.281,342.628s-4.447,5.93-2.469,9.884,4.693,4.693,4.693,4.693-16.7,3.486-17.388,19.732c-.352,8.28,3.966,15.79,9.678,13.133,2.554-1.19,1.7-3.746,1.16-9-1.382-13.473,10.751-16.2,10.751-16.2l.742,5.681a18.462,18.462,0,0,1,13.342,4.942c6.178,5.683,7.935,8.9,11.861,6.917,3.751-1.893,3.952-5.188-.247-9.386a70.759,70.759,0,0,0-9.39-7.661s6.918-2.224,7.166-6.425S76,343.369,76,343.369l-2.073-8.748s-7.228.43-9.517.346c-2.169-.079-7.958-.346-7.958-.346Z" transform="translate(5.94 99.259)" fill="#c17b3d"/>
        <path id="Path_864" data-name="Path 864" d="M84.13,380.39a1.06,1.06,0,0,1-1.448.235,1.035,1.035,0,0,1-.2-.221c-.028.187-.057.373-.1.562a1.046,1.046,0,0,1-1.34.6,1.073,1.073,0,0,1-.6-1.34,3.543,3.543,0,0,0,.094-.85,3.367,3.367,0,0,1-.613,1.472c-.8,1.068-2.487-.143-1.685-1.211a2.852,2.852,0,0,0,.087-2.483c-4.354-3.32-7.61-7.173-13.683-8.188a2.533,2.533,0,0,1-1.6-3.94,2.049,2.049,0,0,1,2.415-1.407c2.471.423,5.1.771,7.608,1.409,1.874-.762,6.077-2.825,6.268-6.088a7.427,7.427,0,0,0-.212-1.948c-3.284,5.333-10.515,3.908-15.233.847-5.2-3.373-8.119-9.794-8.81-15.8-.2-1.718.523-5.168.778-7.235l-2.248-.175-4.172,8.007s-4.447,5.93-2.469,9.884,4.693,4.693,4.693,4.693-.223.049-.6.152a3.874,3.874,0,0,1-1.108,5.87c-3.454,1.852-6.772,4.677-8.182,8.451-1.016,2.717-.41,5.176,0,7.967.529,3.583.992,7.822-.955,10.888a5.121,5.121,0,0,0,3.136-.463c2.554-1.19,1.7-3.746,1.161-9-1.384-13.473,10.749-16.2,10.749-16.2l.742,5.681a18.462,18.462,0,0,1,13.342,4.942c6.178,5.683,7.935,8.9,11.861,6.917a5.422,5.422,0,0,0,2.377-2.089C84.16,380.34,84.149,380.367,84.13,380.39Z" transform="translate(8.789 99.259)" fill="#a35928"/>
        <g id="Group_579" data-name="Group 579" transform="translate(172.995 322.444)">
          <path id="Path_865" data-name="Path 865" d="M135.972,336.181c-1.255,1.884-6.913,15.085-1.255,20.114a29.612,29.612,0,0,0,13.2,6.286s-13.446,12.432-11.574,17.733c1.686,4.776,7.394,4.681,10.535.279S169.29,361.95,169.29,361.95l-11.944-27.028Z" transform="translate(-94.018 -222.954)" fill="#e2a049"/>
          <path id="Path_866" data-name="Path 866" d="M155.643,334.922l-14.279.838a7.764,7.764,0,0,1,1.122,1.891c1.665,4.041.028,7.687.035,11.748.012,6.5,6.279,6.111,9.193,10.436,2.42,3.592.161,7.571-2.574,10.224-2.135,2.07-4.8,3.526-6.549,5.971-1.018,1.416-2.9,2.455-2.712,4.615.087,1.02-.154,1.967-.933,1.3a4.166,4.166,0,0,1-1.013-1.327c.055.279.11.559.163.84.191,1.013-1.391,1.248-1.58.24-.087-.46-.179-.914-.26-1.366a.786.786,0,0,1-1.366-.115,2.747,2.747,0,0,1-.2-1.267c-.067-.057-.14-.106-.205-.166a3.613,3.613,0,0,0,.154,1.531c1.686,4.776,7.394,4.681,10.535.279s22.413-18.641,22.413-18.641Z" transform="translate(-92.315 -222.954)" fill="#cc852f"/>
          <path id="Path_867" data-name="Path 867" d="M143.712,339.572s-6.915,10.684.627,16.971,13.377,10.639,13.377,10.639-2.529,1.966-8.85,7.585c-5.734,5.1-11.093,13.342-5.478,16.435,2.112,1.165,6.515.331,9.9-3.342,4.292-4.665,20.587-18.993,20.587-18.993s-6.273-22.381-6.273-20.5,13.83,11.314,27.03,6.915,15.714-18.229,11.314-20.115-6.224-.018-7.91,5.6c-2.409,8.032-7.587,7.023-11.94,6.742-6.273-.4-12.836-9.828-12.836-9.828Z" transform="translate(-87.439 -223.308)" fill="#e2a049"/>
          <path id="Path_868" data-name="Path 868" d="M205.689,335.012c-.32-.136-.62-.247-.914-.346a20.729,20.729,0,0,1-.737,3.169c-1.522,4.873-3.751,8.642-8.244,11.283-9.681,5.693-26.33.947-27.571-11.284l-5.812.369a2.855,2.855,0,0,1,.111,1.036,69.353,69.353,0,0,0-.373,12.308c.276,2.855,1.071,5.632,1.306,8.493a18.963,18.963,0,0,1-.249,4.962,15.2,15.2,0,0,1-.2,2.367c-.905,5.441-4.962,9.192-8.716,12.858-2.445,2.383-7.648,7.164-7.9,9.368-.117,1.022-1.061,1.6-1.458.651a8.391,8.391,0,0,1-.456-1.5c-.1,0-.194.012-.286.009.007.325.016.652.018.976.007,1.025-1.582.841-1.589-.175,0-.384-.007-.762-.009-1.138-.03-.012-.064-.019-.09-.034,0,.074,0,.149,0,.223,0,.8-.949.857-1.379.368a4.379,4.379,0,0,0,1.989,2.073c2.112,1.165,6.515.331,9.9-3.344,4.292-4.663,20.587-18.991,20.587-18.991s-4.389-15.659-5.823-19.672c2.457,2.9,14.765,10.029,26.579,6.091C207.575,350.728,210.089,336.9,205.689,335.012Z" transform="translate(-87.186 -223.15)" fill="#cc852f"/>
          <path id="Path_869" data-name="Path 869" d="M115.7,297.773c1.568-4.6,5.83-7.974,8.059-12.193,1.411-2.674,2.035-5.294,3.765-7.779,3.178-4.568,12.181-7.079,17.892-5.957,6.165,1.211,10.219,9.837,15.279,13.393,2.443,1.713,9.167,5.213,10.1,8.449,1.253,4.368-5.488,13.489-7.383,16.98-5.209,9.612-9.5,8.628-18.4,10.081-5.5.9-6.791-.369-10.448-3.719C128.178,311.182,119.354,310.077,115.7,297.773Z" transform="translate(-106.716 -271.577)" fill="#e2a049"/>
          <path id="Path_870" data-name="Path 870" d="M136,320.436a19.293,19.293,0,0,0-8.1-5.4c-7.542-2.515-10.993,1.421-13.508,7.708-3.8,9.5-6.286,22.629.629,24.515s11-17.915,11-17.915l8.009,14.8s-2.491,1.225-7.834,7.2c-7.511,8.4-14.187,14.208-8.974,17.607,7.229,4.714,8.8-.629,15.087-5.658s17.39-11.525,17.39-11.525a75.049,75.049,0,0,0,23.817.635c12.693-1.8,18.4-3.967,15.772-10.054-2.367-5.494-7.634-11.428-11.406-18.972-7.935-15.871-9.821-24.121-13.828-27.658-6.141-5.416-22.062-7.184-28.287,5.658C132,309.148,136,320.436,136,320.436Z" transform="translate(-110.586 -256.196)" fill="#e2a049"/>
          <path id="Path_871" data-name="Path 871" d="M138.355,319.3c1.985-3.327-.758-7.806-3.168-11.569.424,1.759.817,2.869.817,2.869a19.293,19.293,0,0,0-8.1-5.4c-7.542-2.515-10.993,1.421-13.508,7.708-3.8,9.5-6.286,22.629.629,24.515s11-17.915,11-17.915l6.5,5.867a5.284,5.284,0,0,1,3.023-4.739c.889-.451,1.817-.873,2.77-1.262C138.33,319.348,138.341,319.323,138.355,319.3Z" transform="translate(-110.586 -246.36)" fill="#cc852f"/>
          <path id="Path_872" data-name="Path 872" d="M150.463,332.572c2.012-3.682,5.343-10.33,1.99-13.33-3.933-3.519-10.664-.665-14.542,1.308a5.937,5.937,0,0,1-1.144.445l.049.044a48.008,48.008,0,0,0-11.944,9.428c-7.512,8.4-14.954,15.147-9.743,18.546,7.229,4.714,8.8-.629,15.087-5.658s17.812-11.208,17.812-11.208A7.225,7.225,0,0,1,150.463,332.572Z" transform="translate(-108.493 -236.267)" fill="#cc852f"/>
          <path id="Path_873" data-name="Path 873" d="M170.244,346.1c-2.367-5.49-10.811-16.294-14.583-23.838-7.935-15.871-9.821-24.121-13.828-27.658a13.2,13.2,0,0,0-2.222-1.557c5.43,19.113,11.638,38.239,13.8,58.029C164.527,349.281,170.244,346.1,170.244,346.1Z" transform="translate(-88.365 -255.093)" fill="#cc852f"/>
          <path id="Path_874" data-name="Path 874" d="M166.194,329.086a70.874,70.874,0,0,1-5.161-8.6c-6.434-12.87-8.891-20.725-11.726-25.123A39.214,39.214,0,0,0,135.455,306.3c-4.263,7.463-3.975,17.476,2.538,23.592C145.932,337.342,158.22,335.964,166.194,329.086Z" transform="translate(-93.737 -253.316)" fill="#ad652f"/>
          <path id="Path_875" data-name="Path 875" d="M155.453,295.055c.11.163,1.6,2.531,1.6,2.531a26.792,26.792,0,0,1-15.313,7.933c-9.473,1.266-17.68-2.038-17.68-2.2s.5-1.817.827-2.973a12.986,12.986,0,0,1,.771-2.038s6.869,2.986,13.658,2.369C146.585,300.01,155.453,295.055,155.453,295.055Z" transform="translate(-100.303 -253.556)" fill="#1200ff"/>
          <path id="Path_876" data-name="Path 876" d="M129.581,305.861a17.81,17.81,0,0,0-1.677-.663c-7.542-2.515-10.993,1.421-13.508,7.708-3.8,9.5-6.286,22.629.629,24.515s11-17.915,11-17.915l1.95,1.759A42.68,42.68,0,0,1,130.5,308.06Q130.046,306.959,129.581,305.861Z" transform="translate(-110.586 -246.36)" fill="#ad652f"/>
          <g id="Group_578" data-name="Group 578" transform="translate(6.537 6.987)">
            <path id="Path_877" data-name="Path 877" d="M122.8,289.974c1.743-6.758,7.092-10.4,12.868-5.061,1.511-6.51,9.218-5.907,12.527-1.19,1.19,1.7,2.165,4.811-.732,5.023-2,.149-2.192-1.023-4.649-.451-5.556,1.3,2.667,7.526,4.854,9.253,4.88,3.846,4.384,6.351,4.433,10.629.051,4.488-6.02,7.412-11.445,8.214a13.89,13.89,0,0,1-14.9-8.035c-1.1-2.482-.659-4.675,2.476-9.185,2.139-3.083,4.742-6.142,1.727-8.361-2.141-1.575-2.21-.384-3.889.861C125.032,292.445,122.69,292.068,122.8,289.974Z" transform="translate(-107.808 -272.018)" fill="#f2b368"/>
            <path id="Path_878" data-name="Path 878" d="M147.727,290.506c-.758,5.594-3.8,10.234-10.7,11-4.525.507-10.038-1.38-12.63-5.1a5.522,5.522,0,0,0,.311,3.96,13.891,13.891,0,0,0,14.9,8.035c5.425-.8,11.5-3.726,11.445-8.214C151.005,296.277,151.407,293.845,147.727,290.506Z" transform="translate(-106.756 -264.034)" fill="#c67f30"/>
            <path id="Path_879" data-name="Path 879" d="M123.733,290.237s-.249-4.426,2.692-4.909c2.215-.364,3.433,2.031,3.433,2.031s.334,2.542-2.994,3.666A3.262,3.262,0,0,1,123.733,290.237Z" transform="translate(-107.094 -268.038)" fill="#040404"/>
            <path id="Path_880" data-name="Path 880" d="M140.009,288.275s-.483-4.408-3.463-4.4c-2.247.009-3.051,2.568-3.051,2.568s.088,2.563,3.556,3.123A3.26,3.26,0,0,0,140.009,288.275Z" transform="translate(-99.597 -269.123)" fill="#040404"/>
            <path id="Path_881" data-name="Path 881" d="M126.126,278.467c.035-.288-10.876,7.979-11.735,13.441-.6,3.818,2.605,8.492,4.6,11.507,2.238,3.374,9.252,10.88,10.9,9.232,1.667-1.667-3.8-11.7-3.769-16.607C126.156,290.925,129.5,283.689,126.126,278.467Z" transform="translate(-114.317 -273.281)" fill="#ad652f"/>
            <path id="Path_882" data-name="Path 882" d="M137.534,275.53c.6,6.268,3.691,13.107,5.962,19.03,2.024,5.28,4.177,13.969,7.71,13.969,2.121,0,3.457-10.181,3.829-14.855.148-1.868.67-4.361-.242-6.1-.928-1.771-3.321-2.5-4.909-3.47C145.9,281.664,142.483,276.474,137.534,275.53Z" transform="translate(-96.496 -275.53)" fill="#ad652f"/>
            <path id="Path_883" data-name="Path 883" d="M122.147,295.7c.027-4.866,3.042-11.645.433-16.789.52,2.985-.322,6.31-1.342,9.36-.767,2.287-1.789,4.225-1.734,6.335.1,3.958,1.957,7.744,2.164,11.739a5.607,5.607,0,0,1-.843,3.358c2.19,2.022,4.283,3.411,5.091,2.6C127.583,310.637,122.121,300.605,122.147,295.7Z" transform="translate(-110.337 -272.937)" fill="#7f4218"/>
            <path id="Path_884" data-name="Path 884" d="M150.731,302.875a90.249,90.249,0,0,1-7.594-15.465c-1.395-3.723-3.284-7.5-4.057-11.428a9.253,9.253,0,0,0-1.547-.452c.6,6.268,3.691,13.107,5.962,19.03,2.024,5.278,4.177,13.969,7.71,13.969.757,0,1.411-1.294,1.959-3.173A7.339,7.339,0,0,1,150.731,302.875Z" transform="translate(-96.496 -275.53)" fill="#7f4218"/>
            <path id="Path_885" data-name="Path 885" d="M129.594,299.887c2.968,1.734,2.45-3.73,2.485-5.179.058-2.344.354-7.77-1.835-9.3C130.08,285.636,125.876,297.714,129.594,299.887Z" transform="translate(-103.766 -267.946)" fill="#fff" opacity="0.6"/>
            <path id="Path_886" data-name="Path 886" d="M130.885,285.532c-.081,3.482-.525,12.923,4.679,12.935C135.835,295.339,133.406,286.573,130.885,285.532Z" transform="translate(-101.634 -267.852)" fill="#fff" opacity="0.6"/>
            <path id="Path_887" data-name="Path 887" d="M130.392,294.9a51.568,51.568,0,0,0-2.593,7.859c1.057-1.426,4.571-.235,7.859-.612,3.314-.378,6.406-2.316,7.983-1.474a27.418,27.418,0,0,1-4.863-5.193C136.849,292.959,133.782,293.187,130.392,294.9Z" transform="translate(-103.969 -261.66)" fill="#685035"/>
            <path id="Path_888" data-name="Path 888" d="M128.944,294.26c-.373,2.849-1.419,2.857,1.533,3.772a11.176,11.176,0,0,1,4.322,2.574,6.019,6.019,0,0,1,3.811-4.458c.182-1.386.38-2.973-.827-3.534C135.765,291.676,130.123,292.848,128.944,294.26Z" transform="translate(-103.464 -262.675)" fill="#040404"/>
          </g>
          <path id="Path_889" data-name="Path 889" d="M116.513,339.495c-1.3.928-2.535,2.377-2.466,4.039,1.1-.042,1.815.023,2.662-.863a3.357,3.357,0,0,0-.769,3.056c1.7,1.018,3.035-.44,3.654-2.057-.224,1.8-.062,3.284,1.879,3.44,2.565.2,1.327-2.43,1.955-4.163.909-2.506,3.2-3.457,5.746-4.727,5.075-2.524,10.454-5.167,14.392-9.359,5.732-6.105.394-11.345-6.623-8.152C128.835,324.4,122.611,332.431,116.513,339.495Z" transform="translate(-107.99 -234.605)" fill="#f2b368"/>
          <path id="Path_890" data-name="Path 890" d="M119.771,307.1c1.745-3.615,4.651-.555,5.419,1.884a11.717,11.717,0,0,1-.546,8c-1.594,4.221-3.383,7.924-4.322,12.379-.32,1.522-1.421,6.188-3.4,2.664,1.624,6.028-4.61,3.047-2.476-1.579.06,1.156-1.2,1.665-1.587,2.42-6.052-5.133,1.63-19.947,5.9-24.188C118.856,307.976,118.552,308.573,119.771,307.1Z" transform="translate(-110.619 -245.584)" fill="#c17b3d"/>
          <path id="Path_891" data-name="Path 891" d="M126.551,287.58a1.185,1.185,0,1,1-1.184-1.184A1.185,1.185,0,0,1,126.551,287.58Z" transform="translate(-100.209 -260.203)" fill="#35302c"/>
          <path id="Path_892" data-name="Path 892" d="M136.45,285.984a1.184,1.184,0,1,1-1.186-1.184A1.186,1.186,0,0,1,136.45,285.984Z" transform="translate(-92.61 -261.428)" fill="#35302c"/>
          <path id="Path_893" data-name="Path 893" d="M125.457,286.893a.561.561,0,1,1-.562-.562A.562.562,0,0,1,125.457,286.893Z" transform="translate(-100.091 -260.252)" fill="#fff"/>
          <path id="Path_894" data-name="Path 894" d="M135.257,285.335a.56.56,0,1,1-.56-.562A.559.559,0,0,1,135.257,285.335Z" transform="translate(-92.568 -261.448)" fill="#fff"/>
        </g>
        <g id="Group_580" data-name="Group 580" transform="translate(87.259 479.539)">
          <path id="Path_895" data-name="Path 895" d="M62.368,360.791a6.635,6.635,0,0,0-.253,1.494h1.324a2.437,2.437,0,0,0-.269-1.483.405.405,0,0,0-.689,0,2.518,2.518,0,0,0-.366,1.483.662.662,0,0,0,1.324,0,4.06,4.06,0,0,0-.15-1.494A.482.482,0,0,0,62.368,360.791Z" transform="translate(-62.115 -360.452)" fill="#020100"/>
        </g>
        <g id="Group_581" data-name="Group 581" transform="translate(89.351 479.737)">
          <path id="Path_896" data-name="Path 896" d="M63.775,360.985a1.735,1.735,0,0,1-.322,1.075l.93.543c.11-.4.546-1.708-.11-1.881s-.88,1.181-.963,1.584c-.106.507.532.983.93.541a2.146,2.146,0,0,0,.371-1.976C64.526,360.361,63.821,360.547,63.775,360.985Z" transform="translate(-63.298 -360.564)" fill="#020100"/>
        </g>
        <g id="Group_582" data-name="Group 582" transform="translate(91.439 479.08)">
          <path id="Path_897" data-name="Path 897" d="M64.786,360.66a2.4,2.4,0,0,1-.221.923c.355.152.709.3,1.062.449a1.985,1.985,0,0,0-.094-1.524.311.311,0,0,0-.479-.064,2.025,2.025,0,0,0-.569,1.433c-.092.695.928.716,1.142.154a2.941,2.941,0,0,0,.127-1.372A.485.485,0,0,0,64.786,360.66Z" transform="translate(-64.48 -360.192)" fill="#020100"/>
        </g>
        <g id="Group_583" data-name="Group 583" transform="translate(99.245 476.448)">
          <path id="Path_898" data-name="Path 898" d="M69.161,359.168c-.037.369-.186.7-.244,1.062-.12.735,1,1.054,1.128.309a2.123,2.123,0,0,0-.071-1.471.414.414,0,0,0-.643-.085,2.111,2.111,0,0,0-.435,1.4h1.17a5.07,5.07,0,0,0,.021-1.34C70,358.479,69.211,358.684,69.161,359.168Z" transform="translate(-68.896 -358.703)" fill="#020100"/>
        </g>
        <g id="Group_584" data-name="Group 584" transform="translate(100.992 476.608)">
          <path id="Path_899" data-name="Path 899" d="M70.522,359.733l.025.027c-.049-.184-.1-.366-.145-.548-.034.205-.067.4-.12.6-.041.154-.24.391-.042.293.348.269.695.532,1.041.8.062-.4.3-1.647-.311-1.8s-.944,1.054-1.055,1.428a.716.716,0,0,0,1.041.8c.755-.382.8-1.586.474-2.254a.56.56,0,0,0-.635-.256l-.035.014A.545.545,0,0,0,70.522,359.733Z" transform="translate(-69.884 -358.794)" fill="#020100"/>
        </g>
        <g id="Group_585" data-name="Group 585" transform="translate(102.83 476.059)">
          <path id="Path_900" data-name="Path 900" d="M71.115,358.932a4.919,4.919,0,0,0-.016.663c.025.2-.152.267.1.081.272.159.548.315.822.472a1.839,1.839,0,0,0-.272-1.389.249.249,0,0,0-.346,0,1.934,1.934,0,0,0-.474,1.389c-.035.525.6.651.932.387.5-.4.247-1.211.157-1.723S71.118,358.43,71.115,358.932Z" transform="translate(-70.924 -358.483)" fill="#020100"/>
        </g>
        <g id="Group_586" data-name="Group 586" transform="translate(74.491 425.682)">
          <path id="Path_901" data-name="Path 901" d="M55.38,331.422a2.475,2.475,0,0,0,1.05-.871.39.39,0,0,0-.608-.47,2.166,2.166,0,0,0-.829.99c-.034.126.067.306.217.286a2.25,2.25,0,0,0,1.158-.726l-.647-.378c-.106.263-.461.422-.682.587C54.7,331.092,55,331.661,55.38,331.422Z" transform="translate(-54.892 -329.983)"/>
        </g>
        <g id="Group_587" data-name="Group 587" transform="translate(76.633 426.927)">
          <path id="Path_902" data-name="Path 902" d="M56.46,332.193c.44-.062.681-.707.824-1.064.159-.393-.449-.61-.659-.279a2.2,2.2,0,0,0-.447,1.069.208.208,0,0,0,.309.177,2.223,2.223,0,0,0,.762-.882l-.661-.278c-.058.156-.4.749-.279.707A.285.285,0,0,0,56.46,332.193Z" transform="translate(-56.104 -330.687)"/>
        </g>
        <g id="Group_588" data-name="Group 588" transform="translate(78.609 426.718)">
          <path id="Path_903" data-name="Path 903" d="M57.6,332.087a1.248,1.248,0,0,0,.808-1.184.339.339,0,0,0-.627-.171,3.145,3.145,0,0,0-.435,1.008c-.027.136.124.3.263.2a3.3,3.3,0,0,0,.753-.87l-.627-.168c-.005.087-.182.534-.3.583C57.076,331.637,57.2,332.192,57.6,332.087Z" transform="translate(-57.221 -330.569)"/>
        </g>
        <path id="Path_904" data-name="Path 904" d="M92.38,329.9c-1.727-9.483-12.034-14.212-21.356-14.638-.074.352-2.079,6.466,2.613,10.881a18.585,18.585,0,0,1,8.216,4.005c1.93,1.513,4.11,5.837,6.632,6.033C91.751,336.432,92.842,332.438,92.38,329.9Z" transform="translate(31.608 84.398)" fill="#a35928"/>
        <g id="Group_589" data-name="Group 589" transform="translate(173.359 406.8)">
          <path id="Path_905" data-name="Path 905" d="M111.511,319.8a2.875,2.875,0,0,0-.681,2.134c.012.242.032.488.055.732a11.4,11.4,0,0,1,.216,1.167h3c-.014-1.106.046-2.8-.879-3.562a.91.91,0,0,0-1.239,0c-.923.755-.864,2.455-.878,3.562-.027,1.939,2.9,1.921,3,0a7.952,7.952,0,0,0-.182-1.324c-.023-.187-.03-.387-.035-.575,0-.069,0-.138,0-.207.039-.361-.023-.276-.189.253C115.02,320.5,112.793,318.3,111.511,319.8Z" transform="translate(-110.825 -319.3)"/>
        </g>
        <g id="Group_590" data-name="Group 590" transform="translate(176.57 409.657)">
          <path id="Path_906" data-name="Path 906" d="M112.867,321.848a4.9,4.9,0,0,0-.152,2.149,6.228,6.228,0,0,0,.751,1.923,1.935,1.935,0,0,0,3.519-1.485,5.643,5.643,0,0,0-.712-1.531c-.4-.592-.949-1.566-1.677-1.715a1.321,1.321,0,0,0-1.287.341c-.886,1.1-.376,3.2.157,4.389l3.024-2.333a4.8,4.8,0,0,1-.491-.976,6.549,6.549,0,0,0-.705-1.08C114.686,320.71,113.109,320.615,112.867,321.848Z" transform="translate(-112.642 -320.917)"/>
        </g>
        <g id="Group_591" data-name="Group 591" transform="translate(179.019 407.375)">
          <path id="Path_907" data-name="Path 907" d="M114.441,320.794a26.3,26.3,0,0,0-.209,2.789h4.378a4.152,4.152,0,0,0-1.646-3.558,1.791,1.791,0,0,0-2.4.631,3.974,3.974,0,0,0-.256,3.51A2.191,2.191,0,0,0,118.531,323a7.241,7.241,0,0,0-1.082-2.6A1.666,1.666,0,0,0,114.441,320.794Z" transform="translate(-114.027 -319.626)"/>
        </g>
        <g id="Group_592" data-name="Group 592" transform="translate(177.716 429.073)">
          <path id="Path_908" data-name="Path 908" d="M113.941,332.846c-.108.417-.41.769-.536,1.191a4.689,4.689,0,0,0-.1,1.515,1.333,1.333,0,0,0,2.607.352c.263-1.05.61-2.344-.147-3.251a.741.741,0,0,0-.749-.2c-1.084.445-1.4,1.69-1.663,2.745l2.607.352a1.972,1.972,0,0,1,.08-.923,8.239,8.239,0,0,0,.461-1.08A1.328,1.328,0,0,0,113.941,332.846Z" transform="translate(-113.29 -331.901)"/>
        </g>
        <g id="Group_593" data-name="Group 593" transform="translate(180.055 432.292)">
          <path id="Path_909" data-name="Path 909" d="M115.451,334.225c-.859.972-.863,2.423-.827,3.657a1.547,1.547,0,0,0,1.338,1.518,1.529,1.529,0,0,0,1.693-1.107c.157-1.084.387-2.745-.495-3.564a.883.883,0,0,0-1.029-.133c-.958.46-1.294,1.893-1.455,2.874q1.519.207,3.035.41a7.716,7.716,0,0,1,.044-1.221s.034-.244.012-.126c.064-.357.228-.458-.1-.1C119.028,334.95,116.785,332.714,115.451,334.225Z" transform="translate(-114.613 -333.722)"/>
        </g>
        <g id="Group_594" data-name="Group 594" transform="translate(183.5 432.891)">
          <path id="Path_910" data-name="Path 910" d="M117.591,334.842a12.622,12.622,0,0,0-.645,1.518,4.035,4.035,0,0,0-.384,1.654,1.649,1.649,0,0,0,3.224.437c.313-.91.615-2.445.005-3.261a.974.974,0,0,0-1.05-.426c-1.126.32-1.782,1.766-2.121,2.814q1.612.22,3.224.437a2.594,2.594,0,0,1,.173-.537c.134-.3.216-.73.369-1A1.621,1.621,0,0,0,117.591,334.842Z" transform="translate(-116.562 -334.061)"/>
        </g>
        <g id="Group_595" data-name="Group 595" transform="translate(214.557 478.553)">
          <path id="Path_911" data-name="Path 911" d="M134.376,360.773a6.657,6.657,0,0,0-.24,2.153q1.559-.207,3.115-.421a3.583,3.583,0,0,0-1.283-2.492.893.893,0,0,0-1.061.136,3.851,3.851,0,0,0-.771,2.777c.06,2.052,3.327,2.024,3.171,0a6.234,6.234,0,0,0-.734-2.441A1.215,1.215,0,0,0,134.376,360.773Z" transform="translate(-134.132 -359.894)"/>
        </g>
        <g id="Group_596" data-name="Group 596" transform="translate(216.289 480.418)">
          <path id="Path_912" data-name="Path 912" d="M135.115,362.51c-.064,1.209.9,2.909,2.171,3.13a1.639,1.639,0,0,0,1.828-2.377,6.611,6.611,0,0,0-1.352-1.421,1.267,1.267,0,0,0-2.1,1.223,6.788,6.788,0,0,0,.656,1.835q.915-1.193,1.829-2.381c.343.06.495.488.221.023-.127-.216-.028.246-.014-.032C138.465,360.426,135.225,360.433,135.115,362.51Z" transform="translate(-135.112 -360.949)"/>
        </g>
        <g id="Group_597" data-name="Group 597" transform="translate(218.542 479.385)">
          <path id="Path_913" data-name="Path 913" d="M136.439,361.977a4.914,4.914,0,0,0,.118,2.054c.592,1.891,3.639,1.633,3.565-.484a3.735,3.735,0,0,0-.654-2.027,1.55,1.55,0,0,0-2.789.364,3.767,3.767,0,0,0-.122,2.148l3.32-1.4a1.655,1.655,0,0,1-.092-.652A1.674,1.674,0,0,0,136.439,361.977Z" transform="translate(-136.386 -360.365)"/>
        </g>
        <g id="Group_598" data-name="Group 598" transform="translate(225.977 486.543)">
          <path id="Path_914" data-name="Path 914" d="M140.609,365.542a2.637,2.637,0,0,0,1.237,2.75c.974.465,2.445-.323,2.008-1.547-.315-.875-1.3-2.5-2.436-2.02s-.583,2.287-.064,3.076q.772-1,1.545-2.008c.141.03.088.17.064-.027-.025-.177-.085-.353-.111-.527C142.642,363.884,140.71,364.35,140.609,365.542Z" transform="translate(-140.593 -364.414)"/>
        </g>
        <g id="Group_599" data-name="Group 599" transform="translate(228.532 488.122)">
          <path id="Path_915" data-name="Path 915" d="M142.041,366.228a2.992,2.992,0,0,0,.159,1.071c.111.332.387.62.463.951l1.844-.509c-.233-.7-.442-1.745-1.163-2.109a.7.7,0,0,0-.944.247,3.189,3.189,0,0,0,.263,2.37.957.957,0,0,0,1.844-.509c-.129-.548-.585-.924-.555-1.513C144.012,365,142.1,365,142.041,366.228Z" transform="translate(-142.038 -365.307)"/>
        </g>
        <g id="Group_600" data-name="Group 600" transform="translate(230.797 487.472)">
          <path id="Path_916" data-name="Path 916" d="M143.343,366.121l-.021,1.373a1.243,1.243,0,0,0,2.483,0c.007-.592,0-1.515-.514-1.918a1.074,1.074,0,0,0-1.455,0c-.518.407-.523,1.319-.514,1.918a1.243,1.243,0,0,0,2.483,0q-.011-.689-.019-1.373A1.222,1.222,0,0,0,143.343,366.121Z" transform="translate(-143.32 -364.94)"/>
        </g>
        <path id="Path_917" data-name="Path 917" d="M57.98,320.1a29.216,29.216,0,0,0,7.871-.705,17.557,17.557,0,0,0,8.188-3.59l0,3.083a21.742,21.742,0,0,1-7.516,2.526c-3.7.338-7.977.373-7.977.373Z" transform="translate(21.97 84.816)" fill="#f90000"/>
        <path id="Path_918" data-name="Path 918" d="M124.557,285.36c1.391-.49,2.353.023,3.71.447,1.023.318,2.938.75,3.576-.408C133.848,281.769,125.494,280.254,124.557,285.36Z" transform="translate(73.075 58.927)" fill="#fff" opacity="0.6"/>
        <path id="Path_919" data-name="Path 919" d="M132.015,282.177a1.805,1.805,0,0,0-.479,2.954c1.177.827,3.037-.173,3.841-1.059a16.875,16.875,0,0,1,1.472-1.575c.2-.17.608,0,.741-.285C138.4,280.452,133.989,280.762,132.015,282.177Z" transform="translate(77.992 58.101)" fill="#fff" opacity="0.6"/>
        <path id="Path_920" data-name="Path 920" d="M56.974,305.626c-1.069.456-3.887.426-3.647,2.25.152,1.161,1.738,1,2.5.6A2.275,2.275,0,0,0,56.974,305.626Z" transform="translate(18.387 77.002)"/>
        <path id="Path_921" data-name="Path 921" d="M60.215,305.13c.612.3.988,1.142,1.61,1.525a2.459,2.459,0,0,0,2.816-.016,1.213,1.213,0,0,0-.055-1.87C63.418,303.953,61.944,304.854,60.215,305.13Z" transform="translate(23.685 76.088)"/>
        <path id="Path_922" data-name="Path 922" d="M54.638,306.659a.445.445,0,1,1-.447-.445A.447.447,0,0,1,54.638,306.659Z" transform="translate(18.721 77.454)" fill="#fff"/>
        <path id="Path_923" data-name="Path 923" d="M62.261,305.222a.519.519,0,1,1-.518-.52A.519.519,0,0,1,62.261,305.222Z" transform="translate(24.459 76.293)" fill="#fff"/>
        <path id="Path_924" data-name="Path 924" d="M58.461,308.8a.446.446,0,1,1-.447-.447A.446.446,0,0,1,58.461,308.8Z" transform="translate(21.654 79.097)" fill="#fff"/>
        <path id="Path_925" data-name="Path 925" d="M102.287,237.026c0,1.045-3.134,3.482-5.572,3.482s-5.221-3.482-5.221-3.482a11.975,11.975,0,0,0,5.221,1.743A14.378,14.378,0,0,0,102.287,237.026Z" transform="translate(47.695 24.345)" fill="#e55b27"/>
        <g id="Group_601" data-name="Group 601" transform="translate(175.047 250.311)" opacity="0.6">
          <path id="Path_926" data-name="Path 926" d="M111.78,236.607s.7-7.311,2.436-5.57.348,11.489-1.393,12.881,1.393-2.786,1.045-5.57S111.78,236.607,111.78,236.607Z" transform="translate(-111.78 -230.769)" fill="#e55b27"/>
        </g>
        <g id="Ellipse_74" data-name="Ellipse 74" transform="translate(24.882 223.735)" fill="none" stroke="#322a7d" stroke-width="1">
          <circle cx="126" cy="126" r="126" stroke="none"/>
          <circle cx="126" cy="126" r="125.5" fill="none"/>
        </g>
        <g id="Group_602" data-name="Group 602" transform="translate(110.849 252.496)" opacity="0.6">
          <path id="Path_927" data-name="Path 927" d="M79.056,237.539s-1.67-7.152-3.162-5.195,1.2,11.433,3.107,12.58-1.752-2.574-1.782-5.381S79.056,237.539,79.056,237.539Z" transform="translate(-75.461 -232.005)" fill="#e55b27"/>
        </g>
        <path id="Path_928" data-name="Path 928" d="M117.122,252.214c-.884.309-6.362,2.945-9.2,3.044-7.459.256-9.393.3-11.481-.049a68.144,68.144,0,0,1-6.708-1.868l-4.628,10.321s18.6,2.089,24.863-1.741A15.074,15.074,0,0,0,117.122,252.214Z" transform="translate(42.794 36.003)" fill="#f88c4c"/>
        <path id="Path_929" data-name="Path 929" d="M142.742,232.129c-1.112-3.887-7.3-11.748-10.157-15.709a10.16,10.16,0,0,0-1.4-2.146c-.1-.242-.18-.316-.24-.272-3.562-4.039-5-4.419-9.785-3.457-.223-1.939,2.144-4.486,1.393-4.525-2.162-.11-12.478,1.306-20.5,2.537a13.185,13.185,0,0,0,2.443-2.8,26.234,26.234,0,0,0-5.324,3.256c-.171.027-.338.055-.5.08a10.868,10.868,0,0,0,2.671-3.777,14.208,14.208,0,0,0-5.1,4.177c-.8.133-.286.129-.882.237a11.114,11.114,0,0,0,2.712-3.852A105.146,105.146,0,0,0,84.8,216.424c-4.534,4.177-9.808,9.648-10.634,16.053l4.177,16.709a22.989,22.989,0,0,1,2.5,4.47c1.679,3.537,1.81,10.636,1.918,9s2.545-24.61,2.545-24.61-1.043-.348,2.089.348-.348-3.48-.348-3.48l7.659.346-4.179-5.22,1.094.064a21.032,21.032,0,0,0,11.341,4.407c.343-1.992-.919-3.537-.628-5.52,5.1,1.607,7.588,5.826,14.15,5.146a6.139,6.139,0,0,0-1.7-3.344c4.306.035,13.619,4.82,13.711-3.406a5.154,5.154,0,0,1-.55-.152l3.664.718-3.132,5.57,5.57-1.045,2.436,7.311c2.438,7.309.348,20.54.348,20.54S144.135,237,142.742,232.129Z" transform="translate(34.393)" fill="#6d3812"/>
        <path id="Path_930" data-name="Path 930" d="M141.953,224.351a45.917,45.917,0,0,0-4.477-3.044c-7.155-4.081-15.633-6.091-23.824-8.34-7.557.705-15.191,1.515-22.047,4.9-5.989,2.957-11.367,6.291-17.436,8.688l-.005.042,4.177,16.709a22.989,22.989,0,0,1,2.5,4.47c1.679,3.537,1.81,10.636,1.918,9S85.3,232.17,85.3,232.17s-1.043-.348,2.089.348-.348-3.48-.348-3.48l7.659.346-4.179-5.22,1.094.064a21.032,21.032,0,0,0,11.341,4.407c.343-1.992-.919-3.537-.628-5.52,5.1,1.607,7.588,5.826,14.15,5.146a6.139,6.139,0,0,0-1.7-3.344c4.306.035,13.619,4.82,13.711-3.406a5.161,5.161,0,0,1-.55-.152l3.664.718-3.132,5.57,5.57-1.045,2.436,7.311c2.438,7.309.348,20.54.348,20.54s7.311-23.325,5.918-28.2A12.261,12.261,0,0,0,141.953,224.351Z" transform="translate(34.393 5.878)" fill="#592c11"/>
        <path id="Path_931" data-name="Path 931" d="M71.644,313.488s1.225,2.264.541,3.8-1.027.684-1.2,2.568A17.67,17.67,0,0,0,71.842,325S69,320.1,70.161,318.733A7,7,0,0,0,71.644,313.488Z" transform="translate(31.106 83.037)" fill="#f88c4c"/>
        <path id="Path_932" data-name="Path 932" d="M71.814,310.359s1.5.353,3.917,3.617c2.851,3.843,2.842,5.789,2.842,5.789s-1.395-2.614-2.422-4.21C75.2,314.08,71.814,310.359,71.814,310.359Z" transform="translate(32.589 80.636)" fill="#f88c4c"/>
        <path id="Path_933" data-name="Path 933" d="M73.308,309.416a15.937,15.937,0,0,0,2.941,3.113c1.9,1.559,6.125,7.959,6.125,7.959a14.809,14.809,0,0,0-3.357-6.229A37.168,37.168,0,0,0,73.308,309.416Z" transform="translate(33.736 79.912)" fill="#f88c4c"/>
        <g id="Group_603" data-name="Group 603" transform="translate(181.153 393.086)">
          <path id="Path_934" data-name="Path 934" d="M130.01,330.25a70.3,70.3,0,0,1,8.842-7.572l-2.742-5.024a4.574,4.574,0,0,0-3.35,3.666c-.339,2.04,1.607,4.9-.649,4.96a2.9,2.9,0,0,1-2.333-4.617c3.507-5.28,4.714-6.618,2.372-7.461.932-1.478-1.151-2.029-2.015-1.593-.76-1.3-3.358-2.993-11.921,5.554-2.777,2.772-2.98,10.754-2.98,10.754s2.2,5.239,4.49,10.394a28.077,28.077,0,0,1,3.562-3A37.357,37.357,0,0,1,130.01,330.25Z" transform="translate(-115.234 -311.542)" fill="#ffc489"/>
          <path id="Path_935" data-name="Path 935" d="M190.707,323.773c-3.871-1.785-7.972-3.327-20.715,1.206-6.036,2.144-20.135,3.995-29.427,4.286-.281.087-.564.172-.845.262a41.96,41.96,0,0,0-7.937,3.708c-3.763,2.423-5.285,2.763-8.8,5.621-.309.251,18.7,7.9,32.285,9.911,22.938,3.4,36.05,2.727,39.883-6.438S194.807,325.661,190.707,323.773Z" transform="translate(-109.291 -303.511)" fill="#ffc489"/>
          <path id="Path_936" data-name="Path 936" d="M129.951,328.734c2-1.957,4.037-3.859,6.194-5.587a8.592,8.592,0,0,1-2.757-4.864,4.476,4.476,0,0,0-.836,1.985c-.339,2.043,1.792,5.361-.461,5.418s-6.137-2.756-5.506-5.183c.391-1.511,3.532-5.365,4.248-6.019-2.464,1.513-4.444,4.442-5.877,6.636-1.448,2.217-3.832.051-2.372-2.183a40.674,40.674,0,0,1,4.516-5.365c-1.964,1.379-5.246,4.092-6.434,6.312-1.133,2.114-4.191.739-3.875-1.273a25.529,25.529,0,0,0-1.554,8.75s2.112,5.3,4.334,10.554a27.6,27.6,0,0,1,3.716-3.16A37.536,37.536,0,0,1,129.951,328.734Z" transform="translate(-115.234 -309.985)" fill="#fdb177"/>
          <path id="Path_937" data-name="Path 937" d="M196.3,328.513c-3.367,7.169-15.96,10.48-21.819,10.91-30.838,2.247-46.972-8.394-46.972-8.394-3.491,2.3-1.248.164-4.53,2.832-.306.249,10.761,6.8,32.849,11.044,22.6,4.345,35.274,2.1,39.107-7.065A17.827,17.827,0,0,0,196.3,328.513Z" transform="translate(-109.292 -298.515)" fill="#fdb177"/>
          <path id="Path_938" data-name="Path 938" d="M119.205,332.3q.716-.79,1.5-1.5c-.088-.27-.179-.544-.269-.8a28.271,28.271,0,0,0-5.2-8.626s2.434,6.56,3.97,10.926Z" transform="translate(-115.234 -303.996)" fill="#f88c4c"/>
          <path id="Path_939" data-name="Path 939" d="M126.1,322.64a5.221,5.221,0,0,1-.044.686c.385-.341.771-.684,1.161-1.016a1.294,1.294,0,0,0-.207-.732,7,7,0,0,1-1.092-5.342s-1.389,2.169-.82,3.754S126.072,320.75,126.1,322.64Z" transform="translate(-107.767 -307.939)" fill="#f88c4c"/>
          <path id="Path_940" data-name="Path 940" d="M128.036,313.047s-1.518.24-4.175,3.316c-3.129,3.62-3.265,5.563-3.265,5.563s1.586-2.5,2.729-4.02A67.084,67.084,0,0,1,128.036,313.047Z" transform="translate(-111.119 -310.387)" fill="#f88c4c"/>
          <path id="Path_941" data-name="Path 941" d="M127.668,311.995a16,16,0,0,1-3.164,2.888c-2.015,1.411-6.7,7.481-6.7,7.481a14.8,14.8,0,0,1,3.809-5.96A37.2,37.2,0,0,1,127.668,311.995Z" transform="translate(-113.261 -311.194)" fill="#f88c4c"/>
        </g>
      </g>
    </g>
  </g>
</svg>
