<svg xmlns="http://www.w3.org/2000/svg" width="283.28" height="322.674" viewBox="0 0 283.28 322.674">
    <g data-name="Group 560">
        <g data-name="Group 473" transform="translate(0 2.859)" style="opacity:.34">
            <circle data-name="Ellipse 57" cx="141.64" cy="141.64" r="141.64" style="fill:#493d65"/>
        </g>
        <g data-name="Group 474" transform="translate(29.183 281.154)" style="opacity:.3">
            <ellipse data-name="Ellipse 58" cx="112.457" cy="20.76" rx="112.457" ry="20.76" style="fill:#000072"/>
        </g>
        <g data-name="Group 559">
            <g data-name="Group 479">
                <g data-name="Group 475">
                    <path data-name="Path 668" d="M2658.289 2135.534c-6.008 10.423-16.076 19.806-32.634 25.04l-7.239-22.471s11.769-3.514 19.134-16.691c3.331-5.964 5.761-13.913 5.792-24.406a11.6 11.6 0 0 1 10.823-11.49c.272-.019.545-.025.818-.025a11.635 11.635 0 0 1 11.61 11.09c.489 10.232-.507 25.465-8.304 38.953z" transform="translate(-2407.847 -1926.08)" style="fill:#ffa910"/>
                </g>
                <g data-name="Group 476">
                    <path data-name="Path 669" d="M2810.82 2135.534c-10.684-2.17-17.015-7.784-20.739-14.122 3.331-5.964 5.76-13.913 5.792-24.406a11.6 11.6 0 0 1 10.823-11.49c.273-.019.546-.025.819-.025a11.634 11.634 0 0 1 11.61 11.09c.488 10.232-.508 25.465-8.305 38.953z" transform="translate(-2560.378 -1926.08)" style="fill:#fff"/>
                </g>
                <g data-name="Group 477" style="opacity:.3">
                    <path data-name="Path 670" d="M2705.117 2096.864a11.628 11.628 0 0 0-10.882-11.054 11.585 11.585 0 0 1 2 5.979c.489 10.233-.507 25.465-8.3 38.953-5.18 8.987-13.383 17.2-26.158 22.646l2.406 7.469c16.558-5.234 26.627-14.617 32.634-25.04 7.792-13.487 8.788-28.717 8.3-38.953z" transform="translate(-2446.37 -1926.363)" style="fill:#000072"/>
                </g>
                <g data-name="Group 478">
                    <path data-name="Path 671" d="m2595.034 2141.359-9-27.949 2.788-.832c.966-.3 22.8-7.374 22.895-38.375a14.486 14.486 0 0 1 28.955-.548c.44 9.156-.271 22.767-6.151 35.62-6.957 15.209-19.332 25.715-36.78 31.229zm-1.852-24.384 5.53 17.175c33.4-12.051 37.1-42.719 36.258-60.221a8.776 8.776 0 0 0-17.543.291c-.053 18.395-7.3 29.306-13.361 35.22a39.141 39.141 0 0 1-10.885 7.535z" transform="translate(-2379.075 -1903.289)" style="fill:#000072"/>
                </g>
            </g>
            <g data-name="Group 488">
                <g data-name="Group 480">
                    <path data-name="Path 672" d="M2339.858 2582.406a93.367 93.367 0 0 0 1.846 18.4 25.533 25.533 0 0 0 18.1 19.6 69.5 69.5 0 0 0 33.935.945A15.8 15.8 0 0 0 2405.99 2608a25.362 25.362 0 0 0 .063-6.027c-1.751-15.271-18.132-20.067-18.132-20.067a73.625 73.625 0 0 0 1.751-3.914 58.87 58.87 0 0 0 2.608-7.8 42.989 42.989 0 0 0 1.364-14 36.18 36.18 0 0 0-1.744-8.755c-3.159-9.485-9.808-16.184-15.594-20.485a13.051 13.051 0 0 0-18.037 2.468 84.18 84.18 0 0 0-18.411 52.986z" transform="translate(-2160.338 -2316.064)" style="fill:#ffa910"/>
                </g>
                <g data-name="Group 481">
                    <path data-name="Path 673" d="M2339.858 3040.85a93.369 93.369 0 0 0 1.846 18.4 25.533 25.533 0 0 0 18.1 19.6 69.5 69.5 0 0 0 33.935.945 15.8 15.8 0 0 0 12.251-13.361c2.525-20.061-18.068-26.094-18.068-26.094s-20.664 14.842-48.064.51z" transform="translate(-2160.338 -2774.509)" style="fill:#fff"/>
                </g>
                <g data-name="Group 482" style="opacity:.3">
                    <path data-name="Path 674" d="M2339.858 2582.406a93.367 93.367 0 0 0 1.846 18.4 25.533 25.533 0 0 0 18.1 19.6 69.5 69.5 0 0 0 33.935.945A15.8 15.8 0 0 0 2405.99 2608a25.362 25.362 0 0 0 .063-6.027c-3.794 3.718-9.529 7.01-18.132 8.99-30.788 7.067-23.93-22.312-23.93-22.312 17.332.526 23.93-6.744 23.93-6.744-36.631 2.55-11.616-54.953-11.616-54.953a13.051 13.051 0 0 0-18.037 2.468 84.18 84.18 0 0 0-18.41 52.984z" transform="translate(-2160.338 -2316.064)" style="fill:#000072"/>
                </g>
                <g data-name="Group 483" style="opacity:.7">
                    <path data-name="Path 675" d="M2516.892 2612.439a25.378 25.378 0 0 0 .063-6.027c-1.751-15.27-18.132-20.067-18.132-20.067a73.625 73.625 0 0 0 1.751-3.914 58.96 58.96 0 0 0 2.607-7.8 42.99 42.99 0 0 0 1.364-14 36.187 36.187 0 0 0-1.745-8.755c-3.16-9.485-9.808-16.184-15.594-20.485a13.05 13.05 0 0 0-18.037 2.468c-.317.4-.622.807-.928 1.21a91.69 91.69 0 0 1 4.1-5.651 13.051 13.051 0 0 1 18.037-2.468c5.786 4.3 12.434 11 15.594 20.485a36.18 36.18 0 0 1 1.744 8.755 42.989 42.989 0 0 1-1.364 14 58.942 58.942 0 0 1-2.608 7.8 73.625 73.625 0 0 1-1.751 3.914s16.381 4.8 18.131 20.067a25.323 25.323 0 0 1-.063 6.027 15.566 15.566 0 0 1-4.55 9.146 15.471 15.471 0 0 0 1.381-4.705z" transform="translate(-2274.413 -2316.064)" style="fill:#fff"/>
                </g>
                <g data-name="Group 484">
                    <path data-name="Path 676" d="m2806.375 3258.507.242-.773.261-.874c.163-.6.334-1.2.483-1.807.309-1.219.576-2.464.789-3.729s.382-2.549.521-3.859c.172-1.316.235-2.642.41-4.047v-.031a.641.641 0 0 1 1.194-.236 17.1 17.1 0 0 1 1.632 4.033 22.306 22.306 0 0 1 .721 4.311 26.122 26.122 0 0 1-.009 4.4q-.095 1.1-.289 2.208c-.074.37-.138.737-.235 1.109-.044.184-.088.373-.146.563l-.086.29-.108.334a2.853 2.853 0 0 1-5.438-1.729z" transform="translate(-2574.693 -2954.417)" style="fill:#000072"/>
                </g>
                <g data-name="Group 485">
                    <path data-name="Path 677" d="m2674.04 3268.264.242-.772.261-.874c.163-.6.334-1.2.483-1.807.309-1.22.576-2.465.79-3.729s.382-2.549.521-3.859c.172-1.316.235-2.642.41-4.048v-.031a.641.641 0 0 1 1.194-.236 17.1 17.1 0 0 1 1.632 4.033 22.319 22.319 0 0 1 .721 4.311 26.148 26.148 0 0 1-.008 4.4q-.1 1.1-.289 2.208c-.074.37-.138.737-.235 1.11-.044.184-.089.373-.146.563l-.086.29-.107.334a2.853 2.853 0 0 1-5.438-1.729z" transform="translate(-2457.107 -2963.087)" style="fill:#000072"/>
                </g>
                <g data-name="Group 486">
                    <path data-name="Path 678" d="M2616.719 3014.383c-.148.088-.247.137-.36.2l-.324.163q-.32.16-.634.3c-.42.2-.84.371-1.258.552-.842.339-1.672.675-2.517.968a42.958 42.958 0 0 1-5.113 1.463 46.067 46.067 0 0 1-5.182.863 49.176 49.176 0 0 1-5.182.3.65.65 0 0 1-.127-1.29h.027a34.706 34.706 0 0 0 9.39-3 39.1 39.1 0 0 0 4.249-2.364 33.264 33.264 0 0 0 1.976-1.356c.311-.243.629-.48.925-.728.153-.122.3-.245.439-.368l.206-.181a1.934 1.934 0 0 0 .164-.159 2.965 2.965 0 1 1 3.934 4.28z" transform="translate(-2387.475 -2746.221)" style="fill:#000072"/>
                </g>
                <g data-name="Group 487">
                    <path data-name="Path 679" d="M2356.234 2602.851a72.934 72.934 0 0 1-19.668-2.709 28.25 28.25 0 0 1-20.129-21.788c-3.1-15.451-5.008-45.574 17.12-73.717a15.819 15.819 0 0 1 21.988-3c10.845 8.068 26.678 25.857 13.789 55.627 8.054 3.493 18.989 12.412 17.02 28.067a18.689 18.689 0 0 1-14.452 15.787 71.394 71.394 0 0 1-15.668 1.733zm-10.134-98.641a10.233 10.233 0 0 0-8.056 3.956c-19.675 25.023-19.566 51.368-16.01 69.064a22.566 22.566 0 0 0 16.068 17.413 66.637 66.637 0 0 0 32.541.909 12.963 12.963 0 0 0 10.046-10.93c2.183-17.354-15.3-22.779-16.043-23l-3.212-.958 1.45-3.02c12.748-26.407 1.192-42.538-10.747-51.42a10.078 10.078 0 0 0-6.037-2.014z" transform="translate(-2137.871 -2293.045)" style="fill:#000072"/>
                </g>
            </g>
            <g data-name="Group 497">
                <g data-name="Group 489">
                    <path data-name="Path 680" d="M1131.258 2582.406a93.366 93.366 0 0 1-1.846 18.4 25.533 25.533 0 0 1-18.1 19.6 69.5 69.5 0 0 1-33.935.945 15.8 15.8 0 0 1-12.25-13.351 25.356 25.356 0 0 1-.063-6.027c1.751-15.271 18.131-20.067 18.131-20.067a73.625 73.625 0 0 1-1.751-3.914 58.94 58.94 0 0 1-2.608-7.8 42.986 42.986 0 0 1-1.364-14 36.18 36.18 0 0 1 1.745-8.755c3.159-9.485 9.808-16.184 15.594-20.485a13.05 13.05 0 0 1 18.036 2.468 84.181 84.181 0 0 1 18.411 52.986z" transform="translate(-1027.499 -2316.064)" style="fill:#ffa910"/>
                </g>
                <g data-name="Group 490">
                    <path data-name="Path 681" d="M1131.248 3040.85a93.368 93.368 0 0 1-1.846 18.4 25.533 25.533 0 0 1-18.1 19.6 69.5 69.5 0 0 1-33.935.945 15.8 15.8 0 0 1-12.251-13.361c-2.525-20.061 18.068-26.094 18.068-26.094s20.664 14.842 48.064.51z" transform="translate(-1027.489 -2774.508)" style="fill:#fff"/>
                </g>
                <g data-name="Group 491" style="opacity:.3">
                    <path data-name="Path 682" d="M1131.258 2582.406a93.366 93.366 0 0 1-1.846 18.4 25.533 25.533 0 0 1-18.1 19.6 69.5 69.5 0 0 1-33.935.945 15.8 15.8 0 0 1-12.25-13.351 25.356 25.356 0 0 1-.063-6.027c3.794 3.718 9.529 7.01 18.131 8.99 30.788 7.067 23.93-22.312 23.93-22.312-17.332.526-23.93-6.744-23.93-6.744 36.631 2.55 11.616-54.953 11.616-54.953a13.05 13.05 0 0 1 18.036 2.468 84.181 84.181 0 0 1 18.411 52.984z" transform="translate(-1027.499 -2316.064)" style="fill:#000072"/>
                </g>
                <g data-name="Group 492" style="opacity:.7">
                    <path data-name="Path 683" d="M1068.3 2612.439a25.339 25.339 0 0 1-.063-6.027c1.751-15.27 18.132-20.067 18.132-20.067a73.625 73.625 0 0 1-1.751-3.914 58.926 58.926 0 0 1-2.608-7.8 42.993 42.993 0 0 1-1.364-14 36.187 36.187 0 0 1 1.745-8.755c3.159-9.485 9.808-16.184 15.594-20.485a13.05 13.05 0 0 1 18.036 2.468c.317.4.622.807.929 1.21a91.69 91.69 0 0 0-4.1-5.651 13.05 13.05 0 0 0-18.036-2.468c-5.786 4.3-12.434 11-15.594 20.485a36.18 36.18 0 0 0-1.745 8.755 42.986 42.986 0 0 0 1.364 14 58.94 58.94 0 0 0 2.608 7.8 72.826 72.826 0 0 0 1.751 3.914s-16.38 4.8-18.131 20.067a25.356 25.356 0 0 0 .063 6.027 15.565 15.565 0 0 0 4.55 9.146 15.467 15.467 0 0 1-1.38-4.705z" transform="translate(-1027.499 -2316.064)" style="fill:#fff"/>
                </g>
                <g data-name="Group 493">
                    <path data-name="Path 684" d="m1136.174 3260.4-.107-.334-.086-.29c-.058-.19-.1-.379-.146-.563-.1-.372-.161-.74-.235-1.11q-.2-1.1-.289-2.208a26.161 26.161 0 0 1-.008-4.4 22.344 22.344 0 0 1 .721-4.311 17.1 17.1 0 0 1 1.632-4.033.641.641 0 0 1 1.194.233v.035c.176 1.406.238 2.732.41 4.047.139 1.31.306 2.594.521 3.859s.481 2.51.79 3.729c.149.611.319 1.211.482 1.807l.261.874.243.772.053.168a2.853 2.853 0 0 1-5.438 1.73z" transform="translate(-1089.962 -2954.416)" style="fill:#000072"/>
                </g>
                <g data-name="Group 494">
                    <path data-name="Path 685" d="m1268.509 3270.162-.108-.334-.086-.29c-.057-.19-.1-.379-.146-.563-.1-.373-.161-.74-.235-1.11q-.2-1.1-.289-2.208a26.161 26.161 0 0 1-.009-4.4 22.319 22.319 0 0 1 .721-4.311 17.089 17.089 0 0 1 1.632-4.033.641.641 0 0 1 1.194.233v.034c.175 1.405.238 2.732.41 4.048.139 1.309.306 2.593.521 3.859s.481 2.51.79 3.729c.149.611.319 1.211.482 1.807l.261.874.243.772.053.168a2.853 2.853 0 0 1-5.438 1.73z" transform="translate(-1207.548 -2963.086)" style="fill:#000072"/>
                </g>
                <g data-name="Group 495">
                    <path data-name="Path 686" d="M1201.045 3009.735a1.864 1.864 0 0 0 .164.158l.206.182q.211.185.439.368c.3.248.614.485.925.728.636.475 1.3.922 1.976 1.356a39.1 39.1 0 0 0 4.249 2.365 34.713 34.713 0 0 0 9.39 3h.027a.65.65 0 0 1-.127 1.29 49.111 49.111 0 0 1-5.182-.3 46 46 0 0 1-5.182-.863 42.882 42.882 0 0 1-5.113-1.463c-.845-.293-1.676-.629-2.518-.968-.418-.18-.838-.353-1.257-.552q-.314-.142-.634-.3l-.324-.163c-.112-.06-.211-.108-.359-.2l-.6-.359a2.965 2.965 0 1 1 3.04-5.092 3.025 3.025 0 0 1 .88.813z" transform="translate(-1143.689 -2746.218)" style="fill:#000072"/>
                </g>
                <g data-name="Group 496">
                    <path data-name="Path 687" d="M1069.691 2602.853a71.339 71.339 0 0 1-15.668-1.728 18.689 18.689 0 0 1-14.452-15.787c-1.969-15.656 8.966-24.574 17.02-28.068-12.889-29.77 2.944-47.559 13.789-55.627a15.821 15.821 0 0 1 21.988 3c22.129 28.144 20.225 58.266 17.12 73.717a28.249 28.249 0 0 1-20.129 21.788 72.972 72.972 0 0 1-19.668 2.705zm4.1-96.629c-11.939 8.882-23.5 25.013-10.747 51.42l1.464 3.033-3.232.948c-.738.22-18.219 5.646-16.036 23a12.963 12.963 0 0 0 10.045 10.931 66.615 66.615 0 0 0 32.541-.91 22.565 22.565 0 0 0 16.068-17.413c3.556-17.7 3.664-44.041-16.01-69.064a10.142 10.142 0 0 0-14.092-1.945z" transform="translate(-1004.774 -2293.046)" style="fill:#000072"/>
                </g>
            </g>
            <g data-name="Group 515">
                <g data-name="Group 498">
                    <path data-name="Path 688" d="M1472.359 2192a9.023 9.023 0 0 0 2.113 7.727 31.154 31.154 0 0 1 6.636 11.978 16.741 16.741 0 0 1-12.968 20.676c-10.043 2.018-25.186 3.363-40.729-1.5a20.641 20.641 0 0 1-11.375-8.495c-.2-.3-.381-.609-.558-.926a1.6 1.6 0 1 0-1.548 0c-.177.317-.361.628-.558.926a20.641 20.641 0 0 1-11.375 8.495c-15.543 4.86-30.687 3.515-40.73 1.5a16.742 16.742 0 0 1-12.967-20.681q.228-.838.514-1.637a31.7 31.7 0 0 1 6.122-10.341 9.023 9.023 0 0 0 2.113-7.727 50.488 50.488 0 0 0-.59-2.576c-.006-.026-.019-.051-.026-.083-.083-.355-.178-.71-.273-1.053a.154.154 0 0 1-.013-.051 63.392 63.392 0 0 0-1.643-5.145 90.265 90.265 0 0 0-3.933-9.034c-.006-.007-.006-.019-.013-.025a83 83 0 0 1-4.574-11.515c-.1-.317-.2-.628-.285-.939a106.55 106.55 0 0 1-2.677-10.772c-4.454-23.067.672-39.537 3.946-47.029a35.31 35.31 0 0 1 2.315-4.542s3.2-4.555 14.877-8.717c9.814-3.508 25.618-6.731 50.544-6.731 54.56 0 65.421 15.448 65.421 15.448a35.306 35.306 0 0 1 2.316 4.542c3.8 8.711 10.106 29.532.983 58.74a82.6 82.6 0 0 1-4.587 11.54 73.554 73.554 0 0 0-6.478 17.947z" transform="translate(-1273.064 -1924.562)" style="fill:#ffa910"/>
                </g>
                <g data-name="Group 499">
                    <path data-name="Path 689" d="M1609.618 2090.514c-9.814-3.508-25.618-6.731-50.544-6.731s-40.73 3.223-50.544 6.731c-9.783 21.862-1.478 42.48-1.478 42.48 11.286 30.319 52.022 39.968 52.022 39.968s40.735-9.649 52.022-39.968c.004 0 8.304-20.618-1.478-42.48z" transform="translate(-1417.434 -1924.562)" style="fill:#fff"/>
                </g>
                <g data-name="Group 500">
                    <path data-name="Path 690" d="M1466.006 3081.1a6.2 6.2 0 0 1-.774 3 15.45 15.45 0 0 1-.558.926 20.643 20.643 0 0 1-11.375 8.495c-15.543 4.86-30.687 3.515-40.729 1.5a16.741 16.741 0 0 1-12.967-20.676 31.15 31.15 0 0 1 6.636-11.978 9.022 9.022 0 0 0 2.112-7.727s10.937 22.978 40.5 9.313c.001-.004 17.155-5.669 17.155 17.147z" transform="translate(-1324.367 -2787.202)" style="fill:#fff"/>
                </g>
                <g data-name="Group 501">
                    <path data-name="Path 691" d="M2000 3081.1a6.2 6.2 0 0 0 .774 3c.178.317.361.628.558.926a20.643 20.643 0 0 0 11.375 8.495c15.543 4.86 30.687 3.515 40.729 1.5a16.741 16.741 0 0 0 12.967-20.676 31.154 31.154 0 0 0-6.636-11.978 9.023 9.023 0 0 1-2.113-7.727s-10.937 22.978-40.5 9.313c.001-.004-17.154-5.669-17.154 17.147z" transform="translate(-1858.36 -2787.202)" style="fill:#fff"/>
                </g>
                <g data-name="Group 502" style="opacity:.3">
                    <path data-name="Path 692" d="M1532.411 2604q-.228-.838-.514-1.637c-14.262 23.93-47.074 13.392-51.388 8.394-4.625-5.348 2.652-17.148 2.652-17.148 31.664 11.661 39.575-6.89 41.091-11.889.006-.026.019-.051.025-.083.165-.552.247-.926.273-1.053a.153.153 0 0 0 .013-.051c-12.979 8.515-21.421 8.457-26.889 5.226-8.6-5.078-8.656-17.443-.483-23.177 21.911-15.372 20.838-37.288 20.838-37.288-11.537 12.424-25.915 19.415-36.631 23.207a46.159 46.159 0 0 1-30.783 0c-10.715-3.792-25.094-10.783-36.631-23.207 0 0-1.073 21.916 20.838 37.288 8.172 5.734 8.112 18.1-.483 23.177-5.469 3.231-13.911 3.29-26.889-5.226a.155.155 0 0 0 .012.051c.025.127.108.5.273 1.053.006.032.019.057.025.083 1.516 5 9.427 23.55 41.091 11.889 0 0 7.277 11.8 2.652 17.148-4.314 5-37.126 15.536-51.387-8.394q-.285.8-.514 1.637a16.741 16.741 0 0 0 12.967 20.676c10.043 2.018 25.186 3.363 40.729-1.5a20.641 20.641 0 0 0 11.375-8.495c.188-.284.364-.58.534-.882a1.627 1.627 0 1 1 1.6 0c.17.3.346.6.534.882a20.641 20.641 0 0 0 11.375 8.495c15.543 4.86 30.687 3.515 40.729 1.5a16.741 16.741 0 0 0 12.966-20.676z" transform="translate(-1324.367 -2316.864)" style="fill:#000072"/>
                </g>
                <g data-name="Group 503" style="opacity:.3">
                    <path data-name="Path 693" d="M1527.758 2149.309c-16.12 8.317-38.668 15.765-67.736 15.765s-51.616-7.448-67.737-15.765a35.276 35.276 0 0 1 2.316-4.542s3.2-4.555 14.877-8.717c9.814-3.508 25.618-6.731 50.544-6.731 54.559 0 65.421 15.448 65.421 15.448a35.284 35.284 0 0 1 2.315 4.542z" transform="translate(-1318.382 -1965.021)" style="fill:#000072"/>
                </g>
                <g data-name="Group 513">
                    <g data-name="Group 504">
                        <path data-name="Path 694" d="m1458.693 3013.072.192.5q.116.293.25.593c.178.4.369.8.566 1.192a26.55 26.55 0 0 0 1.337 2.3 22.221 22.221 0 0 0 3.407 4 19.464 19.464 0 0 0 9.287 4.677 32.445 32.445 0 0 0 11.133.183c3.827-.489 7.69-1.306 11.788-1.931h.006a.619.619 0 0 1 .463 1.109 33.5 33.5 0 0 1-11.357 5.405 37.642 37.642 0 0 1-6.394 1.012c-1.087.108-2.195.088-3.3.09-.555-.008-1.112-.073-1.669-.115a15.537 15.537 0 0 1-1.671-.21 24.187 24.187 0 0 1-6.555-1.924 22.937 22.937 0 0 1-5.785-3.8 24.766 24.766 0 0 1-4.416-5.258 25.377 25.377 0 0 1-1.609-3.013 18.812 18.812 0 0 1-.646-1.6q-.147-.406-.28-.832c-.094-.3-.165-.539-.269-.945a2.848 2.848 0 0 1 5.42-1.718z" transform="translate(-1372.401 -2748.4)" style="fill:#000072"/>
                    </g>
                    <g data-name="Group 505">
                        <path data-name="Path 695" d="M1580.625 2564.271c-.826-.158-1.508-.313-2.242-.49s-1.435-.357-2.141-.561a71.71 71.71 0 0 1-4.2-1.312 84.869 84.869 0 0 1-15.893-7.375 71.982 71.982 0 0 1-7.274-4.926 65.33 65.33 0 0 1-6.645-5.759 60.541 60.541 0 0 1-5.836-6.574c-.917-1.143-1.693-2.394-2.514-3.6-.733-1.271-1.515-2.5-2.134-3.83-.328-.652-.652-1.3-.949-1.968-.276-.676-.563-1.344-.821-2.023-.13-.339-.269-.673-.39-1.015s-.223-.693-.329-1.04a57.56 57.56 0 0 1-.614-2.083.548.548 0 0 1 .989-.442l.008.013a96.436 96.436 0 0 0 9.985 13.316 68.5 68.5 0 0 0 12.31 10.8 86.912 86.912 0 0 0 14.35 7.97 99.45 99.45 0 0 0 7.657 3c1.3.442 2.6.872 3.905 1.254.653.194 1.309.378 1.959.556s1.335.351 1.9.476l.08.018a2.854 2.854 0 0 1-1.161 5.589z" transform="translate(-1439.527 -2313.066)" style="fill:#000072"/>
                    </g>
                    <g data-name="Group 506">
                        <path data-name="Path 696" d="M1976.725 2558.664c.562-.125 1.259-.3 1.9-.476s1.306-.363 1.959-.556a90.82 90.82 0 0 0 3.905-1.254c2.588-.9 5.147-1.9 7.657-3a86.9 86.9 0 0 0 14.35-7.97 68.491 68.491 0 0 0 12.31-10.8 96.418 96.418 0 0 0 9.985-13.316l.008-.012a.548.548 0 0 1 .989.441c-.189.7-.4 1.39-.613 2.083-.107.347-.214.7-.33 1.04s-.26.676-.39 1.015c-.258.679-.545 1.347-.821 2.023-.3.664-.622 1.316-.949 1.968-.619 1.328-1.4 2.56-2.134 3.83-.821 1.207-1.6 2.458-2.514 3.6a60.616 60.616 0 0 1-5.836 6.574 65.34 65.34 0 0 1-6.645 5.759 72.1 72.1 0 0 1-7.274 4.926 84.881 84.881 0 0 1-15.893 7.376 69.538 69.538 0 0 1-4.2 1.311q-1.059.306-2.141.561c-.734.177-1.416.332-2.242.49a2.854 2.854 0 0 1-1.165-5.587z" transform="translate(-1835.626 -2313.066)" style="fill:#000072"/>
                    </g>
                    <g data-name="Group 507">
                        <path data-name="Path 697" d="M1475.458 3255.28c-.2-.478-.328-.857-.464-1.283s-.241-.831-.347-1.247a21.982 21.982 0 0 1-.478-2.533 25.1 25.1 0 0 1-.156-5.2 19.309 19.309 0 0 1 1.1-5.219 11.856 11.856 0 0 1 2.968-4.546 1.024 1.024 0 0 1 1.7.9l-.015.1a31.231 31.231 0 0 0-.318 4.415c.02 1.44.125 2.875.262 4.316s.37 2.9.588 4.352l.337 2.19c.044.369.121.727.163 1.095.052.351.112.748.134 1.038l.024.308a2.862 2.862 0 0 1-5.5 1.31z" transform="translate(-1390.939 -2947.454)" style="fill:#000072"/>
                    </g>
                    <g data-name="Group 508">
                        <path data-name="Path 698" d="M1657.266 3273.674c-.2-.478-.327-.857-.464-1.283s-.241-.831-.347-1.247a21.981 21.981 0 0 1-.478-2.533 25.113 25.113 0 0 1-.156-5.2 19.309 19.309 0 0 1 1.1-5.219 11.857 11.857 0 0 1 2.968-4.546 1.024 1.024 0 0 1 1.7.9l-.015.1a31.252 31.252 0 0 0-.318 4.415c.02 1.44.125 2.875.262 4.315s.37 2.9.588 4.353l.337 2.19c.044.369.121.727.163 1.094.052.351.112.748.134 1.038l.024.308a2.862 2.862 0 0 1-5.5 1.31z" transform="translate(-1552.482 -2963.798)" style="fill:#000072"/>
                    </g>
                    <g data-name="Group 509">
                        <path data-name="Path 699" d="M2193.74 3014.517c-.1.407-.176.646-.269.946q-.133.425-.28.831c-.192.547-.41 1.075-.646 1.6a25.448 25.448 0 0 1-1.609 3.013 24.783 24.783 0 0 1-4.416 5.258 22.942 22.942 0 0 1-5.785 3.8 24.185 24.185 0 0 1-6.554 1.924 15.491 15.491 0 0 1-1.671.21c-.557.042-1.114.107-1.67.115-1.108 0-2.215.019-3.3-.09a37.641 37.641 0 0 1-6.394-1.012 33.5 33.5 0 0 1-11.357-5.405.619.619 0 0 1 .462-1.109h.007c4.1.625 7.961 1.442 11.788 1.931a32.444 32.444 0 0 0 11.133-.184 19.464 19.464 0 0 0 9.288-4.677 22.217 22.217 0 0 0 3.407-4c.478-.746.936-1.51 1.338-2.3.2-.4.388-.8.566-1.192q.135-.3.25-.593l.191-.5.1-.271a2.848 2.848 0 0 1 5.42 1.718z" transform="translate(-1991.23 -2748.399)" style="fill:#000072"/>
                    </g>
                    <g data-name="Group 510">
                        <path data-name="Path 700" d="M2463.082 3253.663c.022-.291.083-.688.135-1.038.042-.368.119-.726.163-1.095l.337-2.19c.218-1.456.444-2.909.588-4.352s.242-2.875.262-4.316a31.316 31.316 0 0 0-.318-4.415l-.014-.1a1.024 1.024 0 0 1 1.7-.906 11.855 11.855 0 0 1 2.968 4.546 19.314 19.314 0 0 1 1.1 5.219 25.1 25.1 0 0 1-.156 5.2 21.856 21.856 0 0 1-.478 2.533c-.105.416-.214.835-.347 1.247s-.267.8-.464 1.282a2.862 2.862 0 0 1-5.5-1.305z" transform="translate(-2269.799 -2947.455)" style="fill:#000072"/>
                    </g>
                    <g data-name="Group 511">
                        <path data-name="Path 701" d="M2281.276 3272.057c.022-.291.082-.688.134-1.038.042-.368.119-.726.163-1.095l.337-2.19c.219-1.456.444-2.909.588-4.352s.241-2.875.262-4.316a31.285 31.285 0 0 0-.318-4.415l-.014-.1a1.024 1.024 0 0 1 1.7-.906 11.859 11.859 0 0 1 2.968 4.547 19.3 19.3 0 0 1 1.1 5.218 25.082 25.082 0 0 1-.156 5.2 21.975 21.975 0 0 1-.478 2.533 17.183 17.183 0 0 1-.811 2.53 2.862 2.862 0 0 1-5.5-1.306z" transform="translate(-2108.256 -2963.799)" style="fill:#000072"/>
                    </g>
                    <g data-name="Group 512">
                        <path data-name="Path 702" d="M1977.242 2909.479a2.855 2.855 0 0 1-2.855-2.855v-45.5a2.855 2.855 0 1 1 5.71 0v45.5a2.855 2.855 0 0 1-2.855 2.855z" transform="translate(-1835.603 -2612.727)" style="fill:#000072"/>
                    </g>
                </g>
                <g data-name="Group 514">
                    <path data-name="Path 703" d="M1356.334 2214.3a95.335 95.335 0 0 1-18.641-1.886 19.843 19.843 0 0 1-12.937-9.014 19.092 19.092 0 0 1-2.22-15.213 33.976 33.976 0 0 1 7.242-13.1 6.211 6.211 0 0 0 1.465-5.278 70.878 70.878 0 0 0-6.187-17.142l-.058-.119a85.646 85.646 0 0 1-4.749-11.939c-12.5-40.013 2.964-64.653 3.628-65.683l.063-.093c.478-.68 12.348-16.664 67.754-16.664s67.276 15.984 67.754 16.664l.063.093c.664 1.03 16.127 25.669 3.628 65.683a85.674 85.674 0 0 1-4.749 11.939l-.058.119a70.878 70.878 0 0 0-6.187 17.141 6.211 6.211 0 0 0 1.465 5.279 33.976 33.976 0 0 1 7.242 13.1 19.092 19.092 0 0 1-2.22 15.213 19.842 19.842 0 0 1-12.936 9.014c-10.317 2.071-26 3.48-42.149-1.571a23.836 23.836 0 0 1-11.853-8.145 23.839 23.839 0 0 1-11.853 8.145 78.719 78.719 0 0 1-23.507 3.457zm-27.711-136.2c-.953 1.581-14.222 24.625-2.924 60.8a79.948 79.948 0 0 0 4.432 11.142l.057.118a76.078 76.078 0 0 1 6.65 18.5 11.953 11.953 0 0 1-2.763 10.176 28.242 28.242 0 0 0-6.033 10.85 13.44 13.44 0 0 0 1.573 10.708 14.116 14.116 0 0 0 9.2 6.413c9.662 1.94 24.328 3.268 39.32-1.422a17.865 17.865 0 0 0 9.818-7.3c.163-.256.32-.519.469-.787a3.31 3.31 0 0 0 .416-1.607h5.71a3.307 3.307 0 0 0 .415 1.606q.224.4.47.788a17.864 17.864 0 0 0 9.817 7.3c14.992 4.689 29.657 3.362 39.32 1.422a14.116 14.116 0 0 0 9.2-6.413 13.439 13.439 0 0 0 1.573-10.708 28.24 28.24 0 0 0-6.033-10.85 11.953 11.953 0 0 1-2.763-10.177 76.086 76.086 0 0 1 6.65-18.5l.057-.118a79.9 79.9 0 0 0 4.432-11.142c11.394-36.478-2.064-59.4-2.933-60.815-.557-.67-12.465-14.212-63.062-14.212-50.149.003-62.291 13.307-63.068 14.228zm127.2 73.19z" transform="translate(-1250.054 -1901.799)" style="fill:#000072"/>
                </g>
            </g>
            <g data-name="Group 558">
                <g data-name="Group 520">
                    <g data-name="Group 516">
                        <path data-name="Path 704" d="M893.516 854.444c-33.421-2.29-38.027-19.28-33.459-36.707 3.5-13.38 12.4-27.02 17.821-34.481a44.128 44.128 0 0 0 6.446-12.98c19.07-61.97 60.828-42.132 60.828-42.132s.121.818.317 2.316c2.239 17.529 13.849 128.495-51.953 123.984z" transform="translate(-844.159 -717.338)" style="fill:#ffa910"/>
                    </g>
                    <g data-name="Group 517" style="opacity:.3">
                        <path data-name="Path 705" d="M893.516 897c-33.421-2.29-38.027-19.28-33.459-36.707l.149.223c7.262 10.835 23.959 8.091 27.455-4.475a175.274 175.274 0 0 0 4.72-22.095c2.474-17.51 18.588-58.709 53.088-60.929 2.239 17.527 13.849 128.492-51.953 123.983z" transform="translate(-844.159 -759.893)" style="fill:#000072"/>
                    </g>
                    <g data-name="Group 518" style="opacity:.7">
                        <path data-name="Path 706" d="M880.363 790.869a44.127 44.127 0 0 0 6.446-12.98c19.071-61.97 60.828-42.132 60.828-42.132s.12.819.317 2.316c1.2 9.36 5.062 45.363-1.612 76.2 9.245-32.238 4.811-73.669 3.515-83.813-.2-1.5-.317-2.316-.317-2.316s-41.757-19.838-60.828 42.132a44.129 44.129 0 0 1-6.446 12.98c-5.424 7.461-14.325 21.1-17.821 34.481q-.567 2.164-.933 4.311c3.969-12.279 11.872-24.332 16.851-31.179z" transform="translate(-848.546 -717.338)" style="fill:#fff"/>
                    </g>
                    <g data-name="Group 519">
                        <path data-name="Path 707" d="M874.476 834.542q-1.978 0-4.021-.14c-18.537-1.27-30.381-7.15-35.2-17.476-8.468-18.13 7.3-44.271 17.452-58.239a41.207 41.207 0 0 0 6.023-12.146c7-22.758 17.843-37.5 32.214-43.823 16.771-7.377 31.934-.35 32.571-.047l1.371.651.227 1.5a290.734 290.734 0 0 1 2.462 45.207c-.866 33.046-7.789 56.835-20.576 70.707-8.457 9.173-19.382 13.806-32.523 13.806zM907 705.1a33.982 33.982 0 0 0-13.839 2.877c-12.746 5.645-22.5 19.184-28.976 40.241a46.909 46.909 0 0 1-6.861 13.823c-7.579 10.427-24.4 36.412-16.9 52.466 3.878 8.3 14.113 13.078 30.421 14.2 13.133.9 23.883-3.083 31.952-11.837 26.166-28.387 18.376-98.109 16.885-109.587A38.272 38.272 0 0 0 907 705.1z" transform="translate(-821.292 -694.447)" style="fill:#000072"/>
                    </g>
                </g>
                <g data-name="Group 525">
                    <g data-name="Group 521">
                        <path data-name="Path 708" d="M2396.223 854.444c33.421-2.29 38.027-19.28 33.459-36.707-3.5-13.38-12.4-27.02-17.821-34.481a44.137 44.137 0 0 1-6.445-12.98c-19.071-61.97-60.828-42.132-60.828-42.132s-.121.818-.317 2.316c-2.24 17.529-13.85 128.495 51.952 123.984z" transform="translate(-2162.301 -717.339)" style="fill:#ffa910"/>
                    </g>
                    <g data-name="Group 522" style="opacity:.3">
                        <path data-name="Path 709" d="M2396.223 897c33.421-2.29 38.027-19.28 33.459-36.707l-.149.223c-7.261 10.835-23.959 8.091-27.454-4.475a175.264 175.264 0 0 1-4.72-22.095c-2.474-17.51-18.588-58.709-53.088-60.929-2.24 17.527-13.85 128.492 51.952 123.983z" transform="translate(-2162.301 -759.894)" style="fill:#000072"/>
                    </g>
                    <g data-name="Group 523" style="opacity:.7">
                        <path data-name="Path 710" d="M2413.766 790.869a44.116 44.116 0 0 1-6.446-12.98c-19.071-61.97-60.828-42.132-60.828-42.132s-.121.819-.317 2.316c-1.2 9.36-5.062 45.363 1.612 76.2-9.245-32.238-4.811-73.669-3.515-83.813.2-1.5.317-2.316.317-2.316s41.757-19.838 60.828 42.132a44.126 44.126 0 0 0 6.445 12.98c5.425 7.461 14.325 21.1 17.821 34.481q.567 2.164.933 4.311c-3.968-12.279-11.872-24.332-16.85-31.179z" transform="translate(-2162.302 -717.339)" style="fill:#fff"/>
                    </g>
                    <g data-name="Group 524">
                        <path data-name="Path 711" d="M2369.651 834.547c-13.142 0-24.066-4.633-32.519-13.8-12.787-13.872-19.709-37.662-20.576-70.707a290.677 290.677 0 0 1 2.463-45.207l.226-1.5 1.371-.651c.638-.3 15.8-7.329 32.571.047 14.371 6.321 25.209 21.065 32.214 43.823a41.207 41.207 0 0 0 6.023 12.146c10.152 13.969 25.92 40.109 17.452 58.239-4.823 10.326-16.667 16.206-35.2 17.476q-2.046.134-4.025.134zm-45.2-127.268c-1.486 11.46-9.272 81.226 16.887 109.6 8.069 8.752 18.819 12.732 31.948 11.833 16.308-1.117 26.543-5.893 30.421-14.2 7.5-16.054-9.32-42.039-16.9-52.466a46.894 46.894 0 0 1-6.862-13.823c-6.5-21.1-16.271-34.653-29.056-40.277-11.708-5.146-22.673-2.046-26.442-.667z" transform="translate(-2139.555 -694.452)" style="fill:#000072"/>
                    </g>
                </g>
                <g data-name="Group 544">
                    <g data-name="Group 526">
                        <path data-name="Path 712" d="M1208.716 867.2c-116.415 0-101.373-51.451-94.845-66.544a71.417 71.417 0 0 0 1.967-5.107 185.606 185.606 0 0 0 6.649-27.508c.647-3.775 1.117-7.581 1.491-11.394 7.854-79.245 84.739-75.692 84.739-75.692s76.885-3.553 84.739 75.692c.374 3.813.844 7.619 1.491 11.394 1.478 8.6 4.346 22.75 8.615 32.615 6.527 15.096 21.569 66.544-94.846 66.544z" transform="translate(-1067.076 -678.076)" style="fill:#ffa910"/>
                    </g>
                    <g data-name="Group 527">
                        <path data-name="Path 713" d="M1303.561 1501.439a71.897 71.897 0 0 1-1.967-5.107c-6.268-3.134-16.942-5.989-31.061-.6a33.766 33.766 0 0 1-36.643-8.429q-1.241-1.322-2.519-2.785a241.066 241.066 0 0 0-7.829-8.575 20.559 20.559 0 0 0-29.651 0c-2.377 2.477-5 5.326-7.829 8.575q-1.276 1.464-2.519 2.785a33.766 33.766 0 0 1-36.643 8.429c-14.119-5.384-24.794-2.529-31.061.6a72.728 72.728 0 0 1-1.967 5.107c-6.528 15.093-21.57 66.544 94.845 66.544s101.372-51.451 94.844-66.544z" transform="translate(-1067.076 -1378.856)" style="fill:#fff"/>
                    </g>
                    <g data-name="Group 528" style="opacity:.3">
                        <path data-name="Path 714" d="M1208.716 1795.781c-116.415 0-101.373-51.451-94.845-66.544q.667-1.551 1.294-3.229c-4.143 19.128 1.5 53.526 93.551 53.526 92.073 0 97.693-34.411 93.551-53.538a59.481 59.481 0 0 0 1.294 3.242c6.528 15.092 21.57 66.543-94.845 66.543z" transform="translate(-1067.076 -1606.654)" style="fill:#000072"/>
                    </g>
                    <g data-name="Group 529" style="opacity:.7">
                        <path data-name="Path 715" d="M1303.575 800.66c-4.27-9.865-7.137-24.013-8.615-32.615-.647-3.775-1.117-7.581-1.491-11.394-7.854-79.245-84.739-75.692-84.739-75.692s-76.885-3.553-84.739 75.692c-.374 3.813-.844 7.619-1.491 11.394a185.62 185.62 0 0 1-6.649 27.508 72.728 72.728 0 0 1-1.967 5.107c-2.37 5.479-5.86 15.751-3.777 26.613a50.646 50.646 0 0 1 4.412-20.273 72.84 72.84 0 0 0 1.967-5.107 185.622 185.622 0 0 0 6.649-27.508c.647-3.775 1.116-7.581 1.491-11.394 3.8-38.333 23.752-57.291 43.34-66.65 1.56 3.031 8.629 3.735 16.365 1.513 7.68-2.206 13.275-6.506 13.075-9.893a79.43 79.43 0 0 1 11.958-.662s76.885-3.553 84.739 75.692c.374 3.813.844 7.619 1.491 11.394 1.478 8.6 4.346 22.75 8.615 32.615a55.393 55.393 0 0 1 3.769 12.426 51.562 51.562 0 0 0-4.403-18.766z" transform="translate(-1067.09 -678.076)" style="fill:#fff"/>
                    </g>
                    <g data-name="Group 536">
                        <g data-name="Group 532">
                            <path data-name="Path 718" d="M1829.557 1662.523c0 7.6-10.945 15.669-24.448 15.669s-24.448-8.066-24.448-15.669 10.946-13.766 24.448-13.766 24.448 6.163 24.448 13.766z" transform="translate(-1663.47 -1538.024)" style="fill:#000072"/>
                        </g>
                        <g data-name="Group 533" transform="translate(128.657 115.311)">
                            <ellipse data-name="Ellipse 59" cx="12.983" cy="2.311" rx="12.983" ry="2.311" style="fill:#fff"/>
                        </g>
                        <g data-name="Group 534">
                            <path data-name="Path 719" d="M1645.343 1840.15c.539 4.467 2.131 8.981 4.91 12.1a13.243 13.243 0 0 0 4.977 3.5l.714.272.74.216c.482.169 1.008.238 1.506.366.52.072 1.033.167 1.56.213.533.022 1.05.113 1.593.1a30.044 30.044 0 0 0 3.272-.106c.547-.042 1.09-.093 1.624-.18.54-.063 1.066-.171 1.591-.276s1.036-.246 1.554-.366c.5-.164 1.015-.292 1.5-.491a18.586 18.586 0 0 0 2.807-1.295 18.891 18.891 0 0 0 4.82-3.8 22.8 22.8 0 0 0 1.979-2.524c.3-.455.6-.922.883-1.4s.548-1.005.783-1.449l.072-.136a.959.959 0 0 1 1.806.4 10.521 10.521 0 0 1-.084 2.014 13.366 13.366 0 0 1-.393 1.933 15.5 15.5 0 0 1-1.561 3.669 16.566 16.566 0 0 1-5.68 5.742 18.966 18.966 0 0 1-3.651 1.734c-.626.247-1.268.409-1.9.607-.641.148-1.281.332-1.927.436s-1.29.228-1.935.29c-.646.087-1.289.135-1.931.169a30.957 30.957 0 0 1-3.868-.014 20.228 20.228 0 0 1-7.741-1.963 16.493 16.493 0 0 1-3.434-2.219 15.365 15.365 0 0 1-2.766-2.962 19.581 19.581 0 0 1-1.969-3.436 21.409 21.409 0 0 1-1.21-3.667 23.087 23.087 0 0 1-.57-3.741 20.959 20.959 0 0 1 .034-3.78.953.953 0 0 1 1.895-.018z" transform="translate(-1541.451 -1707.275)" style="fill:#000072"/>
                        </g>
                        <g data-name="Group 535">
                            <path data-name="Path 720" d="M1977.851 1845.323v.006l.014.058.034.143.085.317c.062.218.135.442.212.666.16.448.344.9.542 1.337a15.557 15.557 0 0 0 1.463 2.5 14.336 14.336 0 0 0 4.248 3.877 16.691 16.691 0 0 0 2.677 1.3c.461.2.961.329 1.443.5.5.122.991.281 1.508.375s1.025.213 1.554.277c.521.092 1.052.151 1.588.2a27.388 27.388 0 0 0 3.209.131 16.663 16.663 0 0 0 5.933-1.1 12.628 12.628 0 0 0 4.77-3.371c2.706-2.975 4.381-7.317 5.326-11.769l.016-.074a.959.959 0 0 1 1.88.021 18.184 18.184 0 0 1 .281 3.818 21.264 21.264 0 0 1-.431 3.82 18.777 18.777 0 0 1-3.149 7.315 16.13 16.13 0 0 1-2.865 3.036 17 17 0 0 1-3.543 2.27 20.5 20.5 0 0 1-3.91 1.418c-.665.143-1.337.3-2.006.391-.666.072-1.343.2-2 .216a33.368 33.368 0 0 1-3.931.039 24.279 24.279 0 0 1-1.966-.149c-.656-.061-1.314-.174-1.973-.289s-1.315-.281-1.973-.428c-.653-.2-1.312-.355-1.956-.6a20.135 20.135 0 0 1-10.033-7.4 19.976 19.976 0 0 1-2.078-3.691 18.457 18.457 0 0 1-.733-2c-.1-.344-.2-.691-.283-1.051l-.12-.552-.056-.295-.059-.376a3.172 3.172 0 1 1 6.283-.878z" transform="translate(-1833.07 -1707.885)" style="fill:#000072"/>
                        </g>
                    </g>
                    <g data-name="Group 539">
                        <g data-name="Group 537" transform="translate(92.201 79.353)">
                            <ellipse data-name="Ellipse 60" cx="11.512" cy="14.626" rx="11.512" ry="14.626" style="fill:#000072"/>
                        </g>
                        <g data-name="Group 538" transform="translate(101.623 85.626)">
                            <ellipse data-name="Ellipse 61" cx="4.768" cy="6.057" rx="4.768" ry="6.057" transform="translate(.279 .279)" style="fill:#fff"/>
                            <path data-name="Path 721" d="M1646.026 1436.177c-2.783 0-5.047-2.842-5.047-6.336s2.264-6.336 5.047-6.336 5.046 2.842 5.046 6.336-2.264 6.336-5.046 6.336zm0-12.115c-2.475 0-4.489 2.592-4.489 5.779s2.014 5.779 4.489 5.779 4.489-2.592 4.489-5.779-2.015-5.778-4.489-5.778z" transform="translate(-1640.979 -1423.505)" style="fill:#000072"/>
                        </g>
                    </g>
                    <g data-name="Group 542">
                        <g data-name="Group 540" transform="translate(168.055 79.353)">
                            <ellipse data-name="Ellipse 62" cx="11.512" cy="14.626" rx="11.512" ry="14.626" style="fill:#000072"/>
                        </g>
                        <g data-name="Group 541" transform="translate(171.842 85.905)">
                            <ellipse data-name="Ellipse 63" cx="4.768" cy="6.057" rx="4.768" ry="6.057" style="fill:#fff"/>
                        </g>
                    </g>
                    <g data-name="Group 543">
                        <path data-name="Path 722" d="M1186.084 847.276c-51.044 0-83.4-9.852-96.165-29.282-10.043-15.285-5.126-32.406-1.3-41.252 4.238-9.8 7.1-24.234 8.422-31.965.577-3.36 1.042-6.917 1.466-11.192 4.189-42.3 27.865-61.354 46.989-69.89a102.508 102.508 0 0 1 81.176 0c19.124 8.535 42.8 27.589 46.989 69.89.424 4.276.889 7.832 1.466 11.192 1.327 7.732 4.185 22.166 8.422 31.965 3.825 8.846 8.743 25.967-1.3 41.252-12.767 19.431-45.121 29.282-96.165 29.282zm-1.362-186.267a95.535 95.535 0 0 0-37.088 7.986c-25.689 11.543-40.306 33.464-43.445 65.154-.431 4.353-.928 8.146-1.52 11.6-1.673 9.751-4.56 23.437-8.809 33.265-3.368 7.789-7.74 22.805.832 35.85 5.135 7.816 14.251 14.026 27.093 18.457 15.866 5.474 37.5 8.25 64.3 8.25s48.434-2.776 64.3-8.25c12.842-4.431 21.957-10.641 27.093-18.457 8.572-13.045 4.2-28.061.832-35.85-4.25-9.827-7.136-23.514-8.809-33.266-.592-3.449-1.089-7.242-1.521-11.6-3.138-31.689-17.755-53.61-43.445-65.154a94.54 94.54 0 0 0-38.32-7.967l-.13.006-.132-.006c-.028-.001-.453-.018-1.231-.018z" transform="translate(-1044.444 -655.292)" style="fill:#000072"/>
                    </g>
                </g>
                <g data-name="Group 557">
                    <g data-name="Group 548">
                        <g data-name="Group 545">
                            <path data-name="Path 723" d="M1798.235 1939.044c20.782 0 28.267-14.241 24.272-27.292-1.858-6.069-1.129-19.941-1.129-19.941s-22.151 1.759-23.148-15.982c-1 17.741-23.148 15.982-23.148 15.982s.729 13.872-1.129 19.941c-4 13.051 3.489 27.292 24.272 27.292" transform="translate(-1656.589 -1739.786)" style="fill:#f958a9"/>
                        </g>
                        <g data-name="Group 546">
                            <path data-name="Path 724" d="M1976.935 1854.927c.306 3.586.368 7.171.4 10.757q.008 5.378-.24 10.757c-.16 3.586-.374 7.171-.785 10.757a82.013 82.013 0 0 1-1.841 10.757.4.4 0 0 1-.771 0 81.932 81.932 0 0 1-1.841-10.757c-.412-3.586-.625-7.171-.785-10.757s-.245-7.171-.24-10.757c.028-3.586.09-7.171.4-10.757a2.865 2.865 0 0 1 5.71 0z" transform="translate(-1832.44 -1718.884)" style="fill:#000072"/>
                        </g>
                        <g data-name="Group 547">
                            <path data-name="Path 725" d="M1775.455 1940.621h-.01c-10.574 0-19.062-3.6-23.9-10.146-4.261-5.761-5.391-13.356-3.1-20.837 1.4-4.577 1.2-15.235 1.008-18.955l-.17-3.253 3.247.258c.1.007 10.231.712 16.038-4.376a12.11 12.11 0 0 0 4.033-8.92h5.7a12.109 12.109 0 0 0 4.033 8.92c5.807 5.088 15.942 4.384 16.043 4.376l3.236-.245-.165 3.242c-.195 3.72-.393 14.379 1.008 18.955 2.29 7.481 1.16 15.076-3.1 20.837-4.839 6.54-13.327 10.144-23.901 10.144zm-20.2-47.207c.107 4.577.084 13.188-1.357 17.9-1.755 5.732-.942 11.48 2.231 15.77 3.789 5.123 10.467 7.831 19.311 7.831h.01c8.844 0 15.521-2.708 19.311-7.831 3.173-4.29 3.987-10.038 2.232-15.77-1.442-4.708-1.464-13.319-1.357-17.9-4.214-.153-11.712-1.131-17.045-5.787a17.1 17.1 0 0 1-3.145-3.62 17.1 17.1 0 0 1-3.145 3.62c-5.33 4.655-12.827 5.634-17.041 5.787z" transform="translate(-1633.809 -1738.508)" style="fill:#000072"/>
                        </g>
                    </g>
                    <g data-name="Group 556">
                        <g data-name="Group 549">
                            <path data-name="Path 726" d="M1680.241 1799.591s-8.836 16.451-27.733 5.3c0 0-1.722 19.3 18.489 19.3s20.211-19.984 20.211-19.984z" transform="translate(-1549.567 -1672.046)" style="fill:#fff"/>
                        </g>
                        <g data-name="Group 550">
                            <path data-name="Path 727" d="M2010.966 1799.591s8.836 16.451 27.733 5.3c0 0 1.722 19.3-18.489 19.3s-20.21-19.977-20.21-19.977z" transform="translate(-1858.36 -1672.046)" style="fill:#fff"/>
                        </g>
                        <g data-name="Group 551" style="opacity:.3">
                            <path data-name="Path 728" d="M1715.832 1689.4s-2.483 8.157-14.253 10.094a14.449 14.449 0 0 1-10.2-1.77c6.178-3.049 10.207-7.826 10.207-12.436 0-7.6-10.945-13.766-24.448-13.766s-24.448 6.163-24.448 13.766c0 4.608 4.026 9.384 10.2 12.433a14.449 14.449 0 0 1-10.2 1.773c-11.771-1.937-14.253-10.094-14.253-10.094s-10.194 25.354 17.946 27.937c0 0 10.367 1.223 20.749-7.477 10.383 8.7 20.749 7.477 20.749 7.477 28.145-2.581 17.951-27.937 17.951-27.937z" transform="translate(-1535.501 -1558.253)" style="fill:#000072"/>
                        </g>
                        <g data-name="Group 552">
                            <path data-name="Path 729" d="M1829.557 1662.523c0 7.6-10.945 15.669-24.448 15.669s-24.448-8.066-24.448-15.669 10.946-13.766 24.448-13.766 24.448 6.163 24.448 13.766z" transform="translate(-1663.469 -1538.024)" style="fill:#000072"/>
                        </g>
                        <g data-name="Group 553" transform="translate(128.657 115.311)">
                            <ellipse data-name="Ellipse 64" cx="12.983" cy="2.311" rx="12.983" ry="2.311" style="fill:#fff"/>
                        </g>
                        <g data-name="Group 554">
                            <path data-name="Path 730" d="m1684.8 1846.2-.06.376-.056.294-.12.552c-.085.36-.181.707-.283 1.051a18.407 18.407 0 0 1-.733 2 19.976 19.976 0 0 1-2.078 3.691 20.672 20.672 0 0 1-10.033 7.4c-.645.246-1.3.406-1.956.6-.657.146-1.314.324-1.973.428s-1.317.228-1.973.289a24.74 24.74 0 0 1-1.966.149 33.312 33.312 0 0 1-3.931-.039c-.662-.018-1.339-.144-2-.216-.669-.094-1.341-.248-2.005-.391a20.492 20.492 0 0 1-3.91-1.418 17 17 0 0 1-3.543-2.27 16.14 16.14 0 0 1-2.865-3.036 18.783 18.783 0 0 1-3.15-7.315 21.286 21.286 0 0 1-.43-3.82 18.183 18.183 0 0 1 .281-3.818.959.959 0 0 1 1.88-.022l.016.075c.945 4.452 2.62 8.794 5.326 11.769a12.629 12.629 0 0 0 4.77 3.371 16.663 16.663 0 0 0 5.933 1.1 27.384 27.384 0 0 0 3.209-.131 19.205 19.205 0 0 0 1.589-.2c.529-.064 1.041-.172 1.553-.277s1.006-.253 1.508-.375c.481-.167.981-.3 1.442-.5a16.686 16.686 0 0 0 2.677-1.3 14.332 14.332 0 0 0 4.248-3.877 15.574 15.574 0 0 0 1.463-2.5c.2-.441.382-.889.542-1.337.077-.224.15-.448.212-.666l.084-.317.035-.143.013-.058c0-.015.009-.043 0-.005a3.172 3.172 0 1 1 6.283.878z" transform="translate(-1540.021 -1707.883)" style="fill:#000072"/>
                        </g>
                        <g data-name="Group 555">
                            <path data-name="Path 731" d="M1977.851 1845.323v.006l.014.058.034.143.085.317c.062.218.135.442.212.666.16.448.344.9.542 1.337a15.557 15.557 0 0 0 1.463 2.5 14.336 14.336 0 0 0 4.248 3.877 16.691 16.691 0 0 0 2.677 1.3c.461.2.961.329 1.443.5.5.122.991.281 1.508.375s1.025.213 1.554.277c.521.092 1.052.151 1.588.2a27.388 27.388 0 0 0 3.209.131 16.663 16.663 0 0 0 5.933-1.1 12.628 12.628 0 0 0 4.77-3.371c2.706-2.975 4.381-7.317 5.326-11.769l.016-.074a.959.959 0 0 1 1.88.021 18.184 18.184 0 0 1 .281 3.818 21.264 21.264 0 0 1-.431 3.82 18.777 18.777 0 0 1-3.149 7.315 16.13 16.13 0 0 1-2.865 3.036 17 17 0 0 1-3.543 2.27 20.5 20.5 0 0 1-3.91 1.418c-.665.143-1.337.3-2.006.391-.666.072-1.343.2-2 .216a33.368 33.368 0 0 1-3.931.039 24.279 24.279 0 0 1-1.966-.149c-.656-.061-1.314-.174-1.973-.289s-1.315-.281-1.973-.428c-.653-.2-1.312-.355-1.956-.6a20.135 20.135 0 0 1-10.033-7.4 19.976 19.976 0 0 1-2.078-3.691 18.457 18.457 0 0 1-.733-2c-.1-.344-.2-.691-.283-1.051l-.12-.552-.056-.295-.059-.376a3.172 3.172 0 1 1 6.283-.878z" transform="translate(-1833.069 -1707.884)" style="fill:#000072"/>
                        </g>
                    </g>
                </g>
            </g>
        </g>
    </g>
</svg>
