<svg xmlns="http://www.w3.org/2000/svg" width="273.344" height="262.574" viewBox="0 0 273.344 262.574">
    <g data-name="Group 117">
        <path data-name="Path 306" d="M972.849 1159.138c35.23 0 63.791-27.509 63.791-61.442s-28.56-61.443-63.791-61.443-63.791 27.509-63.791 61.443 28.559 61.442 63.791 61.442z" transform="translate(-801.749 -896.564)" style="fill:#8d70ce"/>
        <path data-name="Path 307" d="M1016.357 1190.326c29.079 0 52.652-22.705 52.652-50.713s-23.573-50.713-52.652-50.713-52.652 22.7-52.652 50.713 23.573 50.713 52.652 50.713z" transform="translate(-845.276 -938.498)" style="fill:#69519e"/>
        <path data-name="Path 308" d="M1205.3 1036.253h-3.177a1.894 1.894 0 0 0-1.928 1.857v14.19a1.893 1.893 0 0 0 1.928 1.856h3.177a1.893 1.893 0 0 0 1.928-1.856v-14.19a1.893 1.893 0 0 0-1.928-1.857z" transform="translate(-1033.645 -896.564)" style="fill:#bb91e8"/>
        <path data-name="Path 309" d="M1210.269 1552.112h-3.177a1.893 1.893 0 0 0-1.927 1.857v14.187a1.893 1.893 0 0 0 1.927 1.857h3.177a1.893 1.893 0 0 0 1.927-1.857v-14.187a1.893 1.893 0 0 0-1.927-1.857z" transform="translate(-1037.603 -1307.455)" style="fill:#bb91e8"/>
        <path data-name="Path 310" d="M1463.219 1324.462v-3.06a1.894 1.894 0 0 0-1.927-1.857h-14.73a1.893 1.893 0 0 0-1.928 1.857v3.06a1.893 1.893 0 0 0 1.928 1.857h14.73a1.893 1.893 0 0 0 1.927-1.857z" transform="translate(-1228.345 -1122.211)" style="fill:#bb91e8"/>
        <path data-name="Path 311" d="M1210.264 1198.96h-1.174c-1.071 0-1.94.536-1.94 1.2v27.986c0 .662.869 1.2 1.94 1.2h1.174c1.073 0 1.94-.536 1.94-1.2v-27.986c-.004-.66-.868-1.2-1.94-1.2z" transform="translate(-1039.184 -1026.163)" style="fill:#bb91e8"/>
        <path data-name="Path 312" d="M1229.6 1327.328v-1.128c0-1.031-.4-1.868-.884-1.868h-20.674c-.489 0-.885.837-.885 1.868v1.131c0 1.032.4 1.869.885 1.869h20.674c.484 0 .884-.84.884-1.872z" transform="translate(-1039.188 -1126.021)" style="fill:#bb91e8"/>
        <path data-name="Path 313" d="m668.494 711.792-2.243-.182c.086-1.178.194-2.393.323-3.59l2.234.271a101.014 101.014 0 0 0-.314 3.501zm.747-7-2.223-.354c.167-1.2.357-2.393.561-3.554l2.21.438a88.729 88.729 0 0 0-.549 3.478zm1.216-6.917-2.194-.524c.248-1.176.521-2.353.808-3.5l2.173.61a98.484 98.484 0 0 0-.788 3.419zm1.7-6.795-2.149-.706c.338-1.159.7-2.31 1.075-3.425l2.117.8a88.667 88.667 0 0 0-1.044 3.336zm2.227-6.6-2.078-.907a78.12 78.12 0 0 1 1.373-3.31l2.029 1.017a87.617 87.617 0 0 0-1.323 3.2zm2.809-6.318-1.971-1.127a73.673 73.673 0 0 1 1.707-3.143l1.914 1.253a54.898 54.898 0 0 0-1.65 3.022zm3.44-5.924-1.836-1.376c.661-1 1.353-1.969 2.063-2.9l1.747 1.5a66.443 66.443 0 0 0-1.975 2.782zm4.118-5.39-1.638-1.617c.782-.891 1.6-1.754 2.429-2.568l1.524 1.754a44.238 44.238 0 0 0-2.311 2.431zm4.79-4.688-1.393-1.875c.9-.752 1.83-1.474 2.773-2.154l1.252 1.982a47.153 47.153 0 0 0-2.627 2.046zm5.411-3.846-1.1-2.082a45.304 45.304 0 0 1 3.052-1.659l.947 2.154a48.15 48.15 0 0 0-2.9 1.587zm5.9-2.91-.791-2.235a44 44 0 0 1 3.249-1.151l.636 2.288c-1.051.328-2.09.7-3.1 1.1zm6.254-1.963-.487-2.33a52.788 52.788 0 0 1 3.355-.67l.345 2.358a47.347 47.347 0 0 0-3.215.643zm6.468-1.074-.212-2.367a57.554 57.554 0 0 1 3.4-.239l.09 2.394a49.09 49.09 0 0 0-3.28.222zm6.644-.377-.137-2.382a63.304 63.304 0 0 0 3.273-.3l.257 2.369c-1.1.136-2.246.242-3.4.316zm6.763-.838-.389-2.35a42.63 42.63 0 0 0 3.2-.718l.537 2.317c-1.08.288-2.2.539-3.342.752zm6.642-1.747-.7-2.269a40.215 40.215 0 0 0 3.048-1.2l.868 2.2c-1.034.455-2.106.88-3.215 1.263zm6.333-2.84-1.048-2.111c.957-.537 1.9-1.123 2.788-1.743l1.231 2a34.133 34.133 0 0 1-2.97 1.858zm5.764-4.009-1.407-1.862a34.4 34.4 0 0 0 2.417-2.279l1.577 1.7a35.3 35.3 0 0 1-2.587 2.446zm4.928-5.132-1.725-1.532a36.634 36.634 0 0 0 1.959-2.737l1.854 1.352a37.057 37.057 0 0 1-2.088 2.927zm3.911-6.022-1.957-1.172a43.508 43.508 0 0 0 1.479-3.078l2.042 1a42.776 42.776 0 0 1-1.565 3.264zm2.88-6.618-2.109-.83a52.193 52.193 0 0 0 1.033-3.3l2.155.675a51.938 51.938 0 0 1-1.078 3.46zm1.94-6.969-2.191-.529c.226-1.113.451-2.264.634-3.422l2.218.392a66.291 66.291 0 0 1-.661 3.564zm1.127-7.144-2.233-.27c.121-1.139.224-2.314.29-3.487l2.244.153a67.377 67.377 0 0 1-.293 3.609zm.451-7.216-2.254-.043v-.8a27.974 27.974 0 0 1 .158-2.858l2.236.259q-.136 1.3-.147 2.618c.011.278.009.553 0 .831zm.711-6.787-2.185-.567a29.913 29.913 0 0 1 1.052-3.54l2.094.869a27.066 27.066 0 0 0-.965 3.243zm2.316-6.316-1.972-1.146a28.348 28.348 0 0 1 1.888-3.106l1.8 1.417a26.347 26.347 0 0 0-1.719 2.846zm3.793-5.45-1.616-1.658a26.475 26.475 0 0 1 2.592-2.489l1.394 1.872a24.862 24.862 0 0 0-2.371 2.281zm5.012-4.2-1.162-2.044a85.653 85.653 0 0 1 2.949-1.8l1.075 2.1a89.901 89.901 0 0 0-2.866 1.747zm5.793-3.351-.982-2.151a75.821 75.821 0 0 1 3.086-1.513l.9 2.188c-1.01.479-2.017.972-3 1.484zm6.049-2.791-.8-2.231a66.056 66.056 0 0 1 3.205-1.2l.7 2.266a61.736 61.736 0 0 0-3.11 1.166zm6.26-2.187-.6-2.3c1.091-.321 2.2-.618 3.3-.881l.493 2.329a97.595 97.595 0 0 0-3.192.854zm6.425-1.536-.386-2.35a65.223 65.223 0 0 1 3.368-.531l.275 2.367a79.942 79.942 0 0 0-3.257.524zm16.4-.833a62.578 62.578 0 0 0-3.289-.18l.061-2.393a69.2 69.2 0 0 1 3.4.187zm-9.869-.022-.164-2.379a64.323 64.323 0 0 1 3.4-.175l.052 2.393c-1.1.029-2.2.086-3.289.17z" transform="translate(-608.348 -523.138)" style="fill:#bb91e8"/>
        <path data-name="Path 314" d="M397.669 349.758h106.126a15.519 15.519 0 0 1 11.3 4.968 17.5 17.5 0 0 1 4.68 11.994v228.65a17.506 17.506 0 0 1-4.68 11.994 15.519 15.519 0 0 1-11.3 4.968H397.669a15.524 15.524 0 0 1-11.3-4.967 17.51 17.51 0 0 1-4.682-11.993v-228.65a17.51 17.51 0 0 1 4.68-12 15.523 15.523 0 0 1 11.3-4.969z" transform="translate(-381.69 -349.758)" style="fill:#956cc0"/>
        <path data-name="Path 315" d="M420.831 370.009h96.7a15.522 15.522 0 0 1 11.3 4.968 17.5 17.5 0 0 1 4.679 11.994v220.405a17.5 17.5 0 0 1-4.679 11.994 15.521 15.521 0 0 1-11.3 4.968h-96.7a15.52 15.52 0 0 1-11.3-4.968 17.5 17.5 0 0 1-4.679-11.994V386.971a17.509 17.509 0 0 1 4.68-11.993 15.522 15.522 0 0 1 11.299-4.969z" transform="translate(-400.141 -365.888)" style="fill:#69519e"/>
        <path data-name="Path 316" d="M539.153 362.292h74v4.727a11.4 11.4 0 0 1-3.045 7.806 10.1 10.1 0 0 1-7.352 3.235h-53.2a10.1 10.1 0 0 1-7.351-3.233 11.389 11.389 0 0 1-3.045-7.805v-4.729z" transform="translate(-507.112 -359.741)" style="fill:#956cc0"/>
        <path data-name="Path 317" d="M1446.081 464.774v41.836a4.315 4.315 0 0 1-1.156 2.959 3.832 3.832 0 0 1-2.787 1.227h-63.374a3.832 3.832 0 0 1-2.788-1.227 4.325 4.325 0 0 1-1.156-2.959v-41.836a4.328 4.328 0 0 1 1.156-2.96 3.835 3.835 0 0 1 2.788-1.228h63.374a3.739 3.739 0 0 1 2.029.6 4.075 4.075 0 0 1 1.4 1.527 4.377 4.377 0 0 1 .514 2.061z" transform="translate(-1172.738 -438.034)" style="fill:#7e61bf"/>
        <path data-name="Path 318" d="m1447.663 463.526-33.716 23.694-33.747-23.675a3.977 3.977 0 0 0-.992.916l34.388 24.132.349.239 34.717-24.412a4.026 4.026 0 0 0-.999-.894z" transform="translate(-1176.233 -440.376)" style="fill:#322a7d"/>
        <path data-name="Path 319" d="M634.018 1177.746h-54.483a2.108 2.108 0 0 0-2.109 2.109v13.021a2.109 2.109 0 0 0 2.109 2.109h54.484a2.109 2.109 0 0 0 2.109-2.109v-13.021a2.108 2.108 0 0 0-2.11-2.109z" transform="translate(-537.598 -1009.266)" style="fill:#fff"/>
        <path data-name="Path 320" d="M666.55 1201.859a1.12 1.12 0 0 0-.072-.412.806.806 0 0 0-.242-.329 1.987 1.987 0 0 0-.495-.289 6.694 6.694 0 0 0-.8-.293 8.845 8.845 0 0 1-.989-.366 3.751 3.751 0 0 1-.782-.473 2 2 0 0 1-.52-.623 1.742 1.742 0 0 1-.186-.818 1.811 1.811 0 0 1 .191-.834 1.921 1.921 0 0 1 .55-.648 2.614 2.614 0 0 1 .85-.427 3.565 3.565 0 0 1 1.081-.155 3.112 3.112 0 0 1 1.436.309 2.278 2.278 0 0 1 .932.829 2.1 2.1 0 0 1 .33 1.148h-1.284a1.317 1.317 0 0 0-.159-.654 1.086 1.086 0 0 0-.474-.453 1.712 1.712 0 0 0-.8-.165 1.83 1.83 0 0 0-.761.139 1.02 1.02 0 0 0-.453.375.987.987 0 0 0-.149.536.772.772 0 0 0 .1.386 1.068 1.068 0 0 0 .3.319 2.632 2.632 0 0 0 .5.273 6.43 6.43 0 0 0 .716.247 7.076 7.076 0 0 1 1.086.412 3.125 3.125 0 0 1 .772.5 1.864 1.864 0 0 1 .464.644 2 2 0 0 1 .154.808 1.889 1.889 0 0 1-.19.855 1.85 1.85 0 0 1-.546.643 2.6 2.6 0 0 1-.845.407 4.171 4.171 0 0 1-2.157-.005 3.132 3.132 0 0 1-.947-.437 2.273 2.273 0 0 1-.68-.741 2.1 2.1 0 0 1-.252-1.045h1.293a1.426 1.426 0 0 0 .123.622 1.148 1.148 0 0 0 .356.423 1.576 1.576 0 0 0 .525.236 2.616 2.616 0 0 0 .648.078 1.951 1.951 0 0 0 .757-.129 1 1 0 0 0 .463-.361.943.943 0 0 0 .156-.532zm4.772 2.034a2.967 2.967 0 0 1-1.117-.2 2.461 2.461 0 0 1-.845-.572 2.535 2.535 0 0 1-.53-.859 3.02 3.02 0 0 1-.186-1.066v-.205a3.465 3.465 0 0 1 .191-1.184 2.677 2.677 0 0 1 .53-.907 2.292 2.292 0 0 1 .8-.581 2.49 2.49 0 0 1 1-.2 2.531 2.531 0 0 1 1.045.2 1.973 1.973 0 0 1 .741.566 2.34 2.34 0 0 1 .443.859 3.853 3.853 0 0 1 .15 1.1v.53h-4.305v-.891h3.079v-.1a1.712 1.712 0 0 0-.134-.629 1.061 1.061 0 0 0-.365-.473 1.1 1.1 0 0 0-.659-.18 1.115 1.115 0 0 0-.551.134 1.092 1.092 0 0 0-.4.375 1.952 1.952 0 0 0-.247.6 3.357 3.357 0 0 0-.082.777v.205a2.277 2.277 0 0 0 .1.68 1.612 1.612 0 0 0 .3.54 1.413 1.413 0 0 0 .474.366 1.5 1.5 0 0 0 .634.129 1.714 1.714 0 0 0 .8-.181 1.827 1.827 0 0 0 .608-.509l.654.633a2.541 2.541 0 0 1-.469.505 2.326 2.326 0 0 1-.705.386 2.784 2.784 0 0 1-.954.152zm4.427-4.484v4.381h-1.24v-5.57h1.168zm-.22 1.39-.4-.005a3.609 3.609 0 0 1 .164-1.086 2.661 2.661 0 0 1 .453-.85 1.988 1.988 0 0 1 .7-.545 2.057 2.057 0 0 1 .906-.2 2.187 2.187 0 0 1 .726.114 1.314 1.314 0 0 1 .561.355 1.617 1.617 0 0 1 .361.643 3.239 3.239 0 0 1 .123.963v3.6h-1.246v-3.6a1.4 1.4 0 0 0-.118-.633.666.666 0 0 0-.335-.335 1.251 1.251 0 0 0-.54-.1 1.206 1.206 0 0 0-.571.134 1.3 1.3 0 0 0-.428.366 1.788 1.788 0 0 0-.262.536 2.226 2.226 0 0 0-.094.644zm8.258 1.838v-6.755h1.245v7.908h-1.127zm-3.625-1.57v-.108a4.147 4.147 0 0 1 .15-1.153 2.709 2.709 0 0 1 .432-.9 1.885 1.885 0 0 1 .69-.581 1.988 1.988 0 0 1 .916-.207 1.911 1.911 0 0 1 .886.2 1.83 1.83 0 0 1 .648.561 2.894 2.894 0 0 1 .428.865 5.672 5.672 0 0 1 .226 1.112v.345a5.533 5.533 0 0 1-.226 1.091 2.918 2.918 0 0 1-.428.855 1.844 1.844 0 0 1-.654.556 1.918 1.918 0 0 1-.891.2 1.954 1.954 0 0 1-.911-.211 2.02 2.02 0 0 1-.684-.593 2.776 2.776 0 0 1-.432-.9 4.043 4.043 0 0 1-.15-1.132zm1.241-.108v.108a3.579 3.579 0 0 0 .067.711 1.988 1.988 0 0 0 .221.582 1.042 1.042 0 0 0 .963.53 1.217 1.217 0 0 0 .7-.186 1.267 1.267 0 0 0 .427-.5 2.32 2.32 0 0 0 .216-.711v-.931a2.3 2.3 0 0 0-.129-.567 1.547 1.547 0 0 0-.252-.458 1.066 1.066 0 0 0-.4-.309 1.242 1.242 0 0 0-.551-.114 1.093 1.093 0 0 0-.577.144 1.174 1.174 0 0 0-.391.4 1.976 1.976 0 0 0-.221.587 3.439 3.439 0 0 0-.076.714z" transform="translate(-605.146 -1023.711)" style="fill:#69519e"/>
        <path data-name="Path 321" d="M616.015 663.247v40.423L581.5 722.359l-1.934 1.042-.975.526-1.019-.553-1.934-1.042-34.482-18.643v-40.437a2.383 2.383 0 0 1 .933-1.831 3.563 3.563 0 0 1 2.241-.758h68.511a3.562 3.562 0 0 1 2.242.755 2.384 2.384 0 0 1 .932 1.829z" transform="translate(-508.705 -597.399)" style="fill:#ececec"/>
        <path data-name="Path 322" d="M804.51 795.389h-8.357a1.081 1.081 0 0 0-1.094 1.068v8.163a1.081 1.081 0 0 0 1.094 1.068h8.357a1.081 1.081 0 0 0 1.093-1.068v-8.163a1.081 1.081 0 0 0-1.093-1.068z" transform="translate(-710.946 -704.711)" style="fill:#69519e"/>
        <path data-name="Path 323" d="M617.966 795.389h-8.357a1.081 1.081 0 0 0-1.094 1.068v8.163a1.081 1.081 0 0 0 1.094 1.068h8.357a1.081 1.081 0 0 0 1.094-1.068v-8.163a1.081 1.081 0 0 0-1.094-1.068z" transform="translate(-562.361 -704.711)" style="fill:#69519e"/>
        <path data-name="Path 324" d="M679.94 795.389h-8.357a1.081 1.081 0 0 0-1.093 1.068v8.163a1.081 1.081 0 0 0 1.093 1.068h8.357a1.081 1.081 0 0 0 1.094-1.068v-8.163a1.081 1.081 0 0 0-1.094-1.068z" transform="translate(-611.725 -704.711)" style="fill:#69519e"/>
        <path data-name="Path 325" d="M742.328 795.389h-8.358a1.081 1.081 0 0 0-1.092 1.068v8.163a1.081 1.081 0 0 0 1.092 1.068h8.358a1.081 1.081 0 0 0 1.093-1.068v-8.163a1.081 1.081 0 0 0-1.093-1.068z" transform="translate(-661.418 -704.711)" style="fill:#69519e"/>
        <path data-name="Path 326" d="m625.286 814.245 1.081-1.416-1.6-.463.273-.844 1.585.607-.072-1.787h.9l-.082 1.823 1.559-.607.273.86-1.627.469 1.055 1.385-.726.525-.952-1.493-.937 1.452z" transform="translate(-575.309 -716.621)" style="fill:#fff"/>
        <path data-name="Path 327" d="m687.467 814.245 1.081-1.416-1.6-.463.273-.844 1.585.607-.072-1.787h.9l-.082 1.823 1.559-.607.273.86-1.627.469 1.055 1.385-.726.525-.952-1.493-.937 1.452z" transform="translate(-624.837 -716.621)" style="fill:#fff"/>
        <path data-name="Path 328" d="m749.648 814.245 1.081-1.416-1.6-.463.273-.844 1.585.607-.072-1.787h.9l-.082 1.823 1.559-.607.273.86-1.627.469L753 814.27l-.727.525-.952-1.493-.937 1.452z" transform="translate(-674.366 -716.621)" style="fill:#fff"/>
        <path data-name="Path 329" d="m811.829 814.245 1.081-1.416-1.6-.463.273-.844 1.585.607-.072-1.787h.9l-.082 1.823 1.559-.607.273.86-1.627.469 1.055 1.385-.726.525-.948-1.497-.937 1.452z" transform="translate(-723.895 -716.621)" style="fill:#fff"/>
        <path data-name="Path 330" d="m594.956 724.685-1.985-6.522h1.222l.833 2.948c.236.823.436 1.589.6 2.383h.02c.163-.776.383-1.569.627-2.359l.894-2.981h1.195l-2.125 6.522z" transform="translate(-549.979 -643.192)" style="fill:#996bca"/>
        <path data-name="Path 331" d="M626.209 721.834h-2.322v1.917h2.588v.976h-3.7V718.2h3.575v.976h-2.463v1.684h2.313z" transform="translate(-573.72 -643.232)" style="fill:#996bca"/>
        <path data-name="Path 332" d="M645.835 718.092a10.066 10.066 0 0 1 1.693-.136 2.735 2.735 0 0 1 1.9.522 1.637 1.637 0 0 1 .4.591 1.739 1.739 0 0 1 .124.718 1.81 1.81 0 0 1-.31 1.006 1.651 1.651 0 0 1-.8.63v.027a1.655 1.655 0 0 1 .858 1.259 13.459 13.459 0 0 0 .484 1.819h-1.159a9.388 9.388 0 0 1-.411-1.539c-.172-.852-.466-1.12-1.11-1.141h-.556v2.68h-1.111zm1.11 2.883h.666a1.084 1.084 0 0 0 1.231-1.073c0-.717-.475-1.047-1.2-1.047a3.034 3.034 0 0 0-.695.059z" transform="translate(-592.087 -643.035)" style="fill:#996bca"/>
        <path data-name="Path 333" d="M672.481 718.2v6.522h-1.11V718.2z" transform="translate(-612.426 -643.232)" style="fill:#996bca"/>
        <path data-name="Path 334" d="M683.133 718.2h3.55v.976h-2.427v1.8h2.261v.976h-2.261v2.769h-1.111z" transform="translate(-621.795 -643.232)" style="fill:#996bca"/>
        <path data-name="Path 335" d="M707.147 718.2v6.522h-1.11V718.2z" transform="translate(-640.039 -643.232)" style="fill:#996bca"/>
        <path data-name="Path 336" d="M720.931 724.159a3.688 3.688 0 0 1-1.586.295 2.993 2.993 0 0 1-3.136-3.282 3.186 3.186 0 0 1 3.282-3.447 3.335 3.335 0 0 1 1.494.295l-.247.949a2.831 2.831 0 0 0-1.2-.254 2.118 2.118 0 0 0-2.152 2.4 2.094 2.094 0 0 0 2.144 2.359 3 3 0 0 0 1.222-.242z" transform="translate(-648.141 -642.849)" style="fill:#996bca"/>
        <path data-name="Path 337" d="m743.869 722.877-.53 1.849h-1.159l1.969-6.522h1.433l2 6.522h-1.205l-.556-1.849zm1.758-.9-.483-1.607c-.119-.4-.219-.843-.308-1.221h-.012c-.092.378-.183.834-.292 1.221l-.474 1.607z" transform="translate(-668.827 -643.232)" style="fill:#996bca"/>
        <path data-name="Path 338" d="M768.21 719.2h-1.749v-1h4.647v1h-1.769v5.526h-1.111z" transform="translate(-688.167 -643.232)" style="fill:#996bca"/>
        <path data-name="Path 339" d="M793.967 718.2v6.522h-1.11V718.2z" transform="translate(-709.192 -643.232)" style="fill:#996bca"/>
        <path data-name="Path 340" d="M808.837 720.965c0 2.188-1.249 3.435-2.947 3.435s-2.825-1.4-2.825-3.32c0-2 1.184-3.417 2.917-3.417 1.796 0 2.855 1.437 2.855 3.302zm-4.588.1c0 1.327.63 2.38 1.7 2.38s1.7-1.064 1.7-2.43c0-1.23-.575-2.391-1.7-2.391s-1.7 1.091-1.7 2.439z" transform="translate(-717.323 -642.801)" style="fill:#996bca"/>
        <path data-name="Path 341" d="M836.166 724.726V718.2h1.278l1.586 2.8a19.257 19.257 0 0 1 1.047 2.188h.019c-.072-.87-.1-1.713-.1-2.71V718.2h1.04v6.522h-1.159l-1.6-2.863a23.168 23.168 0 0 1-1.111-2.256h-.027c.047.84.055 1.7.055 2.778v2.332z" transform="translate(-743.689 -643.232)" style="fill:#996bca"/>
        <path data-name="Path 342" d="M779.248 822.229v2.12l-5.948 4.181-33.189 23.332-1.511-1.062 34.7-24.393 5.41-3.8z" transform="translate(-665.975 -726.09)" style="fill:#7566bf"/>
        <path data-name="Path 343" d="M596.329 878.849a7.122 7.122 0 0 1-1.2 1.869l-4.68-3.288-34.3-24.063-1.045.738-1.019.716-.431.3-.422-.3-.036-.026-1.016-.714-1.059-.742-34.288 24.1-4.674 3.284a6.923 6.923 0 0 1-1.206-1.873l5.061-3.555 33.166-23.317-33.174-23.278-5.943-4.169v-2.12l.539.377 5.4 3.792 34.68 24.337 1.944 1.359 1.025.722.981-.687 1.944-1.359 1.513 1.059 33.189 23.289z" transform="translate(-483.942 -726.235)" style="fill:#7566bf"/>
        <path data-name="Path 344" d="M915.092 799.183v1.362l-.536.378-5.41 3.8v-9.721z" transform="translate(-801.819 -704.405)" style="fill:#322a7d"/>
        <path data-name="Path 345" d="M516.006 795.146v9.715l-5.4-3.792-.539-.377v-1.365z" transform="translate(-483.942 -704.518)" style="fill:#322a7d"/>
        <path data-name="Path 346" d="M603.346 1001.777a4.669 4.669 0 0 1-.948.8 3.271 3.271 0 0 1-1.783.543h-77.506a3.3 3.3 0 0 1-1.761-.528 4.493 4.493 0 0 1-.964-.814l4.674-3.285 34.288-24.1 1.059.743 1.016.713.036.026.423.3.43-.3 1.02-.716 1.044-.737 34.3 24.062z" transform="translate(-492.163 -847.295)" style="fill:#322a7d"/>
        <path data-name="Path 347" d="M784.1 832.082v49.951a10.857 10.857 0 0 1-.889 4.4l-5.066-3.555-33.183-23.294 33.189-23.331z" transform="translate(-671.043 -733.938)" style="fill:#322a7d"/>
        <path data-name="Path 348" d="m549.177 860.27-33.166 23.317-5.061 3.555a10.818 10.818 0 0 1-.889-4.4v-49.917l5.939 4.169z" transform="translate(-483.94 -734.53)" style="fill:#322a7d"/>
    </g>
</svg>
