<svg xmlns="http://www.w3.org/2000/svg" width="12.902" height="12.072" viewBox="0 0 12.902 12.072">
    <g data-name="Group 626">
        <path data-name="Icon ionic-ios-arrow-back" d="M16.072 12.228 11.5 7.664a.863.863 0 0 1 1.222-1.218l5.178 5.171a.861.861 0 0 1 .025 1.19l-5.2 5.207a.863.863 0 1 1-1.217-1.214z" transform="translate(-11.25 -6.194)" style="fill:#69519e"/>
        <path data-name="Icon ionic-ios-arrow-back" d="M16.072 12.228 11.5 7.664a.863.863 0 0 1 1.222-1.218l5.178 5.171a.861.861 0 0 1 .025 1.19l-5.2 5.207a.863.863 0 1 1-1.217-1.214z" transform="translate(-5.25 -6.194)" style="fill:#69519e"/>
    </g>
</svg>
