<svg xmlns="http://www.w3.org/2000/svg" width="25.852" height="25.852" viewBox="0 0 25.852 25.852">
    <path data-name="Icon ionic-ios-checkmark-circle" d="M16.3 3.375A12.926 12.926 0 1 0 29.227 16.3 12.924 12.924 0 0 0 16.3 3.375zm6.618 9.353-8.309 8.346H14.6a1.122 1.122 0 0 1-.721.342 1.088 1.088 0 0 1-.727-.354l-3.48-3.48a.248.248 0 0 1 0-.354l1.106-1.106a.24.24 0 0 1 .348 0l2.764 2.758 7.582-7.637a.245.245 0 0 1 .174-.075.226.226 0 0 1 .174.075l1.088 1.125a.245.245 0 0 1 .011.36z" transform="translate(-3.375 -3.375)" style="fill:#f3f3f3"/>
</svg>
